<?xml version="1.0" standalone="no"?>
  <!DOCTYPE svg PUBLIC "-//W3C//DTD SVG 1.1//EN" "http://www.w3.org/Graphics/SVG/1.1/DTD/svg11.dtd" >
  <svg>
  <metadata>
  Created by font-carrier
  </metadata>
  <defs>
  <font id="Krub-SemiBold" horiz-adv-x="1342" vert-adv-y="1342" >
    <font-face
      
      font-family="Krub SemiBold"
      
      font-weight="400"
      
      font-stretch="normal"
      
      units-per-em="1000"
      
      ascent="1007"
      
      descent="-293"
      
    />
      <missing-glyph />

      

      
      <glyph glyph-name="uni41" unicode="&#x41;" d="M507 0Q492 89 472 183L175 183Q155 89 140 0L15 0Q45 192 105 364.50Q165 537 260 700L388 700Q482 538 542 365.50Q602 193 632 0L507 0M449 276Q402 449 323 600Q244 447 198 276L449 276Z"  horiz-adv-x="647" vert-adv-y="1000"  />

      
      <glyph glyph-name="unic1" unicode="&#xc1;" d="M507 0Q492 89 472 183L175 183Q155 89 140 0L15 0Q45 192 105 364.50Q165 537 260 700L388 700Q482 538 542 365.50Q602 193 632 0L507 0M449 276Q402 449 323 600Q244 447 198 276L449 276Z"  horiz-adv-x="647" vert-adv-y="1000"  />

      
      <glyph glyph-name="uni0102" unicode="&#x0102;" d="M507 0Q492 89 472 183L175 183Q155 89 140 0L15 0Q45 192 105 364.50Q165 537 260 700L388 700Q482 538 542 365.50Q602 193 632 0L507 0M449 276Q402 449 323 600Q244 447 198 276L449 276Z"  horiz-adv-x="647" vert-adv-y="1000"  />

      
      <glyph glyph-name="uni1EAE" unicode="&#x1EAE;" d="M507 0Q492 89 472 183L175 183Q155 89 140 0L15 0Q45 192 105 364.50Q165 537 260 700L388 700Q482 538 542 365.50Q602 193 632 0L507 0M449 276Q402 449 323 600Q244 447 198 276L449 276Z"  horiz-adv-x="647" vert-adv-y="1000"  />

      
      <glyph glyph-name="uni1EB6" unicode="&#x1EB6;" d="M507 0Q492 89 472 183L175 183Q155 89 140 0L15 0Q45 192 105 364.50Q165 537 260 700L388 700Q482 538 542 365.50Q602 193 632 0L507 0M449 276Q402 449 323 600Q244 447 198 276L449 276M318-213Q251-213 251-146L251-133Q251-66 318-66L330-66Q397-66 397-133L397-146Q397-213 330-213L318-213Z"  horiz-adv-x="647" vert-adv-y="1000"  />

      
      <glyph glyph-name="uni1EB0" unicode="&#x1EB0;" d="M507 0Q492 89 472 183L175 183Q155 89 140 0L15 0Q45 192 105 364.50Q165 537 260 700L388 700Q482 538 542 365.50Q602 193 632 0L507 0M449 276Q402 449 323 600Q244 447 198 276L449 276Z"  horiz-adv-x="647" vert-adv-y="1000"  />

      
      <glyph glyph-name="uni1EB2" unicode="&#x1EB2;" d="M507 0Q492 89 472 183L175 183Q155 89 140 0L15 0Q45 192 105 364.50Q165 537 260 700L388 700Q482 538 542 365.50Q602 193 632 0L507 0M449 276Q402 449 323 600Q244 447 198 276L449 276Z"  horiz-adv-x="647" vert-adv-y="1000"  />

      
      <glyph glyph-name="uni1EB4" unicode="&#x1EB4;" d="M507 0Q492 89 472 183L175 183Q155 89 140 0L15 0Q45 192 105 364.50Q165 537 260 700L388 700Q482 538 542 365.50Q602 193 632 0L507 0M449 276Q402 449 323 600Q244 447 198 276L449 276Z"  horiz-adv-x="647" vert-adv-y="1000"  />

      
      <glyph glyph-name="uni01CD" unicode="&#x01CD;" d="M507 0Q492 89 472 183L175 183Q155 89 140 0L15 0Q45 192 105 364.50Q165 537 260 700L388 700Q482 538 542 365.50Q602 193 632 0L507 0M449 276Q402 449 323 600Q244 447 198 276L449 276Z"  horiz-adv-x="647" vert-adv-y="1000"  />

      
      <glyph glyph-name="unic2" unicode="&#xc2;" d="M507 0Q492 89 472 183L175 183Q155 89 140 0L15 0Q45 192 105 364.50Q165 537 260 700L388 700Q482 538 542 365.50Q602 193 632 0L507 0M449 276Q402 449 323 600Q244 447 198 276L449 276Z"  horiz-adv-x="647" vert-adv-y="1000"  />

      
      <glyph glyph-name="uni1EA4" unicode="&#x1EA4;" d="M507 0Q492 89 472 183L175 183Q155 89 140 0L15 0Q45 192 105 364.50Q165 537 260 700L388 700Q482 538 542 365.50Q602 193 632 0L507 0M449 276Q402 449 323 600Q244 447 198 276L449 276Z"  horiz-adv-x="647" vert-adv-y="1000"  />

      
      <glyph glyph-name="uni1EAC" unicode="&#x1EAC;" d="M507 0Q492 89 472 183L175 183Q155 89 140 0L15 0Q45 192 105 364.50Q165 537 260 700L388 700Q482 538 542 365.50Q602 193 632 0L507 0M449 276Q402 449 323 600Q244 447 198 276L449 276M318-213Q251-213 251-146L251-133Q251-66 318-66L330-66Q397-66 397-133L397-146Q397-213 330-213L318-213Z"  horiz-adv-x="647" vert-adv-y="1000"  />

      
      <glyph glyph-name="uni1EA6" unicode="&#x1EA6;" d="M507 0Q492 89 472 183L175 183Q155 89 140 0L15 0Q45 192 105 364.50Q165 537 260 700L388 700Q482 538 542 365.50Q602 193 632 0L507 0M449 276Q402 449 323 600Q244 447 198 276L449 276Z"  horiz-adv-x="647" vert-adv-y="1000"  />

      
      <glyph glyph-name="uni1EA8" unicode="&#x1EA8;" d="M507 0Q492 89 472 183L175 183Q155 89 140 0L15 0Q45 192 105 364.50Q165 537 260 700L388 700Q482 538 542 365.50Q602 193 632 0L507 0M449 276Q402 449 323 600Q244 447 198 276L449 276Z"  horiz-adv-x="647" vert-adv-y="1000"  />

      
      <glyph glyph-name="uni1EAA" unicode="&#x1EAA;" d="M507 0Q492 89 472 183L175 183Q155 89 140 0L15 0Q45 192 105 364.50Q165 537 260 700L388 700Q482 538 542 365.50Q602 193 632 0L507 0M449 276Q402 449 323 600Q244 447 198 276L449 276Z"  horiz-adv-x="647" vert-adv-y="1000"  />

      
      <glyph glyph-name="unic4" unicode="&#xc4;" d="M507 0Q492 89 472 183L175 183Q155 89 140 0L15 0Q45 192 105 364.50Q165 537 260 700L388 700Q482 538 542 365.50Q602 193 632 0L507 0M449 276Q402 449 323 600Q244 447 198 276L449 276Z"  horiz-adv-x="647" vert-adv-y="1000"  />

      
      <glyph glyph-name="uni1EA0" unicode="&#x1EA0;" d="M507 0Q492 89 472 183L175 183Q155 89 140 0L15 0Q45 192 105 364.50Q165 537 260 700L388 700Q482 538 542 365.50Q602 193 632 0L507 0M449 276Q402 449 323 600Q244 447 198 276L449 276M318-213Q251-213 251-146L251-133Q251-66 318-66L330-66Q397-66 397-133L397-146Q397-213 330-213L318-213Z"  horiz-adv-x="647" vert-adv-y="1000"  />

      
      <glyph glyph-name="unic0" unicode="&#xc0;" d="M507 0Q492 89 472 183L175 183Q155 89 140 0L15 0Q45 192 105 364.50Q165 537 260 700L388 700Q482 538 542 365.50Q602 193 632 0L507 0M449 276Q402 449 323 600Q244 447 198 276L449 276Z"  horiz-adv-x="647" vert-adv-y="1000"  />

      
      <glyph glyph-name="uni1EA2" unicode="&#x1EA2;" d="M507 0Q492 89 472 183L175 183Q155 89 140 0L15 0Q45 192 105 364.50Q165 537 260 700L388 700Q482 538 542 365.50Q602 193 632 0L507 0M449 276Q402 449 323 600Q244 447 198 276L449 276M338 725Q321 726 308.50 736.50Q296 747 296 759Q351 788 351 840Q351 877 319 877Q301 877 292 866Q283 855 279 831Q221 831 221 875Q221 906 248.50 927.50Q276 949 322 949Q373 949 402.50 925Q432 901 432 858Q432 809 406 775Q380 741 338 725Z"  horiz-adv-x="647" vert-adv-y="1000"  />

      
      <glyph glyph-name="uni0100" unicode="&#x0100;" d="M507 0Q492 89 472 183L175 183Q155 89 140 0L15 0Q45 192 105 364.50Q165 537 260 700L388 700Q482 538 542 365.50Q602 193 632 0L507 0M449 276Q402 449 323 600Q244 447 198 276L449 276Z"  horiz-adv-x="647" vert-adv-y="1000"  />

      
      <glyph glyph-name="uni0104" unicode="&#x0104;" d="M507 0Q492 89 472 183L175 183Q155 89 140 0L15 0Q45 192 105 364.50Q165 537 260 700L388 700Q482 538 542 365.50Q602 193 632 0L507 0M449 276Q402 449 323 600Q244 447 198 276L449 276Z"  horiz-adv-x="647" vert-adv-y="1000"  />

      
      <glyph glyph-name="unic5" unicode="&#xc5;" d="M507 0Q492 89 472 183L175 183Q155 89 140 0L15 0Q45 192 105 364.50Q165 537 260 700L388 700Q482 538 542 365.50Q602 193 632 0L507 0M449 276Q402 449 323 600Q244 447 198 276L449 276Z"  horiz-adv-x="647" vert-adv-y="1000"  />

      
      <glyph glyph-name="uni01FA" unicode="&#x01FA;" d="M507 0Q492 89 472 183L175 183Q155 89 140 0L15 0Q45 192 105 364.50Q165 537 260 700L388 700Q482 538 542 365.50Q602 193 632 0L507 0M449 276Q402 449 323 600Q244 447 198 276L449 276Z"  horiz-adv-x="647" vert-adv-y="1000"  />

      
      <glyph glyph-name="unic3" unicode="&#xc3;" d="M507 0Q492 89 472 183L175 183Q155 89 140 0L15 0Q45 192 105 364.50Q165 537 260 700L388 700Q482 538 542 365.50Q602 193 632 0L507 0M449 276Q402 449 323 600Q244 447 198 276L449 276Z"  horiz-adv-x="647" vert-adv-y="1000"  />

      
      <glyph glyph-name="unic6" unicode="&#xc6;" d="M907 87Q907 38 894 19Q881 0 841 0L473 0L473 206L199 206Q162 108 142 0L15 0Q56 202 150 383.50Q244 565 402 700L905 700L905 613L592 613L592 403L862 403L862 316L592 316L592 87L907 87M473 293L473 613L464 613Q396 553 337.50 471.50Q279 390 235 293L473 293Z"  horiz-adv-x="957" vert-adv-y="1000"  />

      
      <glyph glyph-name="uni01FC" unicode="&#x01FC;" d="M907 87Q907 38 894 19Q881 0 841 0L473 0L473 206L199 206Q162 108 142 0L15 0Q56 202 150 383.50Q244 565 402 700L905 700L905 613L592 613L592 403L862 403L862 316L592 316L592 87L907 87M473 293L473 613L464 613Q396 553 337.50 471.50Q279 390 235 293L473 293Z"  horiz-adv-x="957" vert-adv-y="1000"  />

      
      <glyph glyph-name="uni42" unicode="&#x42;" d="M464 362Q518 347 551.50 302.50Q585 258 585 201Q585 105 519.50 52.50Q454 0 333 0L79 0L79 700L323 700Q430 700 491.50 648.50Q553 597 553 509Q553 458 529 418.50Q505 379 464 362M425 509Q425 609 296 609L206 609L206 402L293 402Q361 402 393 428Q425 454 425 509M309 91Q365 91 397 101.50Q429 112 443 135.50Q457 159 457 201Q457 261 422.50 286.50Q388 312 307 312L206 312L206 91L309 91Z"  horiz-adv-x="622" vert-adv-y="1000"  />

      
      <glyph glyph-name="uni43" unicode="&#x43;" d="M372-10Q218-10 135 83.50Q52 177 52 349Q52 520 136 615Q220 710 372 710Q433 710 488.50 689Q544 668 579 632Q574 604 557 582Q540 560 524 560Q510 560 498 569Q466 593 436 604Q406 615 370 615Q277 615 229.50 548Q182 481 182 349Q182 218 229.50 151.50Q277 85 370 85Q463 85 529 151Q549 143 561 127Q573 111 573 92Q573 65 545 41.50Q517 18 471 4Q425-10 372-10Z"  horiz-adv-x="623" vert-adv-y="1000"  />

      
      <glyph glyph-name="uni0106" unicode="&#x0106;" d="M372-10Q218-10 135 83.50Q52 177 52 349Q52 520 136 615Q220 710 372 710Q433 710 488.50 689Q544 668 579 632Q574 604 557 582Q540 560 524 560Q510 560 498 569Q466 593 436 604Q406 615 370 615Q277 615 229.50 548Q182 481 182 349Q182 218 229.50 151.50Q277 85 370 85Q463 85 529 151Q549 143 561 127Q573 111 573 92Q573 65 545 41.50Q517 18 471 4Q425-10 372-10Z"  horiz-adv-x="623" vert-adv-y="1000"  />

      
      <glyph glyph-name="uni010C" unicode="&#x010C;" d="M372-10Q218-10 135 83.50Q52 177 52 349Q52 520 136 615Q220 710 372 710Q433 710 488.50 689Q544 668 579 632Q574 604 557 582Q540 560 524 560Q510 560 498 569Q466 593 436 604Q406 615 370 615Q277 615 229.50 548Q182 481 182 349Q182 218 229.50 151.50Q277 85 370 85Q463 85 529 151Q549 143 561 127Q573 111 573 92Q573 65 545 41.50Q517 18 471 4Q425-10 372-10Z"  horiz-adv-x="623" vert-adv-y="1000"  />

      
      <glyph glyph-name="unic7" unicode="&#xc7;" d="M529 151Q549 143 561 127Q573 111 573 92Q573 56 524 27Q475-2 405-8L366-52L376-52Q420-52 447.50-75Q475-98 475-136Q475-183 441.50-209.50Q408-236 341-236Q289-236 265-222.50Q241-209 241-186Q241-177 244-166Q256-171 279-174Q302-177 328-177Q359-177 372.50-167.50Q386-158 386-138Q386-126 376-117Q366-108 347-108Q329-108 315-114L284-75L330-8Q196 5 124 97Q52 189 52 349Q52 520 136 615Q220 710 372 710Q433 710 488.50 689Q544 668 579 632Q574 604 557 582Q540 560 524 560Q510 560 498 569Q466 593 436 604Q406 615 370 615Q277 615 229.50 548Q182 481 182 349Q182 218 229.50 151.50Q277 85 370 85Q463 85 529 151Z"  horiz-adv-x="623" vert-adv-y="1000"  />

      
      <glyph glyph-name="uni0108" unicode="&#x0108;" d="M372-10Q218-10 135 83.50Q52 177 52 349Q52 520 136 615Q220 710 372 710Q433 710 488.50 689Q544 668 579 632Q574 604 557 582Q540 560 524 560Q510 560 498 569Q466 593 436 604Q406 615 370 615Q277 615 229.50 548Q182 481 182 349Q182 218 229.50 151.50Q277 85 370 85Q463 85 529 151Q549 143 561 127Q573 111 573 92Q573 65 545 41.50Q517 18 471 4Q425-10 372-10Z"  horiz-adv-x="623" vert-adv-y="1000"  />

      
      <glyph glyph-name="uni010A" unicode="&#x010A;" d="M372-10Q218-10 135 83.50Q52 177 52 349Q52 520 136 615Q220 710 372 710Q433 710 488.50 689Q544 668 579 632Q574 604 557 582Q540 560 524 560Q510 560 498 569Q466 593 436 604Q406 615 370 615Q277 615 229.50 548Q182 481 182 349Q182 218 229.50 151.50Q277 85 370 85Q463 85 529 151Q549 143 561 127Q573 111 573 92Q573 65 545 41.50Q517 18 471 4Q425-10 372-10Z"  horiz-adv-x="623" vert-adv-y="1000"  />

      
      <glyph glyph-name="uni44" unicode="&#x44;" d="M300 700Q458 700 546.50 608Q635 516 635 350Q635 244 594 165Q553 86 477.50 43Q402 0 300 0L73 0L73 700L300 700M286 91Q393 91 450.50 157.50Q508 224 508 349Q508 609 286 609L199 609L199 91L286 91Z"  horiz-adv-x="679" vert-adv-y="1000"  />

      
      <glyph glyph-name="unid0" unicode="&#xd0;" d="M300 700Q458 700 546.50 608Q635 516 635 350Q635 244 594 165Q553 86 477.50 43Q402 0 300 0L73 0L73 314L1 314L1 397L73 397L73 700L300 700M286 91Q393 91 450.50 157.50Q508 224 508 349Q508 609 286 609L199 609L199 397L346 397L346 314L199 314L199 91L286 91Z"  horiz-adv-x="672" vert-adv-y="1000"  />

      
      <glyph glyph-name="uni010E" unicode="&#x010E;" d="M300 700Q458 700 546.50 608Q635 516 635 350Q635 244 594 165Q553 86 477.50 43Q402 0 300 0L73 0L73 700L300 700M286 91Q393 91 450.50 157.50Q508 224 508 349Q508 609 286 609L199 609L199 91L286 91Z"  horiz-adv-x="672" vert-adv-y="1000"  />

      
      <glyph glyph-name="uni0110" unicode="&#x0110;" d="M300 700Q458 700 546.50 608Q635 516 635 350Q635 244 594 165Q553 86 477.50 43Q402 0 300 0L73 0L73 314L1 314L1 397L73 397L73 700L300 700M286 91Q393 91 450.50 157.50Q508 224 508 349Q508 609 286 609L199 609L199 397L346 397L346 314L199 314L199 91L286 91Z"  horiz-adv-x="672" vert-adv-y="1000"  />

      
      <glyph glyph-name="uni1E0C" unicode="&#x1E0C;" d="M300 700Q458 700 546.50 608Q635 516 635 350Q635 244 594 165Q553 86 477.50 43Q402 0 300 0L73 0L73 700L300 700M286 91Q393 91 450.50 157.50Q508 224 508 349Q508 609 286 609L199 609L199 91L286 91M330-213Q263-213 263-146L263-133Q263-66 330-66L342-66Q409-66 409-133L409-146Q409-213 342-213L330-213Z"  horiz-adv-x="672" vert-adv-y="1000"  />

      
      <glyph glyph-name="uni1E0E" unicode="&#x1E0E;" d="M300 700Q458 700 546.50 608Q635 516 635 350Q635 244 594 165Q553 86 477.50 43Q402 0 300 0L73 0L73 700L300 700M286 91Q393 91 450.50 157.50Q508 224 508 349Q508 609 286 609L199 609L199 91L286 91Z"  horiz-adv-x="672" vert-adv-y="1000"  />

      
      <glyph glyph-name="uni45" unicode="&#x45;" d="M512 91Q512 38 501 19Q490 0 460 0L73 0L73 700L504 700L504 609L199 609L199 405L456 405L456 315L199 315L199 91L512 91Z"  horiz-adv-x="560" vert-adv-y="1000"  />

      
      <glyph glyph-name="unic9" unicode="&#xc9;" d="M512 91Q512 38 501 19Q490 0 460 0L73 0L73 700L504 700L504 609L199 609L199 405L456 405L456 315L199 315L199 91L512 91Z"  horiz-adv-x="560" vert-adv-y="1000"  />

      
      <glyph glyph-name="uni0114" unicode="&#x0114;" d="M512 91Q512 38 501 19Q490 0 460 0L73 0L73 700L504 700L504 609L199 609L199 405L456 405L456 315L199 315L199 91L512 91Z"  horiz-adv-x="560" vert-adv-y="1000"  />

      
      <glyph glyph-name="uni011A" unicode="&#x011A;" d="M512 91Q512 38 501 19Q490 0 460 0L73 0L73 700L504 700L504 609L199 609L199 405L456 405L456 315L199 315L199 91L512 91Z"  horiz-adv-x="560" vert-adv-y="1000"  />

      
      <glyph glyph-name="unica" unicode="&#xca;" d="M512 91Q512 38 501 19Q490 0 460 0L73 0L73 700L504 700L504 609L199 609L199 405L456 405L456 315L199 315L199 91L512 91Z"  horiz-adv-x="560" vert-adv-y="1000"  />

      
      <glyph glyph-name="uni1EBE" unicode="&#x1EBE;" d="M512 91Q512 38 501 19Q490 0 460 0L73 0L73 700L504 700L504 609L199 609L199 405L456 405L456 315L199 315L199 91L512 91Z"  horiz-adv-x="560" vert-adv-y="1000"  />

      
      <glyph glyph-name="uni1EC6" unicode="&#x1EC6;" d="M512 91Q512 38 501 19Q490 0 460 0L73 0L73 700L504 700L504 609L199 609L199 405L456 405L456 315L199 315L199 91L512 91M274-213Q207-213 207-146L207-133Q207-66 274-66L286-66Q353-66 353-133L353-146Q353-213 286-213L274-213Z"  horiz-adv-x="560" vert-adv-y="1000"  />

      
      <glyph glyph-name="uni1EC0" unicode="&#x1EC0;" d="M512 91Q512 38 501 19Q490 0 460 0L73 0L73 700L504 700L504 609L199 609L199 405L456 405L456 315L199 315L199 91L512 91Z"  horiz-adv-x="560" vert-adv-y="1000"  />

      
      <glyph glyph-name="uni1EC2" unicode="&#x1EC2;" d="M512 91Q512 38 501 19Q490 0 460 0L73 0L73 700L504 700L504 609L199 609L199 405L456 405L456 315L199 315L199 91L512 91Z"  horiz-adv-x="560" vert-adv-y="1000"  />

      
      <glyph glyph-name="uni1EC4" unicode="&#x1EC4;" d="M512 91Q512 38 501 19Q490 0 460 0L73 0L73 700L504 700L504 609L199 609L199 405L456 405L456 315L199 315L199 91L512 91Z"  horiz-adv-x="560" vert-adv-y="1000"  />

      
      <glyph glyph-name="unicb" unicode="&#xcb;" d="M512 91Q512 38 501 19Q490 0 460 0L73 0L73 700L504 700L504 609L199 609L199 405L456 405L456 315L199 315L199 91L512 91Z"  horiz-adv-x="560" vert-adv-y="1000"  />

      
      <glyph glyph-name="uni0116" unicode="&#x0116;" d="M512 91Q512 38 501 19Q490 0 460 0L73 0L73 700L504 700L504 609L199 609L199 405L456 405L456 315L199 315L199 91L512 91Z"  horiz-adv-x="560" vert-adv-y="1000"  />

      
      <glyph glyph-name="uni1EB8" unicode="&#x1EB8;" d="M512 91Q512 38 501 19Q490 0 460 0L73 0L73 700L504 700L504 609L199 609L199 405L456 405L456 315L199 315L199 91L512 91M274-213Q207-213 207-146L207-133Q207-66 274-66L286-66Q353-66 353-133L353-146Q353-213 286-213L274-213Z"  horiz-adv-x="560" vert-adv-y="1000"  />

      
      <glyph glyph-name="unic8" unicode="&#xc8;" d="M512 91Q512 38 501 19Q490 0 460 0L73 0L73 700L504 700L504 609L199 609L199 405L456 405L456 315L199 315L199 91L512 91Z"  horiz-adv-x="560" vert-adv-y="1000"  />

      
      <glyph glyph-name="uni1EBA" unicode="&#x1EBA;" d="M512 91Q512 38 501 19Q490 0 460 0L73 0L73 700L504 700L504 609L199 609L199 405L456 405L456 315L199 315L199 91L512 91M295 732Q278 733 265.50 743.50Q253 754 253 766Q308 795 308 847Q308 884 276 884Q258 884 249 873Q240 862 236 838Q178 838 178 882Q178 913 205.50 934.50Q233 956 279 956Q330 956 359.50 932Q389 908 389 865Q389 816 363 782Q337 748 295 732Z"  horiz-adv-x="560" vert-adv-y="1000"  />

      
      <glyph glyph-name="uni0112" unicode="&#x0112;" d="M512 91Q512 38 501 19Q490 0 460 0L73 0L73 700L504 700L504 609L199 609L199 405L456 405L456 315L199 315L199 91L512 91Z"  horiz-adv-x="560" vert-adv-y="1000"  />

      
      <glyph glyph-name="uni0118" unicode="&#x0118;" d="M516-126Q532-138 532-157Q532-177 512-188.50Q492-200 455-200Q403-200 374.50-178.50Q346-157 346-115Q346-44 421 0L73 0L73 700L504 700L504 609L199 609L199 405L456 405L456 315L199 315L199 91L512 91Q512 54 507 34.50Q502 15 490 7Q466-18 453-42Q440-66 440-93Q440-114 450-125Q460-136 477-136Q498-136 516-126Z"  horiz-adv-x="560" vert-adv-y="1000"  />

      
      <glyph glyph-name="uni1EBC" unicode="&#x1EBC;" d="M512 91Q512 38 501 19Q490 0 460 0L73 0L73 700L504 700L504 609L199 609L199 405L456 405L456 315L199 315L199 91L512 91Z"  horiz-adv-x="560" vert-adv-y="1000"  />

      
      <glyph glyph-name="uni46" unicode="&#x46;" d="M199 609L199 404L455 404L455 313L199 313L199 0L73 0L73 700L498 700L498 609L199 609Z"  horiz-adv-x="530" vert-adv-y="1000"  />

      
      <glyph glyph-name="uni47" unicode="&#x47;" d="M624 380L624 73Q581 32 518.50 11Q456-10 380-10Q220-10 137.50 81Q55 172 55 350Q55 461 95 542Q135 623 210 666.50Q285 710 387 710Q461 710 522.50 689Q584 668 621 629Q612 602 593.50 580Q575 558 561 558Q549 558 531 569Q497 594 462 605Q427 616 385 616Q287 616 236 548Q185 480 185 350Q185 84 379 84Q418 84 450 92.50Q482 101 499 115L499 289L411 289Q383 289 372 309.50Q361 330 361 380L624 380Z"  horiz-adv-x="679" vert-adv-y="1000"  />

      
      <glyph glyph-name="uni011E" unicode="&#x011E;" d="M624 380L624 73Q581 32 518.50 11Q456-10 380-10Q220-10 137.50 81Q55 172 55 350Q55 461 95 542Q135 623 210 666.50Q285 710 387 710Q461 710 522.50 689Q584 668 621 629Q612 602 593.50 580Q575 558 561 558Q549 558 531 569Q497 594 462 605Q427 616 385 616Q287 616 236 548Q185 480 185 350Q185 84 379 84Q418 84 450 92.50Q482 101 499 115L499 289L411 289Q383 289 372 309.50Q361 330 361 380L624 380Z"  horiz-adv-x="679" vert-adv-y="1000"  />

      
      <glyph glyph-name="uni01E6" unicode="&#x01E6;" d="M624 380L624 73Q581 32 518.50 11Q456-10 380-10Q220-10 137.50 81Q55 172 55 350Q55 461 95 542Q135 623 210 666.50Q285 710 387 710Q461 710 522.50 689Q584 668 621 629Q612 602 593.50 580Q575 558 561 558Q549 558 531 569Q497 594 462 605Q427 616 385 616Q287 616 236 548Q185 480 185 350Q185 84 379 84Q418 84 450 92.50Q482 101 499 115L499 289L411 289Q383 289 372 309.50Q361 330 361 380L624 380Z"  horiz-adv-x="679" vert-adv-y="1000"  />

      
      <glyph glyph-name="uni011C" unicode="&#x011C;" d="M624 380L624 73Q581 32 518.50 11Q456-10 380-10Q220-10 137.50 81Q55 172 55 350Q55 461 95 542Q135 623 210 666.50Q285 710 387 710Q461 710 522.50 689Q584 668 621 629Q612 602 593.50 580Q575 558 561 558Q549 558 531 569Q497 594 462 605Q427 616 385 616Q287 616 236 548Q185 480 185 350Q185 84 379 84Q418 84 450 92.50Q482 101 499 115L499 289L411 289Q383 289 372 309.50Q361 330 361 380L624 380Z"  horiz-adv-x="679" vert-adv-y="1000"  />

      
      <glyph glyph-name="uni0122" unicode="&#x0122;" d="M624 380L624 73Q581 32 518.50 11Q456-10 380-10Q220-10 137.50 81Q55 172 55 350Q55 461 95 542Q135 623 210 666.50Q285 710 387 710Q461 710 522.50 689Q584 668 621 629Q612 602 593.50 580Q575 558 561 558Q549 558 531 569Q497 594 462 605Q427 616 385 616Q287 616 236 548Q185 480 185 350Q185 84 379 84Q418 84 450 92.50Q482 101 499 115L499 289L411 289Q383 289 372 309.50Q361 330 361 380L624 380Z"  horiz-adv-x="679" vert-adv-y="1000"  />

      
      <glyph glyph-name="uni0120" unicode="&#x0120;" d="M624 380L624 73Q581 32 518.50 11Q456-10 380-10Q220-10 137.50 81Q55 172 55 350Q55 461 95 542Q135 623 210 666.50Q285 710 387 710Q461 710 522.50 689Q584 668 621 629Q612 602 593.50 580Q575 558 561 558Q549 558 531 569Q497 594 462 605Q427 616 385 616Q287 616 236 548Q185 480 185 350Q185 84 379 84Q418 84 450 92.50Q482 101 499 115L499 289L411 289Q383 289 372 309.50Q361 330 361 380L624 380Z"  horiz-adv-x="679" vert-adv-y="1000"  />

      
      <glyph glyph-name="uni1E20" unicode="&#x1E20;" d="M624 380L624 73Q581 32 518.50 11Q456-10 380-10Q220-10 137.50 81Q55 172 55 350Q55 461 95 542Q135 623 210 666.50Q285 710 387 710Q461 710 522.50 689Q584 668 621 629Q612 602 593.50 580Q575 558 561 558Q549 558 531 569Q497 594 462 605Q427 616 385 616Q287 616 236 548Q185 480 185 350Q185 84 379 84Q418 84 450 92.50Q482 101 499 115L499 289L411 289Q383 289 372 309.50Q361 330 361 380L624 380Z"  horiz-adv-x="679" vert-adv-y="1000"  />

      
      <glyph glyph-name="uni48" unicode="&#x48;" d="M621 700L621 0L494 0L494 310L199 310L199 0L73 0L73 700L199 700L199 403L494 403L494 700L621 700Z"  horiz-adv-x="693" vert-adv-y="1000"  />

      
      <glyph glyph-name="uni0126" unicode="&#x0126;" d="M683 524L621 524L621 0L494 0L494 310L199 310L199 0L73 0L73 524L10 524L10 584L73 584L73 700L199 700L199 584L494 584L494 700L621 700L621 584L683 584L683 524M494 524L199 524L199 403L494 403L494 524Z"  horiz-adv-x="693" vert-adv-y="1000"  />

      
      <glyph glyph-name="uni1E2A" unicode="&#x1E2A;" d="M621 700L621 0L494 0L494 310L199 310L199 0L73 0L73 700L199 700L199 403L494 403L494 700L621 700Z"  horiz-adv-x="693" vert-adv-y="1000"  />

      
      <glyph glyph-name="uni0124" unicode="&#x0124;" d="M621 700L621 0L494 0L494 310L199 310L199 0L73 0L73 700L199 700L199 403L494 403L494 700L621 700Z"  horiz-adv-x="693" vert-adv-y="1000"  />

      
      <glyph glyph-name="uni1E24" unicode="&#x1E24;" d="M621 700L621 0L494 0L494 310L199 310L199 0L73 0L73 700L199 700L199 403L494 403L494 700L621 700M341-213Q274-213 274-146L274-133Q274-66 341-66L353-66Q420-66 420-133L420-146Q420-213 353-213L341-213Z"  horiz-adv-x="693" vert-adv-y="1000"  />

      
      <glyph glyph-name="uni49" unicode="&#x49;" d="M112 700L238 700L238 0L112 0L112 700Z"  horiz-adv-x="350" vert-adv-y="1000"  />

      
      <glyph glyph-name="uni0132" unicode="&#x0132;" d="M112 700L238 700L238 0L112 0L112 700M445-10Q407-10 363.50-1.50Q320 7 302 17Q302 99 336 99Q347 99 365 94Q401 84 434 84Q481 84 505 111Q529 138 529 190L529 700L656 700L656 190Q656 131 629.50 85.50Q603 40 555 15Q507-10 445-10Z"  horiz-adv-x="726" vert-adv-y="1000"  />

      
      <glyph glyph-name="unicd" unicode="&#xcd;" d="M112 700L238 700L238 0L112 0L112 700Z"  horiz-adv-x="350" vert-adv-y="1000"  />

      
      <glyph glyph-name="uni012C" unicode="&#x012C;" d="M112 700L238 700L238 0L112 0L112 700Z"  horiz-adv-x="350" vert-adv-y="1000"  />

      
      <glyph glyph-name="uni01CF" unicode="&#x01CF;" d="M112 700L238 700L238 0L112 0L112 700Z"  horiz-adv-x="350" vert-adv-y="1000"  />

      
      <glyph glyph-name="unice" unicode="&#xce;" d="M112 700L238 700L238 0L112 0L112 700Z"  horiz-adv-x="350" vert-adv-y="1000"  />

      
      <glyph glyph-name="unicf" unicode="&#xcf;" d="M112 700L238 700L238 0L112 0L112 700Z"  horiz-adv-x="350" vert-adv-y="1000"  />

      
      <glyph glyph-name="uni0130" unicode="&#x0130;" d="M112 700L238 700L238 0L112 0L112 700Z"  horiz-adv-x="350" vert-adv-y="1000"  />

      
      <glyph glyph-name="uni1ECA" unicode="&#x1ECA;" d="M112 700L238 700L238 0L112 0L112 700M169-213Q102-213 102-146L102-133Q102-66 169-66L181-66Q248-66 248-133L248-146Q248-213 181-213L169-213Z"  horiz-adv-x="350" vert-adv-y="1000"  />

      
      <glyph glyph-name="unicc" unicode="&#xcc;" d="M112 700L238 700L238 0L112 0L112 700Z"  horiz-adv-x="350" vert-adv-y="1000"  />

      
      <glyph glyph-name="uni1EC8" unicode="&#x1EC8;" d="M112 700L238 700L238 0L112 0L112 700M190 732Q173 733 160.50 743.50Q148 754 148 766Q203 795 203 847Q203 884 171 884Q153 884 144 873Q135 862 131 838Q73 838 73 882Q73 913 100.50 934.50Q128 956 174 956Q225 956 254.50 932Q284 908 284 865Q284 816 258 782Q232 748 190 732Z"  horiz-adv-x="350" vert-adv-y="1000"  />

      
      <glyph glyph-name="uni012A" unicode="&#x012A;" d="M112 700L238 700L238 0L112 0L112 700Z"  horiz-adv-x="350" vert-adv-y="1000"  />

      
      <glyph glyph-name="uni012E" unicode="&#x012E;" d="M112 700L238 700L238 0L112 0L112 700Z"  horiz-adv-x="350" vert-adv-y="1000"  />

      
      <glyph glyph-name="uni0128" unicode="&#x0128;" d="M112 700L238 700L238 0L112 0L112 700Z"  horiz-adv-x="350" vert-adv-y="1000"  />

      
      <glyph glyph-name="uni4a" unicode="&#x4a;" d="M160-10Q122-10 78.50-1.50Q35 7 17 17Q17 99 51 99Q62 99 80 94Q116 84 149 84Q196 84 220 111Q244 138 244 190L244 700L371 700L371 190Q371 131 344.50 85.50Q318 40 270 15Q222-10 160-10Z"  horiz-adv-x="440" vert-adv-y="1000"  />

      
      <glyph glyph-name="uni0134" unicode="&#x0134;" d="M160-10Q122-10 78.50-1.50Q35 7 17 17Q17 99 51 99Q62 99 80 94Q116 84 149 84Q196 84 220 111Q244 138 244 190L244 700L371 700L371 190Q371 131 344.50 85.50Q318 40 270 15Q222-10 160-10Z"  horiz-adv-x="440" vert-adv-y="1000"  />

      
      <glyph glyph-name="uni4b" unicode="&#x4b;" d="M632 4Q607-9 551-9Q525-9 509.50-1.50Q494 6 484 22L345 248Q328 276 315.50 288.50Q303 301 286 305.50Q269 310 238 310L220 310L220 0L93 0L93 700L220 700L220 399L271 399L279 399L487 700L624 700L387 367Q427 340 462 282L632 4Z"  horiz-adv-x="650" vert-adv-y="1000"  />

      
      <glyph glyph-name="uni0136" unicode="&#x0136;" d="M632 4Q607-9 551-9Q525-9 509.50-1.50Q494 6 484 22L345 248Q328 276 315.50 288.50Q303 301 286 305.50Q269 310 238 310L220 310L220 0L93 0L93 700L220 700L220 399L271 399L279 399L487 700L624 700L387 367Q427 340 462 282L632 4Z"  horiz-adv-x="650" vert-adv-y="1000"  />

      
      <glyph glyph-name="uni4c" unicode="&#x4c;" d="M498 91L498 0L86 0L86 700L213 700L213 91L498 91Z"  horiz-adv-x="513" vert-adv-y="1000"  />

      
      <glyph glyph-name="uni0139" unicode="&#x0139;" d="M498 91L498 0L86 0L86 700L213 700L213 91L498 91Z"  horiz-adv-x="513" vert-adv-y="1000"  />

      
      <glyph glyph-name="uni013D" unicode="&#x013D;" d="M498 91L498 0L86 0L86 700L213 700L213 91L498 91M418 476Q408 476 398 480Q388 484 381 489Q395 507 404.50 534Q414 561 414 587Q414 612 407 628Q400 644 386 655Q386 677 403 693.50Q420 710 448 710Q482 710 500.50 689Q519 668 519 629Q519 596 506.50 562Q494 528 475 506Q450 476 418 476Z"  horiz-adv-x="597" vert-adv-y="1000"  />

      
      <glyph glyph-name="uni013B" unicode="&#x013B;" d="M498 91L498 0L86 0L86 700L213 700L213 91L498 91Z"  horiz-adv-x="513" vert-adv-y="1000"  />

      
      <glyph glyph-name="uni013F" unicode="&#x013F;" d="M498 91L498 0L86 0L86 700L213 700L213 91L498 91Z"  horiz-adv-x="513" vert-adv-y="1000"  />

      
      <glyph glyph-name="uni1E36" unicode="&#x1E36;" d="M498 91L498 0L86 0L86 700L213 700L213 91L498 91M286-213Q219-213 219-146L219-133Q219-66 286-66L298-66Q365-66 365-133L365-146Q365-213 298-213L286-213Z"  horiz-adv-x="513" vert-adv-y="1000"  />

      
      <glyph glyph-name="uni1E38" unicode="&#x1E38;" d="M498 91L498 0L86 0L86 700L213 700L213 91L498 91M286-213Q219-213 219-146L219-133Q219-66 286-66L298-66Q365-66 365-133L365-146Q365-213 298-213L286-213Z"  horiz-adv-x="513" vert-adv-y="1000"  />

      
      <glyph glyph-name="uni1E3A" unicode="&#x1E3A;" d="M498 91L498 0L86 0L86 700L213 700L213 91L498 91Z"  horiz-adv-x="513" vert-adv-y="1000"  />

      
      <glyph glyph-name="uni0141" unicode="&#x0141;" d="M518 91L518 0L106 0L106 326L17 290L17 386L106 422L106 700L233 700L233 473L369 527L369 431L233 377L233 91L518 91Z"  horiz-adv-x="547" vert-adv-y="1000"  />

      
      <glyph glyph-name="uni4d" unicode="&#x4d;" d="M654 0Q652 181 642 308.50Q632 436 610 559Q571 456 543 365Q515 274 468 97L369 97Q328 259 299.50 354.50Q271 450 230 559Q209 436 198.50 308Q188 180 184 0L59 0Q63 212 83.50 378.50Q104 545 147 700L288 700Q341 571 367.50 491.50Q394 412 418 313Q443 410 470.50 488.50Q498 567 552 700L693 700Q738 544 759 377Q780 210 782 0L654 0Z"  horiz-adv-x="840" vert-adv-y="1000"  />

      
      <glyph glyph-name="uni1E42" unicode="&#x1E42;" d="M654 0Q652 181 642 308.50Q632 436 610 559Q571 456 543 365Q515 274 468 97L369 97Q328 259 299.50 354.50Q271 450 230 559Q209 436 198.50 308Q188 180 184 0L59 0Q63 212 83.50 378.50Q104 545 147 700L288 700Q341 571 367.50 491.50Q394 412 418 313Q443 410 470.50 488.50Q498 567 552 700L693 700Q738 544 759 377Q780 210 782 0L654 0M416-213Q349-213 349-146L349-133Q349-66 416-66L428-66Q495-66 495-133L495-146Q495-213 428-213L416-213Z"  horiz-adv-x="840" vert-adv-y="1000"  />

      
      <glyph glyph-name="uni4e" unicode="&#x4e;" d="M620 137Q620 106 622 64Q624 36 624 27Q624 0 598 0L495 0L495 41Q495 91 456 152L198 525L198 0L73 0L73 700L184 700Q197 700 205 696.50Q213 693 222 680L495 288L495 700L620 700L620 137Z"  horiz-adv-x="697" vert-adv-y="1000"  />

      
      <glyph glyph-name="uni0143" unicode="&#x0143;" d="M620 137Q620 106 622 64Q624 36 624 27Q624 0 598 0L495 0L495 41Q495 91 456 152L198 525L198 0L73 0L73 700L184 700Q197 700 205 696.50Q213 693 222 680L495 288L495 700L620 700L620 137Z"  horiz-adv-x="697" vert-adv-y="1000"  />

      
      <glyph glyph-name="uni0147" unicode="&#x0147;" d="M620 137Q620 106 622 64Q624 36 624 27Q624 0 598 0L495 0L495 41Q495 91 456 152L198 525L198 0L73 0L73 700L184 700Q197 700 205 696.50Q213 693 222 680L495 288L495 700L620 700L620 137Z"  horiz-adv-x="697" vert-adv-y="1000"  />

      
      <glyph glyph-name="uni0145" unicode="&#x0145;" d="M620 137Q620 106 622 64Q624 36 624 27Q624 0 598 0L495 0L495 41Q495 91 456 152L198 525L198 0L73 0L73 700L184 700Q197 700 205 696.50Q213 693 222 680L495 288L495 700L620 700L620 137Z"  horiz-adv-x="697" vert-adv-y="1000"  />

      
      <glyph glyph-name="uni1E44" unicode="&#x1E44;" d="M620 137Q620 106 622 64Q624 36 624 27Q624 0 598 0L495 0L495 41Q495 91 456 152L198 525L198 0L73 0L73 700L184 700Q197 700 205 696.50Q213 693 222 680L495 288L495 700L620 700L620 137Z"  horiz-adv-x="697" vert-adv-y="1000"  />

      
      <glyph glyph-name="uni1E46" unicode="&#x1E46;" d="M620 137Q620 106 622 64Q624 36 624 27Q624 0 598 0L495 0L495 41Q495 91 456 152L198 525L198 0L73 0L73 700L184 700Q197 700 205 696.50Q213 693 222 680L495 288L495 700L620 700L620 137M342-213Q275-213 275-146L275-133Q275-66 342-66L354-66Q421-66 421-133L421-146Q421-213 354-213L342-213Z"  horiz-adv-x="697" vert-adv-y="1000"  />

      
      <glyph glyph-name="uni014A" unicode="&#x014A;" d="M612 700L612-46Q612-119 568-162Q524-205 444-205Q402-205 369-194Q336-183 336-158Q336-146 342-134.50Q348-123 354-121Q384-134 422-134Q487-134 487-55L487 34Q487 87 448 145L198 516L198 0L73 0L73 700L184 700Q198 700 205.50 696.50Q213 693 222 680L487 289L487 700L612 700Z"  horiz-adv-x="685" vert-adv-y="1000"  />

      
      <glyph glyph-name="uni1E48" unicode="&#x1E48;" d="M620 137Q620 106 622 64Q624 36 624 27Q624 0 598 0L495 0L495 41Q495 91 456 152L198 525L198 0L73 0L73 700L184 700Q197 700 205 696.50Q213 693 222 680L495 288L495 700L620 700L620 137Z"  horiz-adv-x="697" vert-adv-y="1000"  />

      
      <glyph glyph-name="unid1" unicode="&#xd1;" d="M620 137Q620 106 622 64Q624 36 624 27Q624 0 598 0L495 0L495 41Q495 91 456 152L198 525L198 0L73 0L73 700L184 700Q197 700 205 696.50Q213 693 222 680L495 288L495 700L620 700L620 137Z"  horiz-adv-x="697" vert-adv-y="1000"  />

      
      <glyph glyph-name="uni4f" unicode="&#x4f;" d="M340-10Q198-10 119.50 85.50Q41 181 41 354Q41 524 119.50 617Q198 710 340 710Q482 710 560.50 617Q639 524 639 354Q639 181 560.50 85.50Q482-10 340-10M340 85Q426 85 467.50 150.50Q509 216 509 354Q509 489 468 552Q427 615 340 615Q253 615 212 552Q171 489 171 354Q171 216 212.50 150.50Q254 85 340 85Z"  horiz-adv-x="680" vert-adv-y="1000"  />

      
      <glyph glyph-name="unid3" unicode="&#xd3;" d="M340-10Q198-10 119.50 85.50Q41 181 41 354Q41 524 119.50 617Q198 710 340 710Q482 710 560.50 617Q639 524 639 354Q639 181 560.50 85.50Q482-10 340-10M340 85Q426 85 467.50 150.50Q509 216 509 354Q509 489 468 552Q427 615 340 615Q253 615 212 552Q171 489 171 354Q171 216 212.50 150.50Q254 85 340 85Z"  horiz-adv-x="680" vert-adv-y="1000"  />

      
      <glyph glyph-name="uni014E" unicode="&#x014E;" d="M340-10Q198-10 119.50 85.50Q41 181 41 354Q41 524 119.50 617Q198 710 340 710Q482 710 560.50 617Q639 524 639 354Q639 181 560.50 85.50Q482-10 340-10M340 85Q426 85 467.50 150.50Q509 216 509 354Q509 489 468 552Q427 615 340 615Q253 615 212 552Q171 489 171 354Q171 216 212.50 150.50Q254 85 340 85Z"  horiz-adv-x="680" vert-adv-y="1000"  />

      
      <glyph glyph-name="uni01D1" unicode="&#x01D1;" d="M340-10Q198-10 119.50 85.50Q41 181 41 354Q41 524 119.50 617Q198 710 340 710Q482 710 560.50 617Q639 524 639 354Q639 181 560.50 85.50Q482-10 340-10M340 85Q426 85 467.50 150.50Q509 216 509 354Q509 489 468 552Q427 615 340 615Q253 615 212 552Q171 489 171 354Q171 216 212.50 150.50Q254 85 340 85Z"  horiz-adv-x="680" vert-adv-y="1000"  />

      
      <glyph glyph-name="unid4" unicode="&#xd4;" d="M340-10Q198-10 119.50 85.50Q41 181 41 354Q41 524 119.50 617Q198 710 340 710Q482 710 560.50 617Q639 524 639 354Q639 181 560.50 85.50Q482-10 340-10M340 85Q426 85 467.50 150.50Q509 216 509 354Q509 489 468 552Q427 615 340 615Q253 615 212 552Q171 489 171 354Q171 216 212.50 150.50Q254 85 340 85Z"  horiz-adv-x="680" vert-adv-y="1000"  />

      
      <glyph glyph-name="uni1ED0" unicode="&#x1ED0;" d="M340-10Q198-10 119.50 85.50Q41 181 41 354Q41 524 119.50 617Q198 710 340 710Q482 710 560.50 617Q639 524 639 354Q639 181 560.50 85.50Q482-10 340-10M340 85Q426 85 467.50 150.50Q509 216 509 354Q509 489 468 552Q427 615 340 615Q253 615 212 552Q171 489 171 354Q171 216 212.50 150.50Q254 85 340 85Z"  horiz-adv-x="680" vert-adv-y="1000"  />

      
      <glyph glyph-name="uni1ED8" unicode="&#x1ED8;" d="M340-10Q198-10 119.50 85.50Q41 181 41 354Q41 524 119.50 617Q198 710 340 710Q482 710 560.50 617Q639 524 639 354Q639 181 560.50 85.50Q482-10 340-10M340 85Q426 85 467.50 150.50Q509 216 509 354Q509 489 468 552Q427 615 340 615Q253 615 212 552Q171 489 171 354Q171 216 212.50 150.50Q254 85 340 85M334-213Q267-213 267-146L267-133Q267-66 334-66L346-66Q413-66 413-133L413-146Q413-213 346-213L334-213Z"  horiz-adv-x="680" vert-adv-y="1000"  />

      
      <glyph glyph-name="uni1ED2" unicode="&#x1ED2;" d="M340-10Q198-10 119.50 85.50Q41 181 41 354Q41 524 119.50 617Q198 710 340 710Q482 710 560.50 617Q639 524 639 354Q639 181 560.50 85.50Q482-10 340-10M340 85Q426 85 467.50 150.50Q509 216 509 354Q509 489 468 552Q427 615 340 615Q253 615 212 552Q171 489 171 354Q171 216 212.50 150.50Q254 85 340 85Z"  horiz-adv-x="680" vert-adv-y="1000"  />

      
      <glyph glyph-name="uni1ED4" unicode="&#x1ED4;" d="M340-10Q198-10 119.50 85.50Q41 181 41 354Q41 524 119.50 617Q198 710 340 710Q482 710 560.50 617Q639 524 639 354Q639 181 560.50 85.50Q482-10 340-10M340 85Q426 85 467.50 150.50Q509 216 509 354Q509 489 468 552Q427 615 340 615Q253 615 212 552Q171 489 171 354Q171 216 212.50 150.50Q254 85 340 85Z"  horiz-adv-x="680" vert-adv-y="1000"  />

      
      <glyph glyph-name="uni1ED6" unicode="&#x1ED6;" d="M340-10Q198-10 119.50 85.50Q41 181 41 354Q41 524 119.50 617Q198 710 340 710Q482 710 560.50 617Q639 524 639 354Q639 181 560.50 85.50Q482-10 340-10M340 85Q426 85 467.50 150.50Q509 216 509 354Q509 489 468 552Q427 615 340 615Q253 615 212 552Q171 489 171 354Q171 216 212.50 150.50Q254 85 340 85Z"  horiz-adv-x="680" vert-adv-y="1000"  />

      
      <glyph glyph-name="unid6" unicode="&#xd6;" d="M340-10Q198-10 119.50 85.50Q41 181 41 354Q41 524 119.50 617Q198 710 340 710Q482 710 560.50 617Q639 524 639 354Q639 181 560.50 85.50Q482-10 340-10M340 85Q426 85 467.50 150.50Q509 216 509 354Q509 489 468 552Q427 615 340 615Q253 615 212 552Q171 489 171 354Q171 216 212.50 150.50Q254 85 340 85Z"  horiz-adv-x="680" vert-adv-y="1000"  />

      
      <glyph glyph-name="uni1ECC" unicode="&#x1ECC;" d="M340-10Q198-10 119.50 85.50Q41 181 41 354Q41 524 119.50 617Q198 710 340 710Q482 710 560.50 617Q639 524 639 354Q639 181 560.50 85.50Q482-10 340-10M340 85Q426 85 467.50 150.50Q509 216 509 354Q509 489 468 552Q427 615 340 615Q253 615 212 552Q171 489 171 354Q171 216 212.50 150.50Q254 85 340 85M334-213Q267-213 267-146L267-133Q267-66 334-66L346-66Q413-66 413-133L413-146Q413-213 346-213L334-213Z"  horiz-adv-x="680" vert-adv-y="1000"  />

      
      <glyph glyph-name="unid2" unicode="&#xd2;" d="M340-10Q198-10 119.50 85.50Q41 181 41 354Q41 524 119.50 617Q198 710 340 710Q482 710 560.50 617Q639 524 639 354Q639 181 560.50 85.50Q482-10 340-10M340 85Q426 85 467.50 150.50Q509 216 509 354Q509 489 468 552Q427 615 340 615Q253 615 212 552Q171 489 171 354Q171 216 212.50 150.50Q254 85 340 85Z"  horiz-adv-x="680" vert-adv-y="1000"  />

      
      <glyph glyph-name="uni1ECE" unicode="&#x1ECE;" d="M340-10Q198-10 119.50 85.50Q41 181 41 354Q41 524 119.50 617Q198 710 340 710Q482 710 560.50 617Q639 524 639 354Q639 181 560.50 85.50Q482-10 340-10M340 85Q426 85 467.50 150.50Q509 216 509 354Q509 489 468 552Q427 615 340 615Q253 615 212 552Q171 489 171 354Q171 216 212.50 150.50Q254 85 340 85M355 732Q338 733 325.50 743.50Q313 754 313 766Q368 795 368 847Q368 884 336 884Q318 884 309 873Q300 862 296 838Q238 838 238 882Q238 913 265.50 934.50Q293 956 339 956Q390 956 419.50 932Q449 908 449 865Q449 816 423 782Q397 748 355 732Z"  horiz-adv-x="680" vert-adv-y="1000"  />

      
      <glyph glyph-name="uni01A0" unicode="&#x01A0;" d="M652 743Q652 646 561 616Q639 523 639 354Q639 181 560.50 85.50Q482-10 340-10Q198-10 119.50 85.50Q41 181 41 354Q41 524 119.50 617Q198 710 340 710Q436 710 502 668Q545 678 545 733Q545 763 516 785Q518 801 534 813Q550 825 574 825Q609 825 630.50 802.50Q652 780 652 743M340 85Q426 85 467.50 150.50Q509 216 509 354Q509 489 468 552Q427 615 340 615Q253 615 212 552Q171 489 171 354Q171 216 212.50 150.50Q254 85 340 85Z"  horiz-adv-x="680" vert-adv-y="1000"  />

      
      <glyph glyph-name="uni1EDA" unicode="&#x1EDA;" d="M652 743Q652 646 561 616Q639 523 639 354Q639 181 560.50 85.50Q482-10 340-10Q198-10 119.50 85.50Q41 181 41 354Q41 524 119.50 617Q198 710 340 710Q436 710 502 668Q545 678 545 733Q545 763 516 785Q518 801 534 813Q550 825 574 825Q609 825 630.50 802.50Q652 780 652 743M340 85Q426 85 467.50 150.50Q509 216 509 354Q509 489 468 552Q427 615 340 615Q253 615 212 552Q171 489 171 354Q171 216 212.50 150.50Q254 85 340 85Z"  horiz-adv-x="680" vert-adv-y="1000"  />

      
      <glyph glyph-name="uni1EE2" unicode="&#x1EE2;" d="M652 743Q652 646 561 616Q639 523 639 354Q639 181 560.50 85.50Q482-10 340-10Q198-10 119.50 85.50Q41 181 41 354Q41 524 119.50 617Q198 710 340 710Q436 710 502 668Q545 678 545 733Q545 763 516 785Q518 801 534 813Q550 825 574 825Q609 825 630.50 802.50Q652 780 652 743M340 85Q426 85 467.50 150.50Q509 216 509 354Q509 489 468 552Q427 615 340 615Q253 615 212 552Q171 489 171 354Q171 216 212.50 150.50Q254 85 340 85M334-213Q267-213 267-146L267-133Q267-66 334-66L346-66Q413-66 413-133L413-146Q413-213 346-213L334-213Z"  horiz-adv-x="680" vert-adv-y="1000"  />

      
      <glyph glyph-name="uni1EDC" unicode="&#x1EDC;" d="M652 743Q652 646 561 616Q639 523 639 354Q639 181 560.50 85.50Q482-10 340-10Q198-10 119.50 85.50Q41 181 41 354Q41 524 119.50 617Q198 710 340 710Q436 710 502 668Q545 678 545 733Q545 763 516 785Q518 801 534 813Q550 825 574 825Q609 825 630.50 802.50Q652 780 652 743M340 85Q426 85 467.50 150.50Q509 216 509 354Q509 489 468 552Q427 615 340 615Q253 615 212 552Q171 489 171 354Q171 216 212.50 150.50Q254 85 340 85Z"  horiz-adv-x="680" vert-adv-y="1000"  />

      
      <glyph glyph-name="uni1EDE" unicode="&#x1EDE;" d="M652 743Q652 646 561 616Q639 523 639 354Q639 181 560.50 85.50Q482-10 340-10Q198-10 119.50 85.50Q41 181 41 354Q41 524 119.50 617Q198 710 340 710Q436 710 502 668Q545 678 545 733Q545 763 516 785Q518 801 534 813Q550 825 574 825Q609 825 630.50 802.50Q652 780 652 743M340 85Q426 85 467.50 150.50Q509 216 509 354Q509 489 468 552Q427 615 340 615Q253 615 212 552Q171 489 171 354Q171 216 212.50 150.50Q254 85 340 85M355 732Q338 733 325.50 743.50Q313 754 313 766Q368 795 368 847Q368 884 336 884Q318 884 309 873Q300 862 296 838Q238 838 238 882Q238 913 265.50 934.50Q293 956 339 956Q390 956 419.50 932Q449 908 449 865Q449 816 423 782Q397 748 355 732Z"  horiz-adv-x="680" vert-adv-y="1000"  />

      
      <glyph glyph-name="uni1EE0" unicode="&#x1EE0;" d="M652 743Q652 646 561 616Q639 523 639 354Q639 181 560.50 85.50Q482-10 340-10Q198-10 119.50 85.50Q41 181 41 354Q41 524 119.50 617Q198 710 340 710Q436 710 502 668Q545 678 545 733Q545 763 516 785Q518 801 534 813Q550 825 574 825Q609 825 630.50 802.50Q652 780 652 743M340 85Q426 85 467.50 150.50Q509 216 509 354Q509 489 468 552Q427 615 340 615Q253 615 212 552Q171 489 171 354Q171 216 212.50 150.50Q254 85 340 85Z"  horiz-adv-x="680" vert-adv-y="1000"  />

      
      <glyph glyph-name="uni0150" unicode="&#x0150;" d="M340-10Q198-10 119.50 85.50Q41 181 41 354Q41 524 119.50 617Q198 710 340 710Q482 710 560.50 617Q639 524 639 354Q639 181 560.50 85.50Q482-10 340-10M340 85Q426 85 467.50 150.50Q509 216 509 354Q509 489 468 552Q427 615 340 615Q253 615 212 552Q171 489 171 354Q171 216 212.50 150.50Q254 85 340 85Z"  horiz-adv-x="680" vert-adv-y="1000"  />

      
      <glyph glyph-name="uni014C" unicode="&#x014C;" d="M340-10Q198-10 119.50 85.50Q41 181 41 354Q41 524 119.50 617Q198 710 340 710Q482 710 560.50 617Q639 524 639 354Q639 181 560.50 85.50Q482-10 340-10M340 85Q426 85 467.50 150.50Q509 216 509 354Q509 489 468 552Q427 615 340 615Q253 615 212 552Q171 489 171 354Q171 216 212.50 150.50Q254 85 340 85Z"  horiz-adv-x="680" vert-adv-y="1000"  />

      
      <glyph glyph-name="unid8" unicode="&#xd8;" d="M561 616Q639 524 639 354Q639 181 560.50 85.50Q482-10 340-10Q232-10 158 47L125 0L53 0L116 89Q41 184 41 354Q41 524 119.50 617Q198 710 340 710Q447 710 518 657L549 701L621 701L561 616M171 354Q171 259 191 196L455 569Q415 615 340 615Q253 615 212 552Q171 489 171 354M340 85Q426 85 467.50 150.50Q509 216 509 354Q509 453 487 512L222 137Q264 85 340 85Z"  horiz-adv-x="680" vert-adv-y="1000"  />

      
      <glyph glyph-name="uni01FE" unicode="&#x01FE;" d="M561 616Q639 524 639 354Q639 181 560.50 85.50Q482-10 340-10Q232-10 158 47L125 0L53 0L116 89Q41 184 41 354Q41 524 119.50 617Q198 710 340 710Q447 710 518 657L549 701L621 701L561 616M171 354Q171 259 191 196L455 569Q415 615 340 615Q253 615 212 552Q171 489 171 354M340 85Q426 85 467.50 150.50Q509 216 509 354Q509 453 487 512L222 137Q264 85 340 85Z"  horiz-adv-x="680" vert-adv-y="1000"  />

      
      <glyph glyph-name="unid5" unicode="&#xd5;" d="M340-10Q198-10 119.50 85.50Q41 181 41 354Q41 524 119.50 617Q198 710 340 710Q482 710 560.50 617Q639 524 639 354Q639 181 560.50 85.50Q482-10 340-10M340 85Q426 85 467.50 150.50Q509 216 509 354Q509 489 468 552Q427 615 340 615Q253 615 212 552Q171 489 171 354Q171 216 212.50 150.50Q254 85 340 85Z"  horiz-adv-x="680" vert-adv-y="1000"  />

      
      <glyph glyph-name="uni0152" unicode="&#x0152;" d="M987 91Q987 38 976 19Q965 0 935 0L548 0L548 71Q472-10 340-10Q198-10 119.50 85.50Q41 181 41 354Q41 524 119.50 617Q198 710 340 710Q472 710 548 631L548 700L979 700L979 609L674 609L674 405L931 405L931 315L674 315L674 91L987 91M340 85Q426 85 467.50 150.50Q509 216 509 354Q509 489 468 552Q427 615 340 615Q253 615 212 552Q171 489 171 354Q171 216 212.50 150.50Q254 85 340 85Z"  horiz-adv-x="1035" vert-adv-y="1000"  />

      
      <glyph glyph-name="uni50" unicode="&#x50;" d="M294 700Q431 700 501.50 642.50Q572 585 572 474Q572 359 500 298.50Q428 238 294 238L206 238L206 0L79 0L79 700L294 700M287 334Q369 334 406.50 367Q444 400 444 474Q444 546 407 578Q370 610 287 610L206 610L206 334L287 334Z"  horiz-adv-x="615" vert-adv-y="1000"  />

      
      <glyph glyph-name="unide" unicode="&#xde;" d="M305 599Q441 599 509 538.50Q577 478 577 369Q577 257 508.50 193.50Q440 130 305 130L211 130L211 0L87 0L87 700L211 700L211 599L305 599M298 225Q378 225 414.50 260Q451 295 451 369Q451 441 415 473Q379 505 298 505L211 505L211 225L298 225Z"  horiz-adv-x="641" vert-adv-y="1000"  />

      
      <glyph glyph-name="uni51" unicode="&#x51;" d="M639 354Q639 236 602 153Q565 70 495 29Q519 0 569-53Q546-89 495-89Q470-89 452-80Q434-71 420-53Q413-45 388-7Q366-10 340-10Q198-10 119.50 85.50Q41 181 41 354Q41 524 119.50 617Q198 710 340 710Q482 710 560.50 617Q639 524 639 354M171 354Q171 218 211 152.50Q251 87 334 85L287 169L393 169Q406 144 430 110Q509 167 509 354Q509 489 468 552Q427 615 340 615Q253 615 212 552Q171 489 171 354Z"  horiz-adv-x="680" vert-adv-y="1000"  />

      
      <glyph glyph-name="uni52" unicode="&#x52;" d="M605 10Q595 2 575-3Q555-8 533-8Q504-8 488 0.50Q472 9 463 29L375 205Q356 243 332 257.50Q308 272 263 272L206 272L206 0L79 0L79 700L314 700Q443 700 514 644Q585 588 585 486Q585 418 548.50 369.50Q512 321 445 298Q470 273 491 233L605 10M305 365Q382 365 419 394.50Q456 424 456 486Q456 548 420 577.50Q384 607 307 607L206 607L206 365L305 365Z"  horiz-adv-x="636" vert-adv-y="1000"  />

      
      <glyph glyph-name="uni0154" unicode="&#x0154;" d="M605 10Q595 2 575-3Q555-8 533-8Q504-8 488 0.50Q472 9 463 29L375 205Q356 243 332 257.50Q308 272 263 272L206 272L206 0L79 0L79 700L314 700Q443 700 514 644Q585 588 585 486Q585 418 548.50 369.50Q512 321 445 298Q470 273 491 233L605 10M305 365Q382 365 419 394.50Q456 424 456 486Q456 548 420 577.50Q384 607 307 607L206 607L206 365L305 365Z"  horiz-adv-x="636" vert-adv-y="1000"  />

      
      <glyph glyph-name="uni0158" unicode="&#x0158;" d="M605 10Q595 2 575-3Q555-8 533-8Q504-8 488 0.50Q472 9 463 29L375 205Q356 243 332 257.50Q308 272 263 272L206 272L206 0L79 0L79 700L314 700Q443 700 514 644Q585 588 585 486Q585 418 548.50 369.50Q512 321 445 298Q470 273 491 233L605 10M305 365Q382 365 419 394.50Q456 424 456 486Q456 548 420 577.50Q384 607 307 607L206 607L206 365L305 365Z"  horiz-adv-x="636" vert-adv-y="1000"  />

      
      <glyph glyph-name="uni0156" unicode="&#x0156;" d="M605 10Q595 2 575-3Q555-8 533-8Q504-8 488 0.50Q472 9 463 29L375 205Q356 243 332 257.50Q308 272 263 272L206 272L206 0L79 0L79 700L314 700Q443 700 514 644Q585 588 585 486Q585 418 548.50 369.50Q512 321 445 298Q470 273 491 233L605 10M305 365Q382 365 419 394.50Q456 424 456 486Q456 548 420 577.50Q384 607 307 607L206 607L206 365L305 365Z"  horiz-adv-x="636" vert-adv-y="1000"  />

      
      <glyph glyph-name="uni1E5A" unicode="&#x1E5A;" d="M605 10Q595 2 575-3Q555-8 533-8Q504-8 488 0.50Q472 9 463 29L375 205Q356 243 332 257.50Q308 272 263 272L206 272L206 0L79 0L79 700L314 700Q443 700 514 644Q585 588 585 486Q585 418 548.50 369.50Q512 321 445 298Q470 273 491 233L605 10M305 365Q382 365 419 394.50Q456 424 456 486Q456 548 420 577.50Q384 607 307 607L206 607L206 365L305 365M309-213Q242-213 242-146L242-133Q242-66 309-66L321-66Q388-66 388-133L388-146Q388-213 321-213L309-213Z"  horiz-adv-x="636" vert-adv-y="1000"  />

      
      <glyph glyph-name="uni1E5C" unicode="&#x1E5C;" d="M605 10Q595 2 575-3Q555-8 533-8Q504-8 488 0.50Q472 9 463 29L375 205Q356 243 332 257.50Q308 272 263 272L206 272L206 0L79 0L79 700L314 700Q443 700 514 644Q585 588 585 486Q585 418 548.50 369.50Q512 321 445 298Q470 273 491 233L605 10M305 365Q382 365 419 394.50Q456 424 456 486Q456 548 420 577.50Q384 607 307 607L206 607L206 365L305 365M309-213Q242-213 242-146L242-133Q242-66 309-66L321-66Q388-66 388-133L388-146Q388-213 321-213L309-213Z"  horiz-adv-x="636" vert-adv-y="1000"  />

      
      <glyph glyph-name="uni1E5E" unicode="&#x1E5E;" d="M605 10Q595 2 575-3Q555-8 533-8Q504-8 488 0.50Q472 9 463 29L375 205Q356 243 332 257.50Q308 272 263 272L206 272L206 0L79 0L79 700L314 700Q443 700 514 644Q585 588 585 486Q585 418 548.50 369.50Q512 321 445 298Q470 273 491 233L605 10M305 365Q382 365 419 394.50Q456 424 456 486Q456 548 420 577.50Q384 607 307 607L206 607L206 365L305 365Z"  horiz-adv-x="636" vert-adv-y="1000"  />

      
      <glyph glyph-name="uni53" unicode="&#x53;" d="M329-10Q251-10 192 9.50Q133 29 101 65Q69 101 69 148Q69 179 93.50 196Q118 213 162 214Q171 152 215 118Q259 84 331 84Q400 84 437.50 112Q475 140 475 192Q475 234 438.50 260.50Q402 287 310 312Q188 346 135 394Q82 442 82 519Q82 608 149.50 659Q217 710 335 710Q433 710 500.50 664Q568 618 593 536Q580 523 556 513Q532 503 513 503Q496 503 486 510.50Q476 518 466 536Q426 617 335 617Q210 617 210 529Q210 500 222 481.50Q234 463 264 448Q294 433 352 415Q455 383 508 355.50Q561 328 583 295.50Q605 263 605 213Q605 147 571 96.50Q537 46 474.50 18Q412-10 329-10Z"  horiz-adv-x="642" vert-adv-y="1000"  />

      
      <glyph glyph-name="uni015A" unicode="&#x015A;" d="M329-10Q251-10 192 9.50Q133 29 101 65Q69 101 69 148Q69 179 93.50 196Q118 213 162 214Q171 152 215 118Q259 84 331 84Q400 84 437.50 112Q475 140 475 192Q475 234 438.50 260.50Q402 287 310 312Q188 346 135 394Q82 442 82 519Q82 608 149.50 659Q217 710 335 710Q433 710 500.50 664Q568 618 593 536Q580 523 556 513Q532 503 513 503Q496 503 486 510.50Q476 518 466 536Q426 617 335 617Q210 617 210 529Q210 500 222 481.50Q234 463 264 448Q294 433 352 415Q455 383 508 355.50Q561 328 583 295.50Q605 263 605 213Q605 147 571 96.50Q537 46 474.50 18Q412-10 329-10Z"  horiz-adv-x="642" vert-adv-y="1000"  />

      
      <glyph glyph-name="uni0160" unicode="&#x0160;" d="M329-10Q251-10 192 9.50Q133 29 101 65Q69 101 69 148Q69 179 93.50 196Q118 213 162 214Q171 152 215 118Q259 84 331 84Q400 84 437.50 112Q475 140 475 192Q475 234 438.50 260.50Q402 287 310 312Q188 346 135 394Q82 442 82 519Q82 608 149.50 659Q217 710 335 710Q433 710 500.50 664Q568 618 593 536Q580 523 556 513Q532 503 513 503Q496 503 486 510.50Q476 518 466 536Q426 617 335 617Q210 617 210 529Q210 500 222 481.50Q234 463 264 448Q294 433 352 415Q455 383 508 355.50Q561 328 583 295.50Q605 263 605 213Q605 147 571 96.50Q537 46 474.50 18Q412-10 329-10Z"  horiz-adv-x="642" vert-adv-y="1000"  />

      
      <glyph glyph-name="uni015E" unicode="&#x015E;" d="M605 213Q605 121 541 61Q477 1 368-8L328-52L338-52Q382-52 410-75Q438-98 438-136Q438-183 404-209.50Q370-236 303-236Q251-236 227-222.50Q203-209 203-186Q203-175 207-166Q219-171 242-174Q265-177 291-177Q321-177 334.50-167.50Q348-158 348-138Q348-126 338-117Q328-108 309-108Q291-108 277-114L247-75L291-9Q189-1 129 41Q69 83 69 148Q69 179 93.50 196Q118 213 162 214Q171 152 215 118Q259 84 331 84Q400 84 437.50 112Q475 140 475 192Q475 234 438.50 260.50Q402 287 310 312Q188 346 135 394Q82 442 82 519Q82 608 149.50 659Q217 710 335 710Q433 710 500.50 664Q568 618 593 536Q580 523 556 513Q532 503 513 503Q496 503 486 510.50Q476 518 466 536Q426 617 335 617Q210 617 210 529Q210 500 222 481.50Q234 463 264 448Q294 433 352 415Q455 383 508 355.50Q561 328 583 295.50Q605 263 605 213Z"  horiz-adv-x="642" vert-adv-y="1000"  />

      
      <glyph glyph-name="uni015C" unicode="&#x015C;" d="M329-10Q251-10 192 9.50Q133 29 101 65Q69 101 69 148Q69 179 93.50 196Q118 213 162 214Q171 152 215 118Q259 84 331 84Q400 84 437.50 112Q475 140 475 192Q475 234 438.50 260.50Q402 287 310 312Q188 346 135 394Q82 442 82 519Q82 608 149.50 659Q217 710 335 710Q433 710 500.50 664Q568 618 593 536Q580 523 556 513Q532 503 513 503Q496 503 486 510.50Q476 518 466 536Q426 617 335 617Q210 617 210 529Q210 500 222 481.50Q234 463 264 448Q294 433 352 415Q455 383 508 355.50Q561 328 583 295.50Q605 263 605 213Q605 147 571 96.50Q537 46 474.50 18Q412-10 329-10Z"  horiz-adv-x="642" vert-adv-y="1000"  />

      
      <glyph glyph-name="uni0218" unicode="&#x0218;" d="M329-10Q251-10 192 9.50Q133 29 101 65Q69 101 69 148Q69 179 93.50 196Q118 213 162 214Q171 152 215 118Q259 84 331 84Q400 84 437.50 112Q475 140 475 192Q475 234 438.50 260.50Q402 287 310 312Q188 346 135 394Q82 442 82 519Q82 608 149.50 659Q217 710 335 710Q433 710 500.50 664Q568 618 593 536Q580 523 556 513Q532 503 513 503Q496 503 486 510.50Q476 518 466 536Q426 617 335 617Q210 617 210 529Q210 500 222 481.50Q234 463 264 448Q294 433 352 415Q455 383 508 355.50Q561 328 583 295.50Q605 263 605 213Q605 147 571 96.50Q537 46 474.50 18Q412-10 329-10Z"  horiz-adv-x="642" vert-adv-y="1000"  />

      
      <glyph glyph-name="uni1E60" unicode="&#x1E60;" d="M329-10Q251-10 192 9.50Q133 29 101 65Q69 101 69 148Q69 179 93.50 196Q118 213 162 214Q171 152 215 118Q259 84 331 84Q400 84 437.50 112Q475 140 475 192Q475 234 438.50 260.50Q402 287 310 312Q188 346 135 394Q82 442 82 519Q82 608 149.50 659Q217 710 335 710Q433 710 500.50 664Q568 618 593 536Q580 523 556 513Q532 503 513 503Q496 503 486 510.50Q476 518 466 536Q426 617 335 617Q210 617 210 529Q210 500 222 481.50Q234 463 264 448Q294 433 352 415Q455 383 508 355.50Q561 328 583 295.50Q605 263 605 213Q605 147 571 96.50Q537 46 474.50 18Q412-10 329-10Z"  horiz-adv-x="642" vert-adv-y="1000"  />

      
      <glyph glyph-name="uni1E62" unicode="&#x1E62;" d="M329-10Q251-10 192 9.50Q133 29 101 65Q69 101 69 148Q69 179 93.50 196Q118 213 162 214Q171 152 215 118Q259 84 331 84Q400 84 437.50 112Q475 140 475 192Q475 234 438.50 260.50Q402 287 310 312Q188 346 135 394Q82 442 82 519Q82 608 149.50 659Q217 710 335 710Q433 710 500.50 664Q568 618 593 536Q580 523 556 513Q532 503 513 503Q496 503 486 510.50Q476 518 466 536Q426 617 335 617Q210 617 210 529Q210 500 222 481.50Q234 463 264 448Q294 433 352 415Q455 383 508 355.50Q561 328 583 295.50Q605 263 605 213Q605 147 571 96.50Q537 46 474.50 18Q412-10 329-10M322-213Q255-213 255-146L255-133Q255-66 322-66L334-66Q401-66 401-133L401-146Q401-213 334-213L322-213Z"  horiz-adv-x="642" vert-adv-y="1000"  />

      
      <glyph glyph-name="uni1E9E" unicode="&#x1E9E;" d="M482 386Q561 372 612 325.50Q663 279 663 194Q663 97 597.50 43.50Q532-10 428-10Q382-10 338 2.50Q294 15 268 38Q250 54 250 81Q250 99 259.50 113Q269 127 287 129Q342 79 419 79Q473 79 504 108.50Q535 138 535 193Q535 257 501.50 285Q468 313 404 313Q371 313 352 330.50Q333 348 333 375L482 543Q442 619 342 619Q274 619 235 578.50Q196 538 196 462L196 0L71 0L71 462Q71 536 106.50 592Q142 648 204 678Q266 708 345 708Q421 708 479 684Q537 660 572 620Q607 580 618 532L482 386Z"  horiz-adv-x="720" vert-adv-y="1000"  />

      
      <glyph glyph-name="uni018F" unicode="&#x018F;" d="M342 710Q492 710 573 616Q654 522 654 348Q654 175 573 82.50Q492-10 341-10Q199-10 124 73.50Q49 157 49 315L49 376L527 376Q523 502 478 561Q433 620 343 620Q297 620 262.50 604.50Q228 589 169 542Q159 533 146 533Q127 533 105.50 553.50Q84 574 72 603Q110 650 185.50 680Q261 710 342 710M342 80Q425 80 470 131Q515 182 525 288L174 288Q174 185 216.50 132.50Q259 80 342 80Z"  horiz-adv-x="712" vert-adv-y="1000"  />

      
      <glyph glyph-name="uni54" unicode="&#x54;" d="M519 700Q523 678 523 663Q523 634 512.50 620.50Q502 607 480 607L330 607L330 0L204 0L204 607L15 607L15 700L519 700Z"  horiz-adv-x="534" vert-adv-y="1000"  />

      
      <glyph glyph-name="uni0166" unicode="&#x0166;" d="M519 700Q523 678 523 663Q523 634 512.50 620.50Q502 607 480 607L330 607L330 363L441 363L441 278L330 278L330 0L204 0L204 278L95 278L95 363L204 363L204 607L15 607L15 700L519 700Z"  horiz-adv-x="533" vert-adv-y="1000"  />

      
      <glyph glyph-name="uni0164" unicode="&#x0164;" d="M519 700Q523 678 523 663Q523 634 512.50 620.50Q502 607 480 607L330 607L330 0L204 0L204 607L15 607L15 700L519 700Z"  horiz-adv-x="534" vert-adv-y="1000"  />

      
      <glyph glyph-name="uni0162" unicode="&#x0162;" d="M519 700Q523 678 523 663Q523 634 512.50 620.50Q502 607 480 607L330 607L330 0L204 0L204 607L15 607L15 700L519 700Z"  horiz-adv-x="534" vert-adv-y="1000"  />

      
      <glyph glyph-name="uni021A" unicode="&#x021A;" d="M519 700Q523 678 523 663Q523 634 512.50 620.50Q502 607 480 607L330 607L330 0L204 0L204 607L15 607L15 700L519 700Z"  horiz-adv-x="534" vert-adv-y="1000"  />

      
      <glyph glyph-name="uni1E6C" unicode="&#x1E6C;" d="M519 700Q523 678 523 663Q523 634 512.50 620.50Q502 607 480 607L330 607L330 0L204 0L204 607L15 607L15 700L519 700M263-213Q196-213 196-146L196-133Q196-66 263-66L275-66Q342-66 342-133L342-146Q342-213 275-213L263-213Z"  horiz-adv-x="534" vert-adv-y="1000"  />

      
      <glyph glyph-name="uni1E6E" unicode="&#x1E6E;" d="M519 700Q523 678 523 663Q523 634 512.50 620.50Q502 607 480 607L330 607L330 0L204 0L204 607L15 607L15 700L519 700Z"  horiz-adv-x="534" vert-adv-y="1000"  />

      
      <glyph glyph-name="uni55" unicode="&#x55;" d="M356-10Q79-10 79 251L79 700L206 700L206 233Q206 159 244 121.50Q282 84 356 84Q432 84 468.50 121Q505 158 505 233L505 700L632 700L632 251Q632 118 564 54Q496-10 356-10Z"  horiz-adv-x="710" vert-adv-y="1000"  />

      
      <glyph glyph-name="unida" unicode="&#xda;" d="M356-10Q79-10 79 251L79 700L206 700L206 233Q206 159 244 121.50Q282 84 356 84Q432 84 468.50 121Q505 158 505 233L505 700L632 700L632 251Q632 118 564 54Q496-10 356-10Z"  horiz-adv-x="710" vert-adv-y="1000"  />

      
      <glyph glyph-name="uni016C" unicode="&#x016C;" d="M356-10Q79-10 79 251L79 700L206 700L206 233Q206 159 244 121.50Q282 84 356 84Q432 84 468.50 121Q505 158 505 233L505 700L632 700L632 251Q632 118 564 54Q496-10 356-10Z"  horiz-adv-x="710" vert-adv-y="1000"  />

      
      <glyph glyph-name="uni01D3" unicode="&#x01D3;" d="M356-10Q79-10 79 251L79 700L206 700L206 233Q206 159 244 121.50Q282 84 356 84Q432 84 468.50 121Q505 158 505 233L505 700L632 700L632 251Q632 118 564 54Q496-10 356-10Z"  horiz-adv-x="710" vert-adv-y="1000"  />

      
      <glyph glyph-name="unidb" unicode="&#xdb;" d="M356-10Q79-10 79 251L79 700L206 700L206 233Q206 159 244 121.50Q282 84 356 84Q432 84 468.50 121Q505 158 505 233L505 700L632 700L632 251Q632 118 564 54Q496-10 356-10Z"  horiz-adv-x="710" vert-adv-y="1000"  />

      
      <glyph glyph-name="unidc" unicode="&#xdc;" d="M356-10Q79-10 79 251L79 700L206 700L206 233Q206 159 244 121.50Q282 84 356 84Q432 84 468.50 121Q505 158 505 233L505 700L632 700L632 251Q632 118 564 54Q496-10 356-10Z"  horiz-adv-x="710" vert-adv-y="1000"  />

      
      <glyph glyph-name="uni01D7" unicode="&#x01D7;" d="M356-10Q79-10 79 251L79 700L206 700L206 233Q206 159 244 121.50Q282 84 356 84Q432 84 468.50 121Q505 158 505 233L505 700L632 700L632 251Q632 118 564 54Q496-10 356-10Z"  horiz-adv-x="710" vert-adv-y="1000"  />

      
      <glyph glyph-name="uni01D9" unicode="&#x01D9;" d="M356-10Q79-10 79 251L79 700L206 700L206 233Q206 159 244 121.50Q282 84 356 84Q432 84 468.50 121Q505 158 505 233L505 700L632 700L632 251Q632 118 564 54Q496-10 356-10Z"  horiz-adv-x="710" vert-adv-y="1000"  />

      
      <glyph glyph-name="uni01DB" unicode="&#x01DB;" d="M356-10Q79-10 79 251L79 700L206 700L206 233Q206 159 244 121.50Q282 84 356 84Q432 84 468.50 121Q505 158 505 233L505 700L632 700L632 251Q632 118 564 54Q496-10 356-10Z"  horiz-adv-x="710" vert-adv-y="1000"  />

      
      <glyph glyph-name="uni01D5" unicode="&#x01D5;" d="M356-10Q79-10 79 251L79 700L206 700L206 233Q206 159 244 121.50Q282 84 356 84Q432 84 468.50 121Q505 158 505 233L505 700L632 700L632 251Q632 118 564 54Q496-10 356-10Z"  horiz-adv-x="710" vert-adv-y="1000"  />

      
      <glyph glyph-name="uni1EE4" unicode="&#x1EE4;" d="M356-10Q79-10 79 251L79 700L206 700L206 233Q206 159 244 121.50Q282 84 356 84Q432 84 468.50 121Q505 158 505 233L505 700L632 700L632 251Q632 118 564 54Q496-10 356-10M350-213Q283-213 283-146L283-133Q283-66 350-66L362-66Q429-66 429-133L429-146Q429-213 362-213L350-213Z"  horiz-adv-x="710" vert-adv-y="1000"  />

      
      <glyph glyph-name="unid9" unicode="&#xd9;" d="M356-10Q79-10 79 251L79 700L206 700L206 233Q206 159 244 121.50Q282 84 356 84Q432 84 468.50 121Q505 158 505 233L505 700L632 700L632 251Q632 118 564 54Q496-10 356-10Z"  horiz-adv-x="710" vert-adv-y="1000"  />

      
      <glyph glyph-name="uni1EE6" unicode="&#x1EE6;" d="M356-10Q79-10 79 251L79 700L206 700L206 233Q206 159 244 121.50Q282 84 356 84Q432 84 468.50 121Q505 158 505 233L505 700L632 700L632 251Q632 118 564 54Q496-10 356-10M369 732Q352 733 339.50 743.50Q327 754 327 766Q382 795 382 847Q382 884 350 884Q332 884 323 873Q314 862 310 838Q252 838 252 882Q252 913 279.50 934.50Q307 956 353 956Q404 956 433.50 932Q463 908 463 865Q463 816 437 782Q411 748 369 732Z"  horiz-adv-x="710" vert-adv-y="1000"  />

      
      <glyph glyph-name="uni01AF" unicode="&#x01AF;" d="M795 777Q795 647 632 637L632 251Q632 118 564 54Q496-10 356-10Q79-10 79 251L79 700L206 700L206 233Q206 159 244 121.50Q282 84 356 84Q432 84 468.50 121Q505 158 505 233L505 700L625 700Q688 700 688 767Q688 797 659 819Q661 835 677 847Q693 859 717 859Q752 859 773.50 836.50Q795 814 795 777Z"  horiz-adv-x="710" vert-adv-y="1000"  />

      
      <glyph glyph-name="uni1EE8" unicode="&#x1EE8;" d="M795 777Q795 647 632 637L632 251Q632 118 564 54Q496-10 356-10Q79-10 79 251L79 700L206 700L206 233Q206 159 244 121.50Q282 84 356 84Q432 84 468.50 121Q505 158 505 233L505 700L625 700Q688 700 688 767Q688 797 659 819Q661 835 677 847Q693 859 717 859Q752 859 773.50 836.50Q795 814 795 777Z"  horiz-adv-x="710" vert-adv-y="1000"  />

      
      <glyph glyph-name="uni1EF0" unicode="&#x1EF0;" d="M795 777Q795 647 632 637L632 251Q632 118 564 54Q496-10 356-10Q79-10 79 251L79 700L206 700L206 233Q206 159 244 121.50Q282 84 356 84Q432 84 468.50 121Q505 158 505 233L505 700L625 700Q688 700 688 767Q688 797 659 819Q661 835 677 847Q693 859 717 859Q752 859 773.50 836.50Q795 814 795 777M350-213Q283-213 283-146L283-133Q283-66 350-66L362-66Q429-66 429-133L429-146Q429-213 362-213L350-213Z"  horiz-adv-x="710" vert-adv-y="1000"  />

      
      <glyph glyph-name="uni1EEA" unicode="&#x1EEA;" d="M795 777Q795 647 632 637L632 251Q632 118 564 54Q496-10 356-10Q79-10 79 251L79 700L206 700L206 233Q206 159 244 121.50Q282 84 356 84Q432 84 468.50 121Q505 158 505 233L505 700L625 700Q688 700 688 767Q688 797 659 819Q661 835 677 847Q693 859 717 859Q752 859 773.50 836.50Q795 814 795 777Z"  horiz-adv-x="710" vert-adv-y="1000"  />

      
      <glyph glyph-name="uni1EEC" unicode="&#x1EEC;" d="M795 777Q795 647 632 637L632 251Q632 118 564 54Q496-10 356-10Q79-10 79 251L79 700L206 700L206 233Q206 159 244 121.50Q282 84 356 84Q432 84 468.50 121Q505 158 505 233L505 700L625 700Q688 700 688 767Q688 797 659 819Q661 835 677 847Q693 859 717 859Q752 859 773.50 836.50Q795 814 795 777M369 732Q352 733 339.50 743.50Q327 754 327 766Q382 795 382 847Q382 884 350 884Q332 884 323 873Q314 862 310 838Q252 838 252 882Q252 913 279.50 934.50Q307 956 353 956Q404 956 433.50 932Q463 908 463 865Q463 816 437 782Q411 748 369 732Z"  horiz-adv-x="710" vert-adv-y="1000"  />

      
      <glyph glyph-name="uni1EEE" unicode="&#x1EEE;" d="M795 777Q795 647 632 637L632 251Q632 118 564 54Q496-10 356-10Q79-10 79 251L79 700L206 700L206 233Q206 159 244 121.50Q282 84 356 84Q432 84 468.50 121Q505 158 505 233L505 700L625 700Q688 700 688 767Q688 797 659 819Q661 835 677 847Q693 859 717 859Q752 859 773.50 836.50Q795 814 795 777Z"  horiz-adv-x="710" vert-adv-y="1000"  />

      
      <glyph glyph-name="uni0170" unicode="&#x0170;" d="M356-10Q79-10 79 251L79 700L206 700L206 233Q206 159 244 121.50Q282 84 356 84Q432 84 468.50 121Q505 158 505 233L505 700L632 700L632 251Q632 118 564 54Q496-10 356-10Z"  horiz-adv-x="710" vert-adv-y="1000"  />

      
      <glyph glyph-name="uni016A" unicode="&#x016A;" d="M356-10Q79-10 79 251L79 700L206 700L206 233Q206 159 244 121.50Q282 84 356 84Q432 84 468.50 121Q505 158 505 233L505 700L632 700L632 251Q632 118 564 54Q496-10 356-10Z"  horiz-adv-x="710" vert-adv-y="1000"  />

      
      <glyph glyph-name="uni0172" unicode="&#x0172;" d="M632 700L632 251Q632 138 582.50 74.50Q533 11 431-5Q392-47 392-93Q392-114 402-125Q412-136 429-136Q450-136 468-126Q484-139 484-157Q484-177 463.50-188.50Q443-200 407-200Q355-200 326.50-178.50Q298-157 298-115Q298-52 357-10L356-10Q79-10 79 251L79 700L206 700L206 233Q206 159 244 121.50Q282 84 356 84Q432 84 468.50 121Q505 158 505 233L505 700L632 700Z"  horiz-adv-x="710" vert-adv-y="1000"  />

      
      <glyph glyph-name="uni016E" unicode="&#x016E;" d="M356-10Q79-10 79 251L79 700L206 700L206 233Q206 159 244 121.50Q282 84 356 84Q432 84 468.50 121Q505 158 505 233L505 700L632 700L632 251Q632 118 564 54Q496-10 356-10Z"  horiz-adv-x="710" vert-adv-y="1000"  />

      
      <glyph glyph-name="uni0168" unicode="&#x0168;" d="M356-10Q79-10 79 251L79 700L206 700L206 233Q206 159 244 121.50Q282 84 356 84Q432 84 468.50 121Q505 158 505 233L505 700L632 700L632 251Q632 118 564 54Q496-10 356-10Z"  horiz-adv-x="710" vert-adv-y="1000"  />

      
      <glyph glyph-name="uni56" unicode="&#x56;" d="M615 700Q591 501 532.50 329Q474 157 377 0L262 0Q165 155 106.50 327Q48 499 23 700L154 700Q174 533 216 389Q258 245 319 132Q380 245 422 389Q464 533 484 700L615 700Z"  horiz-adv-x="638" vert-adv-y="1000"  />

      
      <glyph glyph-name="uni57" unicode="&#x57;" d="M868 700Q845 503 808 343.50Q771 184 706 0L571 0Q516 173 490 268Q464 363 446 463Q426 352 399 252Q372 152 322 0L187 0Q120 180 80.50 340Q41 500 15 700L140 700Q160 522 183.50 405.50Q207 289 254 136Q295 260 322.50 369Q350 478 397 700L492 700Q552 444 577.50 344.50Q603 245 638 137Q683 286 705 402Q727 518 746 700L868 700Z"  horiz-adv-x="883" vert-adv-y="1000"  />

      
      <glyph glyph-name="uni1E82" unicode="&#x1E82;" d="M868 700Q845 503 808 343.50Q771 184 706 0L571 0Q516 173 490 268Q464 363 446 463Q426 352 399 252Q372 152 322 0L187 0Q120 180 80.50 340Q41 500 15 700L140 700Q160 522 183.50 405.50Q207 289 254 136Q295 260 322.50 369Q350 478 397 700L492 700Q552 444 577.50 344.50Q603 245 638 137Q683 286 705 402Q727 518 746 700L868 700Z"  horiz-adv-x="883" vert-adv-y="1000"  />

      
      <glyph glyph-name="uni0174" unicode="&#x0174;" d="M868 700Q845 503 808 343.50Q771 184 706 0L571 0Q516 173 490 268Q464 363 446 463Q426 352 399 252Q372 152 322 0L187 0Q120 180 80.50 340Q41 500 15 700L140 700Q160 522 183.50 405.50Q207 289 254 136Q295 260 322.50 369Q350 478 397 700L492 700Q552 444 577.50 344.50Q603 245 638 137Q683 286 705 402Q727 518 746 700L868 700Z"  horiz-adv-x="883" vert-adv-y="1000"  />

      
      <glyph glyph-name="uni1E84" unicode="&#x1E84;" d="M868 700Q845 503 808 343.50Q771 184 706 0L571 0Q516 173 490 268Q464 363 446 463Q426 352 399 252Q372 152 322 0L187 0Q120 180 80.50 340Q41 500 15 700L140 700Q160 522 183.50 405.50Q207 289 254 136Q295 260 322.50 369Q350 478 397 700L492 700Q552 444 577.50 344.50Q603 245 638 137Q683 286 705 402Q727 518 746 700L868 700Z"  horiz-adv-x="883" vert-adv-y="1000"  />

      
      <glyph glyph-name="uni1E80" unicode="&#x1E80;" d="M868 700Q845 503 808 343.50Q771 184 706 0L571 0Q516 173 490 268Q464 363 446 463Q426 352 399 252Q372 152 322 0L187 0Q120 180 80.50 340Q41 500 15 700L140 700Q160 522 183.50 405.50Q207 289 254 136Q295 260 322.50 369Q350 478 397 700L492 700Q552 444 577.50 344.50Q603 245 638 137Q683 286 705 402Q727 518 746 700L868 700Z"  horiz-adv-x="883" vert-adv-y="1000"  />

      
      <glyph glyph-name="uni58" unicode="&#x58;" d="M454 0Q440 87 400.50 155Q361 223 298 293Q235 224 195 155.50Q155 87 141 0L11 0Q26 82 57.50 147.50Q89 213 128 262.50Q167 312 224 371Q143 456 94.50 529Q46 602 26 700L154 700Q170 625 206 566.50Q242 508 298 447Q354 508 389.50 567Q425 626 441 700L570 700Q550 602 501.50 528.50Q453 455 371 371Q428 313 467.50 263Q507 213 538.50 147.50Q570 82 585 0L454 0Z"  horiz-adv-x="595" vert-adv-y="1000"  />

      
      <glyph glyph-name="uni59" unicode="&#x59;" d="M577 700L358 294L358 0L232 0L232 294L13 700L145 700L296 406L446 700L577 700Z"  horiz-adv-x="590" vert-adv-y="1000"  />

      
      <glyph glyph-name="unidd" unicode="&#xdd;" d="M577 700L358 294L358 0L232 0L232 294L13 700L145 700L296 406L446 700L577 700Z"  horiz-adv-x="590" vert-adv-y="1000"  />

      
      <glyph glyph-name="uni0176" unicode="&#x0176;" d="M577 700L358 294L358 0L232 0L232 294L13 700L145 700L296 406L446 700L577 700Z"  horiz-adv-x="590" vert-adv-y="1000"  />

      
      <glyph glyph-name="uni0178" unicode="&#x0178;" d="M577 700L358 294L358 0L232 0L232 294L13 700L145 700L296 406L446 700L577 700Z"  horiz-adv-x="590" vert-adv-y="1000"  />

      
      <glyph glyph-name="uni1E8E" unicode="&#x1E8E;" d="M577 700L358 294L358 0L232 0L232 294L13 700L145 700L296 406L446 700L577 700Z"  horiz-adv-x="590" vert-adv-y="1000"  />

      
      <glyph glyph-name="uni1EF4" unicode="&#x1EF4;" d="M577 700L358 294L358 0L232 0L232 294L13 700L145 700L296 406L446 700L577 700M289-213Q222-213 222-146L222-133Q222-66 289-66L301-66Q368-66 368-133L368-146Q368-213 301-213L289-213Z"  horiz-adv-x="590" vert-adv-y="1000"  />

      
      <glyph glyph-name="uni1EF2" unicode="&#x1EF2;" d="M577 700L358 294L358 0L232 0L232 294L13 700L145 700L296 406L446 700L577 700Z"  horiz-adv-x="590" vert-adv-y="1000"  />

      
      <glyph glyph-name="uni1EF6" unicode="&#x1EF6;" d="M577 700L358 294L358 0L232 0L232 294L13 700L145 700L296 406L446 700L577 700M310 725Q293 726 280.50 736.50Q268 747 268 759Q323 788 323 840Q323 877 291 877Q273 877 264 866Q255 855 251 831Q193 831 193 875Q193 906 220.50 927.50Q248 949 294 949Q345 949 374.50 925Q404 901 404 858Q404 809 378 775Q352 741 310 725Z"  horiz-adv-x="590" vert-adv-y="1000"  />

      
      <glyph glyph-name="uni1EF8" unicode="&#x1EF8;" d="M577 700L358 294L358 0L232 0L232 294L13 700L145 700L296 406L446 700L577 700Z"  horiz-adv-x="590" vert-adv-y="1000"  />

      
      <glyph glyph-name="uni5a" unicode="&#x5a;" d="M535 87L535 0L47 0L47 87L390 613L45 613L45 700L527 700L527 609L189 87L535 87Z"  horiz-adv-x="580" vert-adv-y="1000"  />

      
      <glyph glyph-name="uni0179" unicode="&#x0179;" d="M535 87L535 0L47 0L47 87L390 613L45 613L45 700L527 700L527 609L189 87L535 87Z"  horiz-adv-x="580" vert-adv-y="1000"  />

      
      <glyph glyph-name="uni017D" unicode="&#x017D;" d="M535 87L535 0L47 0L47 87L390 613L45 613L45 700L527 700L527 609L189 87L535 87Z"  horiz-adv-x="580" vert-adv-y="1000"  />

      
      <glyph glyph-name="uni017B" unicode="&#x017B;" d="M535 87L535 0L47 0L47 87L390 613L45 613L45 700L527 700L527 609L189 87L535 87Z"  horiz-adv-x="580" vert-adv-y="1000"  />

      
      <glyph glyph-name="uni1E92" unicode="&#x1E92;" d="M535 87L535 0L47 0L47 87L390 613L45 613L45 700L527 700L527 609L189 87L535 87M278-213Q211-213 211-146L211-133Q211-66 278-66L290-66Q357-66 357-133L357-146Q357-213 290-213L278-213Z"  horiz-adv-x="580" vert-adv-y="1000"  />

      
      <glyph glyph-name="uni61" unicode="&#x61;" d="M496 184Q496 114 503 81Q510 48 529 24Q512 11 485.50 2.50Q459-6 437-6Q389-6 379 73Q324-10 208-10Q134-10 88.50 29.50Q43 69 43 133Q43 224 124 271.50Q205 319 375 328L375 373Q375 471 272 471Q235 471 202 456.50Q169 442 124 407Q117 402 110 402Q94 402 76 420.50Q58 439 44 471Q85 511 151 535.50Q217 560 285 560Q386 560 441 511Q496 462 496 373L496 184M244 73Q321 73 375 169L375 259Q167 250 167 144Q167 110 187 91.50Q207 73 244 73Z"  horiz-adv-x="565" vert-adv-y="1000"  />

      
      <glyph glyph-name="unie1" unicode="&#xe1;" d="M496 184Q496 114 503 81Q510 48 529 24Q512 11 485.50 2.50Q459-6 437-6Q389-6 379 73Q324-10 208-10Q134-10 88.50 29.50Q43 69 43 133Q43 224 124 271.50Q205 319 375 328L375 373Q375 471 272 471Q235 471 202 456.50Q169 442 124 407Q117 402 110 402Q94 402 76 420.50Q58 439 44 471Q85 511 151 535.50Q217 560 285 560Q386 560 441 511Q496 462 496 373L496 184M244 73Q321 73 375 169L375 259Q167 250 167 144Q167 110 187 91.50Q207 73 244 73Z"  horiz-adv-x="565" vert-adv-y="1000"  />

      
      <glyph glyph-name="uni0103" unicode="&#x0103;" d="M496 184Q496 114 503 81Q510 48 529 24Q512 11 485.50 2.50Q459-6 437-6Q389-6 379 73Q324-10 208-10Q134-10 88.50 29.50Q43 69 43 133Q43 224 124 271.50Q205 319 375 328L375 373Q375 471 272 471Q235 471 202 456.50Q169 442 124 407Q117 402 110 402Q94 402 76 420.50Q58 439 44 471Q85 511 151 535.50Q217 560 285 560Q386 560 441 511Q496 462 496 373L496 184M244 73Q321 73 375 169L375 259Q167 250 167 144Q167 110 187 91.50Q207 73 244 73Z"  horiz-adv-x="565" vert-adv-y="1000"  />

      
      <glyph glyph-name="uni1EAF" unicode="&#x1EAF;" d="M496 184Q496 114 503 81Q510 48 529 24Q512 11 485.50 2.50Q459-6 437-6Q389-6 379 73Q324-10 208-10Q134-10 88.50 29.50Q43 69 43 133Q43 224 124 271.50Q205 319 375 328L375 373Q375 471 272 471Q235 471 202 456.50Q169 442 124 407Q117 402 110 402Q94 402 76 420.50Q58 439 44 471Q85 511 151 535.50Q217 560 285 560Q386 560 441 511Q496 462 496 373L496 184M244 73Q321 73 375 169L375 259Q167 250 167 144Q167 110 187 91.50Q207 73 244 73Z"  horiz-adv-x="565" vert-adv-y="1000"  />

      
      <glyph glyph-name="uni1EB7" unicode="&#x1EB7;" d="M496 184Q496 114 503 81Q510 48 529 24Q512 11 485.50 2.50Q459-6 437-6Q389-6 379 73Q324-10 208-10Q134-10 88.50 29.50Q43 69 43 133Q43 224 124 271.50Q205 319 375 328L375 373Q375 471 272 471Q235 471 202 456.50Q169 442 124 407Q117 402 110 402Q94 402 76 420.50Q58 439 44 471Q85 511 151 535.50Q217 560 285 560Q386 560 441 511Q496 462 496 373L496 184M244 73Q321 73 375 169L375 259Q167 250 167 144Q167 110 187 91.50Q207 73 244 73M273-213Q206-213 206-146L206-133Q206-66 273-66L285-66Q352-66 352-133L352-146Q352-213 285-213L273-213Z"  horiz-adv-x="565" vert-adv-y="1000"  />

      
      <glyph glyph-name="uni1EB1" unicode="&#x1EB1;" d="M496 184Q496 114 503 81Q510 48 529 24Q512 11 485.50 2.50Q459-6 437-6Q389-6 379 73Q324-10 208-10Q134-10 88.50 29.50Q43 69 43 133Q43 224 124 271.50Q205 319 375 328L375 373Q375 471 272 471Q235 471 202 456.50Q169 442 124 407Q117 402 110 402Q94 402 76 420.50Q58 439 44 471Q85 511 151 535.50Q217 560 285 560Q386 560 441 511Q496 462 496 373L496 184M244 73Q321 73 375 169L375 259Q167 250 167 144Q167 110 187 91.50Q207 73 244 73Z"  horiz-adv-x="565" vert-adv-y="1000"  />

      
      <glyph glyph-name="uni1EB3" unicode="&#x1EB3;" d="M496 184Q496 114 503 81Q510 48 529 24Q512 11 485.50 2.50Q459-6 437-6Q389-6 379 73Q324-10 208-10Q134-10 88.50 29.50Q43 69 43 133Q43 224 124 271.50Q205 319 375 328L375 373Q375 471 272 471Q235 471 202 456.50Q169 442 124 407Q117 402 110 402Q94 402 76 420.50Q58 439 44 471Q85 511 151 535.50Q217 560 285 560Q386 560 441 511Q496 462 496 373L496 184M244 73Q321 73 375 169L375 259Q167 250 167 144Q167 110 187 91.50Q207 73 244 73Z"  horiz-adv-x="565" vert-adv-y="1000"  />

      
      <glyph glyph-name="uni1EB5" unicode="&#x1EB5;" d="M496 184Q496 114 503 81Q510 48 529 24Q512 11 485.50 2.50Q459-6 437-6Q389-6 379 73Q324-10 208-10Q134-10 88.50 29.50Q43 69 43 133Q43 224 124 271.50Q205 319 375 328L375 373Q375 471 272 471Q235 471 202 456.50Q169 442 124 407Q117 402 110 402Q94 402 76 420.50Q58 439 44 471Q85 511 151 535.50Q217 560 285 560Q386 560 441 511Q496 462 496 373L496 184M244 73Q321 73 375 169L375 259Q167 250 167 144Q167 110 187 91.50Q207 73 244 73Z"  horiz-adv-x="565" vert-adv-y="1000"  />

      
      <glyph glyph-name="uni01CE" unicode="&#x01CE;" d="M496 184Q496 114 503 81Q510 48 529 24Q512 11 485.50 2.50Q459-6 437-6Q389-6 379 73Q324-10 208-10Q134-10 88.50 29.50Q43 69 43 133Q43 224 124 271.50Q205 319 375 328L375 373Q375 471 272 471Q235 471 202 456.50Q169 442 124 407Q117 402 110 402Q94 402 76 420.50Q58 439 44 471Q85 511 151 535.50Q217 560 285 560Q386 560 441 511Q496 462 496 373L496 184M244 73Q321 73 375 169L375 259Q167 250 167 144Q167 110 187 91.50Q207 73 244 73Z"  horiz-adv-x="565" vert-adv-y="1000"  />

      
      <glyph glyph-name="unie2" unicode="&#xe2;" d="M496 184Q496 114 503 81Q510 48 529 24Q512 11 485.50 2.50Q459-6 437-6Q389-6 379 73Q324-10 208-10Q134-10 88.50 29.50Q43 69 43 133Q43 224 124 271.50Q205 319 375 328L375 373Q375 471 272 471Q235 471 202 456.50Q169 442 124 407Q117 402 110 402Q94 402 76 420.50Q58 439 44 471Q85 511 151 535.50Q217 560 285 560Q386 560 441 511Q496 462 496 373L496 184M244 73Q321 73 375 169L375 259Q167 250 167 144Q167 110 187 91.50Q207 73 244 73Z"  horiz-adv-x="565" vert-adv-y="1000"  />

      
      <glyph glyph-name="uni1EA5" unicode="&#x1EA5;" d="M496 184Q496 114 503 81Q510 48 529 24Q512 11 485.50 2.50Q459-6 437-6Q389-6 379 73Q324-10 208-10Q134-10 88.50 29.50Q43 69 43 133Q43 224 124 271.50Q205 319 375 328L375 373Q375 471 272 471Q235 471 202 456.50Q169 442 124 407Q117 402 110 402Q94 402 76 420.50Q58 439 44 471Q85 511 151 535.50Q217 560 285 560Q386 560 441 511Q496 462 496 373L496 184M244 73Q321 73 375 169L375 259Q167 250 167 144Q167 110 187 91.50Q207 73 244 73Z"  horiz-adv-x="565" vert-adv-y="1000"  />

      
      <glyph glyph-name="uni1EAD" unicode="&#x1EAD;" d="M496 184Q496 114 503 81Q510 48 529 24Q512 11 485.50 2.50Q459-6 437-6Q389-6 379 73Q324-10 208-10Q134-10 88.50 29.50Q43 69 43 133Q43 224 124 271.50Q205 319 375 328L375 373Q375 471 272 471Q235 471 202 456.50Q169 442 124 407Q117 402 110 402Q94 402 76 420.50Q58 439 44 471Q85 511 151 535.50Q217 560 285 560Q386 560 441 511Q496 462 496 373L496 184M244 73Q321 73 375 169L375 259Q167 250 167 144Q167 110 187 91.50Q207 73 244 73M273-213Q206-213 206-146L206-133Q206-66 273-66L285-66Q352-66 352-133L352-146Q352-213 285-213L273-213Z"  horiz-adv-x="565" vert-adv-y="1000"  />

      
      <glyph glyph-name="uni1EA7" unicode="&#x1EA7;" d="M496 184Q496 114 503 81Q510 48 529 24Q512 11 485.50 2.50Q459-6 437-6Q389-6 379 73Q324-10 208-10Q134-10 88.50 29.50Q43 69 43 133Q43 224 124 271.50Q205 319 375 328L375 373Q375 471 272 471Q235 471 202 456.50Q169 442 124 407Q117 402 110 402Q94 402 76 420.50Q58 439 44 471Q85 511 151 535.50Q217 560 285 560Q386 560 441 511Q496 462 496 373L496 184M244 73Q321 73 375 169L375 259Q167 250 167 144Q167 110 187 91.50Q207 73 244 73Z"  horiz-adv-x="565" vert-adv-y="1000"  />

      
      <glyph glyph-name="uni1EA9" unicode="&#x1EA9;" d="M496 184Q496 114 503 81Q510 48 529 24Q512 11 485.50 2.50Q459-6 437-6Q389-6 379 73Q324-10 208-10Q134-10 88.50 29.50Q43 69 43 133Q43 224 124 271.50Q205 319 375 328L375 373Q375 471 272 471Q235 471 202 456.50Q169 442 124 407Q117 402 110 402Q94 402 76 420.50Q58 439 44 471Q85 511 151 535.50Q217 560 285 560Q386 560 441 511Q496 462 496 373L496 184M244 73Q321 73 375 169L375 259Q167 250 167 144Q167 110 187 91.50Q207 73 244 73Z"  horiz-adv-x="565" vert-adv-y="1000"  />

      
      <glyph glyph-name="uni1EAB" unicode="&#x1EAB;" d="M496 184Q496 114 503 81Q510 48 529 24Q512 11 485.50 2.50Q459-6 437-6Q389-6 379 73Q324-10 208-10Q134-10 88.50 29.50Q43 69 43 133Q43 224 124 271.50Q205 319 375 328L375 373Q375 471 272 471Q235 471 202 456.50Q169 442 124 407Q117 402 110 402Q94 402 76 420.50Q58 439 44 471Q85 511 151 535.50Q217 560 285 560Q386 560 441 511Q496 462 496 373L496 184M244 73Q321 73 375 169L375 259Q167 250 167 144Q167 110 187 91.50Q207 73 244 73Z"  horiz-adv-x="565" vert-adv-y="1000"  />

      
      <glyph glyph-name="unie4" unicode="&#xe4;" d="M496 184Q496 114 503 81Q510 48 529 24Q512 11 485.50 2.50Q459-6 437-6Q389-6 379 73Q324-10 208-10Q134-10 88.50 29.50Q43 69 43 133Q43 224 124 271.50Q205 319 375 328L375 373Q375 471 272 471Q235 471 202 456.50Q169 442 124 407Q117 402 110 402Q94 402 76 420.50Q58 439 44 471Q85 511 151 535.50Q217 560 285 560Q386 560 441 511Q496 462 496 373L496 184M244 73Q321 73 375 169L375 259Q167 250 167 144Q167 110 187 91.50Q207 73 244 73Z"  horiz-adv-x="565" vert-adv-y="1000"  />

      
      <glyph glyph-name="uni1EA1" unicode="&#x1EA1;" d="M496 184Q496 114 503 81Q510 48 529 24Q512 11 485.50 2.50Q459-6 437-6Q389-6 379 73Q324-10 208-10Q134-10 88.50 29.50Q43 69 43 133Q43 224 124 271.50Q205 319 375 328L375 373Q375 471 272 471Q235 471 202 456.50Q169 442 124 407Q117 402 110 402Q94 402 76 420.50Q58 439 44 471Q85 511 151 535.50Q217 560 285 560Q386 560 441 511Q496 462 496 373L496 184M244 73Q321 73 375 169L375 259Q167 250 167 144Q167 110 187 91.50Q207 73 244 73M273-213Q206-213 206-146L206-133Q206-66 273-66L285-66Q352-66 352-133L352-146Q352-213 285-213L273-213Z"  horiz-adv-x="565" vert-adv-y="1000"  />

      
      <glyph glyph-name="unie0" unicode="&#xe0;" d="M496 184Q496 114 503 81Q510 48 529 24Q512 11 485.50 2.50Q459-6 437-6Q389-6 379 73Q324-10 208-10Q134-10 88.50 29.50Q43 69 43 133Q43 224 124 271.50Q205 319 375 328L375 373Q375 471 272 471Q235 471 202 456.50Q169 442 124 407Q117 402 110 402Q94 402 76 420.50Q58 439 44 471Q85 511 151 535.50Q217 560 285 560Q386 560 441 511Q496 462 496 373L496 184M244 73Q321 73 375 169L375 259Q167 250 167 144Q167 110 187 91.50Q207 73 244 73Z"  horiz-adv-x="565" vert-adv-y="1000"  />

      
      <glyph glyph-name="uni1EA3" unicode="&#x1EA3;" d="M496 184Q496 114 503 81Q510 48 529 24Q512 11 485.50 2.50Q459-6 437-6Q389-6 379 73Q324-10 208-10Q134-10 88.50 29.50Q43 69 43 133Q43 224 124 271.50Q205 319 375 328L375 373Q375 471 272 471Q235 471 202 456.50Q169 442 124 407Q117 402 110 402Q94 402 76 420.50Q58 439 44 471Q85 511 151 535.50Q217 560 285 560Q386 560 441 511Q496 462 496 373L496 184M244 73Q321 73 375 169L375 259Q167 250 167 144Q167 110 187 91.50Q207 73 244 73M292 615Q275 616 262.50 626.50Q250 637 250 649Q305 678 305 730Q305 767 273 767Q255 767 246 756Q237 745 233 721Q175 721 175 765Q175 796 202.50 817.50Q230 839 276 839Q327 839 356.50 815Q386 791 386 748Q386 699 360 665Q334 631 292 615Z"  horiz-adv-x="565" vert-adv-y="1000"  />

      
      <glyph glyph-name="uni0251" unicode="&#x0251;" d="M527 174Q527 108 533 76Q539 44 554 21Q506-6 459-6Q424-6 413 50Q363-10 260-10Q157-10 95 59Q33 128 33 272Q33 363 65 428Q97 493 154 526.50Q211 560 285 560Q318 560 350.50 550.50Q383 541 406 527L406 550L527 550L527 174M290 73Q369 73 406 142L406 440Q388 458 360 468.50Q332 479 301 479Q237 479 197 427.50Q157 376 157 272Q157 168 193.50 120.50Q230 73 290 73Z"  horiz-adv-x="598" vert-adv-y="1000"  />

      
      <glyph glyph-name="uni0101" unicode="&#x0101;" d="M496 184Q496 114 503 81Q510 48 529 24Q512 11 485.50 2.50Q459-6 437-6Q389-6 379 73Q324-10 208-10Q134-10 88.50 29.50Q43 69 43 133Q43 224 124 271.50Q205 319 375 328L375 373Q375 471 272 471Q235 471 202 456.50Q169 442 124 407Q117 402 110 402Q94 402 76 420.50Q58 439 44 471Q85 511 151 535.50Q217 560 285 560Q386 560 441 511Q496 462 496 373L496 184M244 73Q321 73 375 169L375 259Q167 250 167 144Q167 110 187 91.50Q207 73 244 73Z"  horiz-adv-x="565" vert-adv-y="1000"  />

      
      <glyph glyph-name="uni0105" unicode="&#x0105;" d="M525-126Q541-139 541-157Q541-177 520.50-188.50Q500-200 464-200Q412-200 383.50-178.50Q355-157 355-115Q355-48 423-4Q388 7 379 73Q324-10 208-10Q134-10 88.50 29.50Q43 69 43 133Q43 224 124 271.50Q205 319 375 328L375 373Q375 471 272 471Q235 471 202 456.50Q169 442 124 407Q117 402 110 402Q94 402 76 420.50Q58 439 44 471Q85 511 151 535.50Q217 560 285 560Q386 560 441 511Q496 462 496 373L496 184Q496 114 503 81Q510 48 529 24Q516 14 499 7Q474-18 461.50-42Q449-66 449-93Q449-114 459-125Q469-136 486-136Q507-136 525-126M244 73Q321 73 375 169L375 259Q167 250 167 144Q167 110 187 91.50Q207 73 244 73Z"  horiz-adv-x="565" vert-adv-y="1000"  />

      
      <glyph glyph-name="unie5" unicode="&#xe5;" d="M496 184Q496 114 503 81Q510 48 529 24Q512 11 485.50 2.50Q459-6 437-6Q389-6 379 73Q324-10 208-10Q134-10 88.50 29.50Q43 69 43 133Q43 224 124 271.50Q205 319 375 328L375 373Q375 471 272 471Q235 471 202 456.50Q169 442 124 407Q117 402 110 402Q94 402 76 420.50Q58 439 44 471Q85 511 151 535.50Q217 560 285 560Q386 560 441 511Q496 462 496 373L496 184M244 73Q321 73 375 169L375 259Q167 250 167 144Q167 110 187 91.50Q207 73 244 73Z"  horiz-adv-x="565" vert-adv-y="1000"  />

      
      <glyph glyph-name="uni01FB" unicode="&#x01FB;" d="M496 184Q496 114 503 81Q510 48 529 24Q512 11 485.50 2.50Q459-6 437-6Q389-6 379 73Q324-10 208-10Q134-10 88.50 29.50Q43 69 43 133Q43 224 124 271.50Q205 319 375 328L375 373Q375 471 272 471Q235 471 202 456.50Q169 442 124 407Q117 402 110 402Q94 402 76 420.50Q58 439 44 471Q85 511 151 535.50Q217 560 285 560Q386 560 441 511Q496 462 496 373L496 184M244 73Q321 73 375 169L375 259Q167 250 167 144Q167 110 187 91.50Q207 73 244 73Z"  horiz-adv-x="565" vert-adv-y="1000"  />

      
      <glyph glyph-name="unie3" unicode="&#xe3;" d="M496 184Q496 114 503 81Q510 48 529 24Q512 11 485.50 2.50Q459-6 437-6Q389-6 379 73Q324-10 208-10Q134-10 88.50 29.50Q43 69 43 133Q43 224 124 271.50Q205 319 375 328L375 373Q375 471 272 471Q235 471 202 456.50Q169 442 124 407Q117 402 110 402Q94 402 76 420.50Q58 439 44 471Q85 511 151 535.50Q217 560 285 560Q386 560 441 511Q496 462 496 373L496 184M244 73Q321 73 375 169L375 259Q167 250 167 144Q167 110 187 91.50Q207 73 244 73Z"  horiz-adv-x="565" vert-adv-y="1000"  />

      
      <glyph glyph-name="unie6" unicode="&#xe6;" d="M866 322Q866 284 860 255L501 255Q509 73 629 73Q664 73 687 84Q710 95 724.50 111Q739 127 757 154Q763 165 777 165Q806 165 855 128Q829 64 774 26Q719-12 629-12Q566-12 516 10Q466 32 433 76Q398 35 346.50 11.50Q295-12 228-12Q144-12 93.50 26Q43 64 43 132Q43 230 126.50 279.50Q210 329 378 331L378 373Q378 471 280 471Q249 471 222.50 462Q196 453 177.50 441Q159 429 122 403Q114 399 108 399Q93 399 76 418.50Q59 438 44 471Q88 509 150.50 534.50Q213 560 285 560Q340 560 383.50 542.50Q427 525 456 493Q523 560 637 560Q743 560 804.50 499.50Q866 439 866 322M743 329Q743 479 634 479Q519 479 504 329L743 329M244 71Q293 71 331.50 99Q370 127 388 178Q379 220 378 257Q167 250 167 143Q167 109 187.50 90Q208 71 244 71Z"  horiz-adv-x="899" vert-adv-y="1000"  />

      
      <glyph glyph-name="uni01FD" unicode="&#x01FD;" d="M866 322Q866 284 860 255L501 255Q509 73 629 73Q664 73 687 84Q710 95 724.50 111Q739 127 757 154Q763 165 777 165Q806 165 855 128Q829 64 774 26Q719-12 629-12Q566-12 516 10Q466 32 433 76Q398 35 346.50 11.50Q295-12 228-12Q144-12 93.50 26Q43 64 43 132Q43 230 126.50 279.50Q210 329 378 331L378 373Q378 471 280 471Q249 471 222.50 462Q196 453 177.50 441Q159 429 122 403Q114 399 108 399Q93 399 76 418.50Q59 438 44 471Q88 509 150.50 534.50Q213 560 285 560Q340 560 383.50 542.50Q427 525 456 493Q523 560 637 560Q743 560 804.50 499.50Q866 439 866 322M743 329Q743 479 634 479Q519 479 504 329L743 329M244 71Q293 71 331.50 99Q370 127 388 178Q379 220 378 257Q167 250 167 143Q167 109 187.50 90Q208 71 244 71Z"  horiz-adv-x="899" vert-adv-y="1000"  />

      
      <glyph glyph-name="uni62" unicode="&#x62;" d="M345 560Q414 560 465 526Q516 492 543 428Q570 364 570 277Q570 190 542 125Q514 60 462.50 25Q411-10 342-10Q297-10 258.50 8Q220 26 193 59Q181-5 143-5Q120-5 94.50 2Q69 9 47 22Q64 46 70 80.50Q76 115 76 182L76 791L198 791L198 507Q230 534 266 547Q302 560 345 560M326 73Q447 73 447 277Q447 376 415 427.50Q383 479 321 479Q287 479 254 464Q221 449 198 425L198 148Q246 73 326 73Z"  horiz-adv-x="610" vert-adv-y="1000"  />

      
      <glyph glyph-name="uni63" unicode="&#x63;" d="M303-10Q170-10 101.50 63.50Q33 137 33 278Q33 409 103 484.50Q173 560 295 560Q392 560 453.50 512.50Q515 465 526 382Q480 355 446 355Q432 355 423.50 363.50Q415 372 408 393Q395 436 367.50 456.50Q340 477 295 477Q230 477 193.50 424.50Q157 372 157 278Q157 178 194.50 126.50Q232 75 303 75Q355 75 387.50 105.50Q420 136 436 201Q477 201 496.50 183.50Q516 166 516 131Q516 94 486.50 61.50Q457 29 408 9.50Q359-10 303-10Z"  horiz-adv-x="568" vert-adv-y="1000"  />

      
      <glyph glyph-name="uni0107" unicode="&#x0107;" d="M303-10Q170-10 101.50 63.50Q33 137 33 278Q33 409 103 484.50Q173 560 295 560Q392 560 453.50 512.50Q515 465 526 382Q480 355 446 355Q432 355 423.50 363.50Q415 372 408 393Q395 436 367.50 456.50Q340 477 295 477Q230 477 193.50 424.50Q157 372 157 278Q157 178 194.50 126.50Q232 75 303 75Q355 75 387.50 105.50Q420 136 436 201Q477 201 496.50 183.50Q516 166 516 131Q516 94 486.50 61.50Q457 29 408 9.50Q359-10 303-10Z"  horiz-adv-x="568" vert-adv-y="1000"  />

      
      <glyph glyph-name="uni010D" unicode="&#x010D;" d="M303-10Q170-10 101.50 63.50Q33 137 33 278Q33 409 103 484.50Q173 560 295 560Q392 560 453.50 512.50Q515 465 526 382Q480 355 446 355Q432 355 423.50 363.50Q415 372 408 393Q395 436 367.50 456.50Q340 477 295 477Q230 477 193.50 424.50Q157 372 157 278Q157 178 194.50 126.50Q232 75 303 75Q355 75 387.50 105.50Q420 136 436 201Q477 201 496.50 183.50Q516 166 516 131Q516 94 486.50 61.50Q457 29 408 9.50Q359-10 303-10Z"  horiz-adv-x="568" vert-adv-y="1000"  />

      
      <glyph glyph-name="unie7" unicode="&#xe7;" d="M436 201Q477 201 496.50 183.50Q516 166 516 131Q516 98 492.50 68.50Q469 39 429 18.50Q389-2 341-8L301-52L311-52Q355-52 382.50-75Q410-98 410-136Q410-183 376.50-209.50Q343-236 276-236Q224-236 200-222.50Q176-209 176-186Q176-177 179-166Q191-171 214-174Q237-177 263-177Q294-177 307.50-167.50Q321-158 321-138Q321-126 311-117Q301-108 282-108Q264-108 250-114L219-75L264-8Q150 2 91.50 74.50Q33 147 33 278Q33 409 103 484.50Q173 560 295 560Q392 560 453.50 512.50Q515 465 526 382Q480 355 446 355Q432 355 423.50 363.50Q415 372 408 393Q395 436 367.50 456.50Q340 477 295 477Q230 477 193.50 424.50Q157 372 157 278Q157 178 194.50 126.50Q232 75 303 75Q355 75 387.50 105.50Q420 136 436 201Z"  horiz-adv-x="568" vert-adv-y="1000"  />

      
      <glyph glyph-name="uni0109" unicode="&#x0109;" d="M303-10Q170-10 101.50 63.50Q33 137 33 278Q33 409 103 484.50Q173 560 295 560Q392 560 453.50 512.50Q515 465 526 382Q480 355 446 355Q432 355 423.50 363.50Q415 372 408 393Q395 436 367.50 456.50Q340 477 295 477Q230 477 193.50 424.50Q157 372 157 278Q157 178 194.50 126.50Q232 75 303 75Q355 75 387.50 105.50Q420 136 436 201Q477 201 496.50 183.50Q516 166 516 131Q516 94 486.50 61.50Q457 29 408 9.50Q359-10 303-10Z"  horiz-adv-x="568" vert-adv-y="1000"  />

      
      <glyph glyph-name="uni010B" unicode="&#x010B;" d="M303-10Q170-10 101.50 63.50Q33 137 33 278Q33 409 103 484.50Q173 560 295 560Q392 560 453.50 512.50Q515 465 526 382Q480 355 446 355Q432 355 423.50 363.50Q415 372 408 393Q395 436 367.50 456.50Q340 477 295 477Q230 477 193.50 424.50Q157 372 157 278Q157 178 194.50 126.50Q232 75 303 75Q355 75 387.50 105.50Q420 136 436 201Q477 201 496.50 183.50Q516 166 516 131Q516 94 486.50 61.50Q457 29 408 9.50Q359-10 303-10Z"  horiz-adv-x="568" vert-adv-y="1000"  />

      
      <glyph glyph-name="uni64" unicode="&#x64;" d="M527 181Q527 116 533 80.50Q539 45 554 21Q505-6 459-6Q439-6 427 10.50Q415 27 410 64Q382 26 345.50 8Q309-10 260-10Q153-10 93 64.50Q33 139 33 273Q33 361 63.50 425.50Q94 490 151 525Q208 560 285 560Q317 560 350 551Q383 542 406 527L406 791L527 791L527 181M278 73Q319 73 350 92.50Q381 112 406 154L406 440Q387 457 357 468Q327 479 296 479Q229 479 193 425.50Q157 372 157 273Q157 73 278 73Z"  horiz-adv-x="598" vert-adv-y="1000"  />

      
      <glyph glyph-name="unif0" unicode="&#xf0;" d="M394 689Q547 526 547 295Q547-12 294-12Q167-12 103.50 65Q40 142 40 268Q40 345 67.50 408.50Q95 472 152 509.50Q209 547 294 547Q333 547 360 538Q331 586 296 626L216 575L176 633L245 677Q209 709 172 734L258 801Q309 767 342 739L429 795L469 736L394 689M294 69Q363 69 393.50 116.50Q424 164 424 268Q424 367 393 416.50Q362 466 294 466Q226 466 194.50 417Q163 368 163 268Q163 164 194 116.50Q225 69 294 69Z"  horiz-adv-x="587" vert-adv-y="1000"  />

      
      <glyph glyph-name="uni010F" unicode="&#x010F;" d="M527 181Q527 116 533 80.50Q539 45 554 21Q505-6 459-6Q439-6 427 10.50Q415 27 410 64Q382 26 345.50 8Q309-10 260-10Q153-10 93 64.50Q33 139 33 273Q33 361 63.50 425.50Q94 490 151 525Q208 560 285 560Q317 560 350 551Q383 542 406 527L406 791L527 791L527 181M278 73Q319 73 350 92.50Q381 112 406 154L406 440Q387 457 357 468Q327 479 296 479Q229 479 193 425.50Q157 372 157 273Q157 73 278 73M614 476Q604 476 594 480Q584 484 577 489Q591 507 600.50 534Q610 561 610 587Q610 612 603 628Q596 644 582 655Q582 677 599 693.50Q616 710 644 710Q678 710 696.50 689Q715 668 715 629Q715 596 702.50 562Q690 528 671 506Q646 476 614 476Z"  horiz-adv-x="686" vert-adv-y="1000"  />

      
      <glyph glyph-name="uni0111" unicode="&#x0111;" d="M527 637L527 181Q527 116 533 80.50Q539 45 554 21Q505-6 459-6Q439-6 427 10.50Q415 27 410 64Q382 26 345.50 8Q309-10 260-10Q153-10 93 64.50Q33 139 33 273Q33 361 63.50 425.50Q94 490 151 525Q208 560 285 560Q317 560 350 551Q383 542 406 527L406 637L291 637L291 713L406 713L406 791L527 791L527 713L602 713L602 637L527 637M278 73Q319 73 350 92.50Q381 112 406 154L406 440Q387 457 357 468Q327 479 296 479Q229 479 193 425.50Q157 372 157 273Q157 73 278 73Z"  horiz-adv-x="602" vert-adv-y="1000"  />

      
      <glyph glyph-name="uni1E0D" unicode="&#x1E0D;" d="M527 181Q527 116 533 80.50Q539 45 554 21Q505-6 459-6Q439-6 427 10.50Q415 27 410 64Q382 26 345.50 8Q309-10 260-10Q153-10 93 64.50Q33 139 33 273Q33 361 63.50 425.50Q94 490 151 525Q208 560 285 560Q317 560 350 551Q383 542 406 527L406 791L527 791L527 181M278 73Q319 73 350 92.50Q381 112 406 154L406 440Q387 457 357 468Q327 479 296 479Q229 479 193 425.50Q157 372 157 273Q157 73 278 73M293-213Q226-213 226-146L226-133Q226-66 293-66L305-66Q372-66 372-133L372-146Q372-213 305-213L293-213Z"  horiz-adv-x="598" vert-adv-y="1000"  />

      
      <glyph glyph-name="uni1E0F" unicode="&#x1E0F;" d="M527 181Q527 116 533 80.50Q539 45 554 21Q505-6 459-6Q439-6 427 10.50Q415 27 410 64Q382 26 345.50 8Q309-10 260-10Q153-10 93 64.50Q33 139 33 273Q33 361 63.50 425.50Q94 490 151 525Q208 560 285 560Q317 560 350 551Q383 542 406 527L406 791L527 791L527 181M278 73Q319 73 350 92.50Q381 112 406 154L406 440Q387 457 357 468Q327 479 296 479Q229 479 193 425.50Q157 372 157 273Q157 73 278 73Z"  horiz-adv-x="598" vert-adv-y="1000"  />

      
      <glyph glyph-name="uni65" unicode="&#x65;" d="M540 312Q540 295 536 255L168 255Q173 169 208 122Q243 75 303 75Q344 75 370.50 91.50Q397 108 431 156Q437 165 452 165Q480 165 529 130Q501 62 442.50 26Q384-10 303-10Q182-10 112.50 66.50Q43 143 43 276Q43 408 113 484Q183 560 305 560Q417 560 478.50 495Q540 430 540 312M417 329Q417 478 302 478Q245 478 211.50 440.50Q178 403 170 329L417 329Z"  horiz-adv-x="573" vert-adv-y="1000"  />

      
      <glyph glyph-name="unie9" unicode="&#xe9;" d="M540 312Q540 295 536 255L168 255Q173 169 208 122Q243 75 303 75Q344 75 370.50 91.50Q397 108 431 156Q437 165 452 165Q480 165 529 130Q501 62 442.50 26Q384-10 303-10Q182-10 112.50 66.50Q43 143 43 276Q43 408 113 484Q183 560 305 560Q417 560 478.50 495Q540 430 540 312M417 329Q417 478 302 478Q245 478 211.50 440.50Q178 403 170 329L417 329Z"  horiz-adv-x="573" vert-adv-y="1000"  />

      
      <glyph glyph-name="uni0115" unicode="&#x0115;" d="M540 312Q540 295 536 255L168 255Q173 169 208 122Q243 75 303 75Q344 75 370.50 91.50Q397 108 431 156Q437 165 452 165Q480 165 529 130Q501 62 442.50 26Q384-10 303-10Q182-10 112.50 66.50Q43 143 43 276Q43 408 113 484Q183 560 305 560Q417 560 478.50 495Q540 430 540 312M417 329Q417 478 302 478Q245 478 211.50 440.50Q178 403 170 329L417 329Z"  horiz-adv-x="573" vert-adv-y="1000"  />

      
      <glyph glyph-name="uni011B" unicode="&#x011B;" d="M540 312Q540 295 536 255L168 255Q173 169 208 122Q243 75 303 75Q344 75 370.50 91.50Q397 108 431 156Q437 165 452 165Q480 165 529 130Q501 62 442.50 26Q384-10 303-10Q182-10 112.50 66.50Q43 143 43 276Q43 408 113 484Q183 560 305 560Q417 560 478.50 495Q540 430 540 312M417 329Q417 478 302 478Q245 478 211.50 440.50Q178 403 170 329L417 329Z"  horiz-adv-x="573" vert-adv-y="1000"  />

      
      <glyph glyph-name="uniea" unicode="&#xea;" d="M540 312Q540 295 536 255L168 255Q173 169 208 122Q243 75 303 75Q344 75 370.50 91.50Q397 108 431 156Q437 165 452 165Q480 165 529 130Q501 62 442.50 26Q384-10 303-10Q182-10 112.50 66.50Q43 143 43 276Q43 408 113 484Q183 560 305 560Q417 560 478.50 495Q540 430 540 312M417 329Q417 478 302 478Q245 478 211.50 440.50Q178 403 170 329L417 329Z"  horiz-adv-x="573" vert-adv-y="1000"  />

      
      <glyph glyph-name="uni1EBF" unicode="&#x1EBF;" d="M540 312Q540 295 536 255L168 255Q173 169 208 122Q243 75 303 75Q344 75 370.50 91.50Q397 108 431 156Q437 165 452 165Q480 165 529 130Q501 62 442.50 26Q384-10 303-10Q182-10 112.50 66.50Q43 143 43 276Q43 408 113 484Q183 560 305 560Q417 560 478.50 495Q540 430 540 312M417 329Q417 478 302 478Q245 478 211.50 440.50Q178 403 170 329L417 329Z"  horiz-adv-x="573" vert-adv-y="1000"  />

      
      <glyph glyph-name="uni1EC7" unicode="&#x1EC7;" d="M540 312Q540 295 536 255L168 255Q173 169 208 122Q243 75 303 75Q344 75 370.50 91.50Q397 108 431 156Q437 165 452 165Q480 165 529 130Q501 62 442.50 26Q384-10 303-10Q182-10 112.50 66.50Q43 143 43 276Q43 408 113 484Q183 560 305 560Q417 560 478.50 495Q540 430 540 312M417 329Q417 478 302 478Q245 478 211.50 440.50Q178 403 170 329L417 329M291-213Q224-213 224-146L224-133Q224-66 291-66L303-66Q370-66 370-133L370-146Q370-213 303-213L291-213Z"  horiz-adv-x="573" vert-adv-y="1000"  />

      
      <glyph glyph-name="uni1EC1" unicode="&#x1EC1;" d="M540 312Q540 295 536 255L168 255Q173 169 208 122Q243 75 303 75Q344 75 370.50 91.50Q397 108 431 156Q437 165 452 165Q480 165 529 130Q501 62 442.50 26Q384-10 303-10Q182-10 112.50 66.50Q43 143 43 276Q43 408 113 484Q183 560 305 560Q417 560 478.50 495Q540 430 540 312M417 329Q417 478 302 478Q245 478 211.50 440.50Q178 403 170 329L417 329Z"  horiz-adv-x="573" vert-adv-y="1000"  />

      
      <glyph glyph-name="uni1EC3" unicode="&#x1EC3;" d="M540 312Q540 295 536 255L168 255Q173 169 208 122Q243 75 303 75Q344 75 370.50 91.50Q397 108 431 156Q437 165 452 165Q480 165 529 130Q501 62 442.50 26Q384-10 303-10Q182-10 112.50 66.50Q43 143 43 276Q43 408 113 484Q183 560 305 560Q417 560 478.50 495Q540 430 540 312M417 329Q417 478 302 478Q245 478 211.50 440.50Q178 403 170 329L417 329Z"  horiz-adv-x="573" vert-adv-y="1000"  />

      
      <glyph glyph-name="uni1EC5" unicode="&#x1EC5;" d="M540 312Q540 295 536 255L168 255Q173 169 208 122Q243 75 303 75Q344 75 370.50 91.50Q397 108 431 156Q437 165 452 165Q480 165 529 130Q501 62 442.50 26Q384-10 303-10Q182-10 112.50 66.50Q43 143 43 276Q43 408 113 484Q183 560 305 560Q417 560 478.50 495Q540 430 540 312M417 329Q417 478 302 478Q245 478 211.50 440.50Q178 403 170 329L417 329Z"  horiz-adv-x="573" vert-adv-y="1000"  />

      
      <glyph glyph-name="unieb" unicode="&#xeb;" d="M540 312Q540 295 536 255L168 255Q173 169 208 122Q243 75 303 75Q344 75 370.50 91.50Q397 108 431 156Q437 165 452 165Q480 165 529 130Q501 62 442.50 26Q384-10 303-10Q182-10 112.50 66.50Q43 143 43 276Q43 408 113 484Q183 560 305 560Q417 560 478.50 495Q540 430 540 312M417 329Q417 478 302 478Q245 478 211.50 440.50Q178 403 170 329L417 329Z"  horiz-adv-x="573" vert-adv-y="1000"  />

      
      <glyph glyph-name="uni0117" unicode="&#x0117;" d="M540 312Q540 295 536 255L168 255Q173 169 208 122Q243 75 303 75Q344 75 370.50 91.50Q397 108 431 156Q437 165 452 165Q480 165 529 130Q501 62 442.50 26Q384-10 303-10Q182-10 112.50 66.50Q43 143 43 276Q43 408 113 484Q183 560 305 560Q417 560 478.50 495Q540 430 540 312M417 329Q417 478 302 478Q245 478 211.50 440.50Q178 403 170 329L417 329Z"  horiz-adv-x="573" vert-adv-y="1000"  />

      
      <glyph glyph-name="uni1EB9" unicode="&#x1EB9;" d="M540 312Q540 295 536 255L168 255Q173 169 208 122Q243 75 303 75Q344 75 370.50 91.50Q397 108 431 156Q437 165 452 165Q480 165 529 130Q501 62 442.50 26Q384-10 303-10Q182-10 112.50 66.50Q43 143 43 276Q43 408 113 484Q183 560 305 560Q417 560 478.50 495Q540 430 540 312M417 329Q417 478 302 478Q245 478 211.50 440.50Q178 403 170 329L417 329M291-213Q224-213 224-146L224-133Q224-66 291-66L303-66Q370-66 370-133L370-146Q370-213 303-213L291-213Z"  horiz-adv-x="573" vert-adv-y="1000"  />

      
      <glyph glyph-name="unie8" unicode="&#xe8;" d="M540 312Q540 295 536 255L168 255Q173 169 208 122Q243 75 303 75Q344 75 370.50 91.50Q397 108 431 156Q437 165 452 165Q480 165 529 130Q501 62 442.50 26Q384-10 303-10Q182-10 112.50 66.50Q43 143 43 276Q43 408 113 484Q183 560 305 560Q417 560 478.50 495Q540 430 540 312M417 329Q417 478 302 478Q245 478 211.50 440.50Q178 403 170 329L417 329Z"  horiz-adv-x="573" vert-adv-y="1000"  />

      
      </font>
</defs>
</svg>
