<?xml version="1.0" standalone="no"?>
  <!DOCTYPE svg PUBLIC "-//W3C//DTD SVG 1.1//EN" "http://www.w3.org/Graphics/SVG/1.1/DTD/svg11.dtd" >
  <svg>
  <metadata>
  Created by font-carrier
  </metadata>
  <defs>
  <font id="Krub-Regular" horiz-adv-x="1207" vert-adv-y="1207" >
    <font-face
      
      font-family="Krub"
      
      font-weight="400"
      
      font-stretch="normal"
      
      units-per-em="1000"
      
      ascent="1007"
      
      descent="-293"
      
    />
      <missing-glyph />

      

      
      <glyph glyph-name="uni41" unicode="&#x41;" d="M531 0Q504 124 480 203L140 203Q116 124 89 0L15 0Q67 214 128 380.50Q189 547 273 700L348 700Q431 548 492 381.50Q553 215 605 0L531 0M463 263Q402 457 310 627Q218 457 157 263L463 263Z"  horiz-adv-x="620" vert-adv-y="1000"  />

      
      <glyph glyph-name="unic1" unicode="&#xc1;" d="M531 0Q504 124 480 203L140 203Q116 124 89 0L15 0Q67 214 128 380.50Q189 547 273 700L348 700Q431 548 492 381.50Q553 215 605 0L531 0M463 263Q402 457 310 627Q218 457 157 263L463 263Z"  horiz-adv-x="620" vert-adv-y="1000"  />

      
      <glyph glyph-name="uni0102" unicode="&#x0102;" d="M531 0Q504 124 480 203L140 203Q116 124 89 0L15 0Q67 214 128 380.50Q189 547 273 700L348 700Q431 548 492 381.50Q553 215 605 0L531 0M463 263Q402 457 310 627Q218 457 157 263L463 263Z"  horiz-adv-x="620" vert-adv-y="1000"  />

      
      <glyph glyph-name="uni1EAE" unicode="&#x1EAE;" d="M531 0Q504 124 480 203L140 203Q116 124 89 0L15 0Q67 214 128 380.50Q189 547 273 700L348 700Q431 548 492 381.50Q553 215 605 0L531 0M463 263Q402 457 310 627Q218 457 157 263L463 263Z"  horiz-adv-x="620" vert-adv-y="1000"  />

      
      <glyph glyph-name="uni1EB6" unicode="&#x1EB6;" d="M531 0Q504 124 480 203L140 203Q116 124 89 0L15 0Q67 214 128 380.50Q189 547 273 700L348 700Q431 548 492 381.50Q553 215 605 0L531 0M463 263Q402 457 310 627Q218 457 157 263L463 263M306-179Q261-179 261-134L261-125Q261-80 306-80L314-80Q359-80 359-125L359-134Q359-179 314-179L306-179Z"  horiz-adv-x="620" vert-adv-y="1000"  />

      
      <glyph glyph-name="uni1EB0" unicode="&#x1EB0;" d="M531 0Q504 124 480 203L140 203Q116 124 89 0L15 0Q67 214 128 380.50Q189 547 273 700L348 700Q431 548 492 381.50Q553 215 605 0L531 0M463 263Q402 457 310 627Q218 457 157 263L463 263Z"  horiz-adv-x="620" vert-adv-y="1000"  />

      
      <glyph glyph-name="uni1EB2" unicode="&#x1EB2;" d="M531 0Q504 124 480 203L140 203Q116 124 89 0L15 0Q67 214 128 380.50Q189 547 273 700L348 700Q431 548 492 381.50Q553 215 605 0L531 0M463 263Q402 457 310 627Q218 457 157 263L463 263Z"  horiz-adv-x="620" vert-adv-y="1000"  />

      
      <glyph glyph-name="uni1EB4" unicode="&#x1EB4;" d="M531 0Q504 124 480 203L140 203Q116 124 89 0L15 0Q67 214 128 380.50Q189 547 273 700L348 700Q431 548 492 381.50Q553 215 605 0L531 0M463 263Q402 457 310 627Q218 457 157 263L463 263Z"  horiz-adv-x="620" vert-adv-y="1000"  />

      
      <glyph glyph-name="uni01CD" unicode="&#x01CD;" d="M531 0Q504 124 480 203L140 203Q116 124 89 0L15 0Q67 214 128 380.50Q189 547 273 700L348 700Q431 548 492 381.50Q553 215 605 0L531 0M463 263Q402 457 310 627Q218 457 157 263L463 263Z"  horiz-adv-x="620" vert-adv-y="1000"  />

      
      <glyph glyph-name="unic2" unicode="&#xc2;" d="M531 0Q504 124 480 203L140 203Q116 124 89 0L15 0Q67 214 128 380.50Q189 547 273 700L348 700Q431 548 492 381.50Q553 215 605 0L531 0M463 263Q402 457 310 627Q218 457 157 263L463 263Z"  horiz-adv-x="620" vert-adv-y="1000"  />

      
      <glyph glyph-name="uni1EA4" unicode="&#x1EA4;" d="M531 0Q504 124 480 203L140 203Q116 124 89 0L15 0Q67 214 128 380.50Q189 547 273 700L348 700Q431 548 492 381.50Q553 215 605 0L531 0M463 263Q402 457 310 627Q218 457 157 263L463 263Z"  horiz-adv-x="620" vert-adv-y="1000"  />

      
      <glyph glyph-name="uni1EAC" unicode="&#x1EAC;" d="M531 0Q504 124 480 203L140 203Q116 124 89 0L15 0Q67 214 128 380.50Q189 547 273 700L348 700Q431 548 492 381.50Q553 215 605 0L531 0M463 263Q402 457 310 627Q218 457 157 263L463 263M306-179Q261-179 261-134L261-125Q261-80 306-80L314-80Q359-80 359-125L359-134Q359-179 314-179L306-179Z"  horiz-adv-x="620" vert-adv-y="1000"  />

      
      <glyph glyph-name="uni1EA6" unicode="&#x1EA6;" d="M531 0Q504 124 480 203L140 203Q116 124 89 0L15 0Q67 214 128 380.50Q189 547 273 700L348 700Q431 548 492 381.50Q553 215 605 0L531 0M463 263Q402 457 310 627Q218 457 157 263L463 263Z"  horiz-adv-x="620" vert-adv-y="1000"  />

      
      <glyph glyph-name="uni1EA8" unicode="&#x1EA8;" d="M531 0Q504 124 480 203L140 203Q116 124 89 0L15 0Q67 214 128 380.50Q189 547 273 700L348 700Q431 548 492 381.50Q553 215 605 0L531 0M463 263Q402 457 310 627Q218 457 157 263L463 263Z"  horiz-adv-x="620" vert-adv-y="1000"  />

      
      <glyph glyph-name="uni1EAA" unicode="&#x1EAA;" d="M531 0Q504 124 480 203L140 203Q116 124 89 0L15 0Q67 214 128 380.50Q189 547 273 700L348 700Q431 548 492 381.50Q553 215 605 0L531 0M463 263Q402 457 310 627Q218 457 157 263L463 263Z"  horiz-adv-x="620" vert-adv-y="1000"  />

      
      <glyph glyph-name="unic4" unicode="&#xc4;" d="M531 0Q504 124 480 203L140 203Q116 124 89 0L15 0Q67 214 128 380.50Q189 547 273 700L348 700Q431 548 492 381.50Q553 215 605 0L531 0M463 263Q402 457 310 627Q218 457 157 263L463 263Z"  horiz-adv-x="620" vert-adv-y="1000"  />

      
      <glyph glyph-name="uni1EA0" unicode="&#x1EA0;" d="M531 0Q504 124 480 203L140 203Q116 124 89 0L15 0Q67 214 128 380.50Q189 547 273 700L348 700Q431 548 492 381.50Q553 215 605 0L531 0M463 263Q402 457 310 627Q218 457 157 263L463 263M306-179Q261-179 261-134L261-125Q261-80 306-80L314-80Q359-80 359-125L359-134Q359-179 314-179L306-179Z"  horiz-adv-x="620" vert-adv-y="1000"  />

      
      <glyph glyph-name="unic0" unicode="&#xc0;" d="M531 0Q504 124 480 203L140 203Q116 124 89 0L15 0Q67 214 128 380.50Q189 547 273 700L348 700Q431 548 492 381.50Q553 215 605 0L531 0M463 263Q402 457 310 627Q218 457 157 263L463 263Z"  horiz-adv-x="620" vert-adv-y="1000"  />

      
      <glyph glyph-name="uni1EA2" unicode="&#x1EA2;" d="M531 0Q504 124 480 203L140 203Q116 124 89 0L15 0Q67 214 128 380.50Q189 547 273 700L348 700Q431 548 492 381.50Q553 215 605 0L531 0M463 263Q402 457 310 627Q218 457 157 263L463 263M320 725Q307 725 295 733Q283 741 283 752Q320 772 335.50 794Q351 816 351 845Q351 867 339.50 879.50Q328 892 307 892Q286 892 273.50 879Q261 866 253 844Q238 844 228 852.50Q218 861 218 874Q218 901 243.50 921.50Q269 942 309 942Q354 942 381.50 917.50Q409 893 409 848Q409 768 320 725Z"  horiz-adv-x="620" vert-adv-y="1000"  />

      
      <glyph glyph-name="uni0100" unicode="&#x0100;" d="M531 0Q504 124 480 203L140 203Q116 124 89 0L15 0Q67 214 128 380.50Q189 547 273 700L348 700Q431 548 492 381.50Q553 215 605 0L531 0M463 263Q402 457 310 627Q218 457 157 263L463 263Z"  horiz-adv-x="620" vert-adv-y="1000"  />

      
      <glyph glyph-name="uni0104" unicode="&#x0104;" d="M531 0Q504 124 480 203L140 203Q116 124 89 0L15 0Q67 214 128 380.50Q189 547 273 700L348 700Q431 548 492 381.50Q553 215 605 0L531 0M463 263Q402 457 310 627Q218 457 157 263L463 263Z"  horiz-adv-x="620" vert-adv-y="1000"  />

      
      <glyph glyph-name="unic5" unicode="&#xc5;" d="M531 0Q504 124 480 203L140 203Q116 124 89 0L15 0Q67 214 128 380.50Q189 547 273 700L348 700Q431 548 492 381.50Q553 215 605 0L531 0M463 263Q402 457 310 627Q218 457 157 263L463 263Z"  horiz-adv-x="620" vert-adv-y="1000"  />

      
      <glyph glyph-name="uni01FA" unicode="&#x01FA;" d="M531 0Q504 124 480 203L140 203Q116 124 89 0L15 0Q67 214 128 380.50Q189 547 273 700L348 700Q431 548 492 381.50Q553 215 605 0L531 0M463 263Q402 457 310 627Q218 457 157 263L463 263Z"  horiz-adv-x="620" vert-adv-y="1000"  />

      
      <glyph glyph-name="unic3" unicode="&#xc3;" d="M531 0Q504 124 480 203L140 203Q116 124 89 0L15 0Q67 214 128 380.50Q189 547 273 700L348 700Q431 548 492 381.50Q553 215 605 0L531 0M463 263Q402 457 310 627Q218 457 157 263L463 263Z"  horiz-adv-x="620" vert-adv-y="1000"  />

      
      <glyph glyph-name="unic6" unicode="&#xc6;" d="M535 640L535 403L832 403L832 343L535 343L535 60L870 60Q870 24 859.50 12Q849 0 818 0L470 0L470 206L152 206Q107 96 89 0L15 0Q53 188 159 373.50Q265 559 425 700L875 700L875 640L535 640M470 266L470 640L461 640Q379 571 306 473.50Q233 376 180 266L470 266Z"  horiz-adv-x="930" vert-adv-y="1000"  />

      
      <glyph glyph-name="uni01FC" unicode="&#x01FC;" d="M535 640L535 403L832 403L832 343L535 343L535 60L870 60Q870 24 859.50 12Q849 0 818 0L470 0L470 206L152 206Q107 96 89 0L15 0Q53 188 159 373.50Q265 559 425 700L875 700L875 640L535 640M470 266L470 640L461 640Q379 571 306 473.50Q233 376 180 266L470 266Z"  horiz-adv-x="930" vert-adv-y="1000"  />

      
      <glyph glyph-name="uni42" unicode="&#x42;" d="M447 361Q502 346 537 300Q572 254 572 194Q572 101 508 50.50Q444 0 326 0L86 0L86 700L316 700Q420 700 480 650.50Q540 601 540 516Q540 463 514.50 421Q489 379 447 361M468 516Q468 574 427.50 607Q387 640 316 640L158 640L158 385L313 385Q468 385 468 516M316 60Q414 60 457 91.50Q500 123 500 194Q500 264 455.50 296Q411 328 314 328L158 328L158 60L316 60Z"  horiz-adv-x="615" vert-adv-y="1000"  />

      
      <glyph glyph-name="uni43" unicode="&#x43;" d="M352-10Q209-10 130.50 84Q52 178 52 350Q52 523 130 616.50Q208 710 352 710Q410 710 460 690.50Q510 671 546 633Q540 614 529 604Q518 594 504 594Q490 594 478 603Q424 645 350 645Q240 645 183 570Q126 495 126 350Q126 206 183 131Q240 56 350 56Q397 56 434.50 69Q472 82 509 112Q522 111 531 101.50Q540 92 540 78Q540 55 513.50 35Q487 15 443.50 2.50Q400-10 352-10Z"  horiz-adv-x="596" vert-adv-y="1000"  />

      
      <glyph glyph-name="uni0106" unicode="&#x0106;" d="M352-10Q209-10 130.50 84Q52 178 52 350Q52 523 130 616.50Q208 710 352 710Q410 710 460 690.50Q510 671 546 633Q540 614 529 604Q518 594 504 594Q490 594 478 603Q424 645 350 645Q240 645 183 570Q126 495 126 350Q126 206 183 131Q240 56 350 56Q397 56 434.50 69Q472 82 509 112Q522 111 531 101.50Q540 92 540 78Q540 55 513.50 35Q487 15 443.50 2.50Q400-10 352-10Z"  horiz-adv-x="596" vert-adv-y="1000"  />

      
      <glyph glyph-name="uni010C" unicode="&#x010C;" d="M352-10Q209-10 130.50 84Q52 178 52 350Q52 523 130 616.50Q208 710 352 710Q410 710 460 690.50Q510 671 546 633Q540 614 529 604Q518 594 504 594Q490 594 478 603Q424 645 350 645Q240 645 183 570Q126 495 126 350Q126 206 183 131Q240 56 350 56Q397 56 434.50 69Q472 82 509 112Q522 111 531 101.50Q540 92 540 78Q540 55 513.50 35Q487 15 443.50 2.50Q400-10 352-10Z"  horiz-adv-x="596" vert-adv-y="1000"  />

      
      <glyph glyph-name="unic7" unicode="&#xc7;" d="M509 112Q522 111 531 101.50Q540 92 540 78Q540 47 492.50 21.50Q445-4 379-9L341-55L348-55Q390-55 416-76Q442-97 442-136Q442-180 407-204.50Q372-229 321-229Q276-229 252-218Q228-207 228-187Q228-181 231-173Q272-184 315-184Q345-184 362-171.50Q379-159 379-138Q379-123 365.50-111.50Q352-100 328-100Q309-100 288-107L271-75L321-9Q192 2 122 95Q52 188 52 350Q52 523 130 616.50Q208 710 352 710Q410 710 460 690.50Q510 671 546 633Q540 614 529 604Q518 594 504 594Q490 594 478 603Q424 645 350 645Q240 645 183 570Q126 495 126 350Q126 206 183 131Q240 56 350 56Q397 56 434.50 69Q472 82 509 112Z"  horiz-adv-x="596" vert-adv-y="1000"  />

      
      <glyph glyph-name="uni0108" unicode="&#x0108;" d="M352-10Q209-10 130.50 84Q52 178 52 350Q52 523 130 616.50Q208 710 352 710Q410 710 460 690.50Q510 671 546 633Q540 614 529 604Q518 594 504 594Q490 594 478 603Q424 645 350 645Q240 645 183 570Q126 495 126 350Q126 206 183 131Q240 56 350 56Q397 56 434.50 69Q472 82 509 112Q522 111 531 101.50Q540 92 540 78Q540 55 513.50 35Q487 15 443.50 2.50Q400-10 352-10Z"  horiz-adv-x="596" vert-adv-y="1000"  />

      
      <glyph glyph-name="uni010A" unicode="&#x010A;" d="M352-10Q209-10 130.50 84Q52 178 52 350Q52 523 130 616.50Q208 710 352 710Q410 710 460 690.50Q510 671 546 633Q540 614 529 604Q518 594 504 594Q490 594 478 603Q424 645 350 645Q240 645 183 570Q126 495 126 350Q126 206 183 131Q240 56 350 56Q397 56 434.50 69Q472 82 509 112Q522 111 531 101.50Q540 92 540 78Q540 55 513.50 35Q487 15 443.50 2.50Q400-10 352-10Z"  horiz-adv-x="596" vert-adv-y="1000"  />

      
      <glyph glyph-name="uni44" unicode="&#x44;" d="M293 700Q448 700 531.50 609.50Q615 519 615 350Q615 242 576.50 163Q538 84 465.50 42Q393 0 293 0L86 0L86 700L293 700M293 60Q415 60 478 133.50Q541 207 541 349Q541 496 479.50 568Q418 640 293 640L158 640L158 60L293 60Z"  horiz-adv-x="672" vert-adv-y="1000"  />

      
      <glyph glyph-name="unid0" unicode="&#xd0;" d="M293 700Q448 700 531.50 609.50Q615 519 615 350Q615 242 576.50 163Q538 84 465.50 42Q393 0 293 0L86 0L86 327L1 327L1 384L86 384L86 700L293 700M293 60Q415 60 478 133.50Q541 207 541 349Q541 496 479.50 568Q418 640 293 640L158 640L158 384L346 384L346 327L158 327L158 60L293 60Z"  horiz-adv-x="672" vert-adv-y="1000"  />

      
      <glyph glyph-name="uni010E" unicode="&#x010E;" d="M293 700Q448 700 531.50 609.50Q615 519 615 350Q615 242 576.50 163Q538 84 465.50 42Q393 0 293 0L86 0L86 700L293 700M293 60Q415 60 478 133.50Q541 207 541 349Q541 496 479.50 568Q418 640 293 640L158 640L158 60L293 60Z"  horiz-adv-x="672" vert-adv-y="1000"  />

      
      <glyph glyph-name="uni0110" unicode="&#x0110;" d="M293 700Q448 700 531.50 609.50Q615 519 615 350Q615 242 576.50 163Q538 84 465.50 42Q393 0 293 0L86 0L86 327L1 327L1 384L86 384L86 700L293 700M293 60Q415 60 478 133.50Q541 207 541 349Q541 496 479.50 568Q418 640 293 640L158 640L158 384L346 384L346 327L158 327L158 60L293 60Z"  horiz-adv-x="672" vert-adv-y="1000"  />

      
      <glyph glyph-name="uni1E0C" unicode="&#x1E0C;" d="M293 700Q448 700 531.50 609.50Q615 519 615 350Q615 242 576.50 163Q538 84 465.50 42Q393 0 293 0L86 0L86 700L293 700M293 60Q415 60 478 133.50Q541 207 541 349Q541 496 479.50 568Q418 640 293 640L158 640L158 60L293 60M332-179Q287-179 287-134L287-125Q287-80 332-80L340-80Q385-80 385-125L385-134Q385-179 340-179L332-179Z"  horiz-adv-x="672" vert-adv-y="1000"  />

      
      <glyph glyph-name="uni1E0E" unicode="&#x1E0E;" d="M293 700Q448 700 531.50 609.50Q615 519 615 350Q615 242 576.50 163Q538 84 465.50 42Q393 0 293 0L86 0L86 700L293 700M293 60Q415 60 478 133.50Q541 207 541 349Q541 496 479.50 568Q418 640 293 640L158 640L158 60L293 60Z"  horiz-adv-x="672" vert-adv-y="1000"  />

      
      <glyph glyph-name="uni45" unicode="&#x45;" d="M505 60Q505 24 494.50 12Q484 0 453 0L86 0L86 700L504 700L504 640L158 640L158 388L456 388L456 328L158 328L158 60L505 60Z"  horiz-adv-x="560" vert-adv-y="1000"  />

      
      <glyph glyph-name="unic9" unicode="&#xc9;" d="M505 60Q505 24 494.50 12Q484 0 453 0L86 0L86 700L504 700L504 640L158 640L158 388L456 388L456 328L158 328L158 60L505 60Z"  horiz-adv-x="560" vert-adv-y="1000"  />

      
      <glyph glyph-name="uni0114" unicode="&#x0114;" d="M505 60Q505 24 494.50 12Q484 0 453 0L86 0L86 700L504 700L504 640L158 640L158 388L456 388L456 328L158 328L158 60L505 60Z"  horiz-adv-x="560" vert-adv-y="1000"  />

      
      <glyph glyph-name="uni011A" unicode="&#x011A;" d="M505 60Q505 24 494.50 12Q484 0 453 0L86 0L86 700L504 700L504 640L158 640L158 388L456 388L456 328L158 328L158 60L505 60Z"  horiz-adv-x="560" vert-adv-y="1000"  />

      
      <glyph glyph-name="unica" unicode="&#xca;" d="M505 60Q505 24 494.50 12Q484 0 453 0L86 0L86 700L504 700L504 640L158 640L158 388L456 388L456 328L158 328L158 60L505 60Z"  horiz-adv-x="560" vert-adv-y="1000"  />

      
      <glyph glyph-name="uni1EBE" unicode="&#x1EBE;" d="M505 60Q505 24 494.50 12Q484 0 453 0L86 0L86 700L504 700L504 640L158 640L158 388L456 388L456 328L158 328L158 60L505 60Z"  horiz-adv-x="560" vert-adv-y="1000"  />

      
      <glyph glyph-name="uni1EC6" unicode="&#x1EC6;" d="M505 60Q505 24 494.50 12Q484 0 453 0L86 0L86 700L504 700L504 640L158 640L158 388L456 388L456 328L158 328L158 60L505 60M276-179Q231-179 231-134L231-125Q231-80 276-80L284-80Q329-80 329-125L329-134Q329-179 284-179L276-179Z"  horiz-adv-x="560" vert-adv-y="1000"  />

      
      <glyph glyph-name="uni1EC0" unicode="&#x1EC0;" d="M505 60Q505 24 494.50 12Q484 0 453 0L86 0L86 700L504 700L504 640L158 640L158 388L456 388L456 328L158 328L158 60L505 60Z"  horiz-adv-x="560" vert-adv-y="1000"  />

      
      <glyph glyph-name="uni1EC2" unicode="&#x1EC2;" d="M505 60Q505 24 494.50 12Q484 0 453 0L86 0L86 700L504 700L504 640L158 640L158 388L456 388L456 328L158 328L158 60L505 60Z"  horiz-adv-x="560" vert-adv-y="1000"  />

      
      <glyph glyph-name="uni1EC4" unicode="&#x1EC4;" d="M505 60Q505 24 494.50 12Q484 0 453 0L86 0L86 700L504 700L504 640L158 640L158 388L456 388L456 328L158 328L158 60L505 60Z"  horiz-adv-x="560" vert-adv-y="1000"  />

      
      <glyph glyph-name="unicb" unicode="&#xcb;" d="M505 60Q505 24 494.50 12Q484 0 453 0L86 0L86 700L504 700L504 640L158 640L158 388L456 388L456 328L158 328L158 60L505 60Z"  horiz-adv-x="560" vert-adv-y="1000"  />

      
      <glyph glyph-name="uni0116" unicode="&#x0116;" d="M505 60Q505 24 494.50 12Q484 0 453 0L86 0L86 700L504 700L504 640L158 640L158 388L456 388L456 328L158 328L158 60L505 60Z"  horiz-adv-x="560" vert-adv-y="1000"  />

      
      <glyph glyph-name="uni1EB8" unicode="&#x1EB8;" d="M505 60Q505 24 494.50 12Q484 0 453 0L86 0L86 700L504 700L504 640L158 640L158 388L456 388L456 328L158 328L158 60L505 60M276-179Q231-179 231-134L231-125Q231-80 276-80L284-80Q329-80 329-125L329-134Q329-179 284-179L276-179Z"  horiz-adv-x="560" vert-adv-y="1000"  />

      
      <glyph glyph-name="unic8" unicode="&#xc8;" d="M505 60Q505 24 494.50 12Q484 0 453 0L86 0L86 700L504 700L504 640L158 640L158 388L456 388L456 328L158 328L158 60L505 60Z"  horiz-adv-x="560" vert-adv-y="1000"  />

      
      <glyph glyph-name="uni1EBA" unicode="&#x1EBA;" d="M505 60Q505 24 494.50 12Q484 0 453 0L86 0L86 700L504 700L504 640L158 640L158 388L456 388L456 328L158 328L158 60L505 60M290 725Q277 725 265 733Q253 741 253 752Q290 772 305.50 794Q321 816 321 845Q321 867 309.50 879.50Q298 892 277 892Q256 892 243.50 879Q231 866 223 844Q208 844 198 852.50Q188 861 188 874Q188 901 213.50 921.50Q239 942 279 942Q324 942 351.50 917.50Q379 893 379 848Q379 768 290 725Z"  horiz-adv-x="560" vert-adv-y="1000"  />

      
      <glyph glyph-name="uni0112" unicode="&#x0112;" d="M505 60Q505 24 494.50 12Q484 0 453 0L86 0L86 700L504 700L504 640L158 640L158 388L456 388L456 328L158 328L158 60L505 60Z"  horiz-adv-x="560" vert-adv-y="1000"  />

      
      <glyph glyph-name="uni0118" unicode="&#x0118;" d="M525-146Q531-155 531-166Q531-180 513-190Q495-200 462-200Q415-200 386.50-175.50Q358-151 358-112Q358-74 377.50-47.50Q397-21 432 0L86 0L86 700L504 700L504 640L158 640L158 388L456 388L456 328L158 328L158 60L505 60Q505 35 500.50 22Q496 9 484 4Q453-18 436-46Q419-74 419-104Q419-129 433-142.50Q447-156 472-156Q502-156 525-146Z"  horiz-adv-x="560" vert-adv-y="1000"  />

      
      <glyph glyph-name="uni1EBC" unicode="&#x1EBC;" d="M505 60Q505 24 494.50 12Q484 0 453 0L86 0L86 700L504 700L504 640L158 640L158 388L456 388L456 328L158 328L158 60L505 60Z"  horiz-adv-x="560" vert-adv-y="1000"  />

      
      <glyph glyph-name="uni46" unicode="&#x46;" d="M158 640L158 393L455 393L455 333L158 333L158 0L86 0L86 700L498 700L498 640L158 640Z"  horiz-adv-x="530" vert-adv-y="1000"  />

      
      <glyph glyph-name="uni47" unicode="&#x47;" d="M604 373L604 73Q567 35 505.50 12.50Q444-10 377-10Q222-10 142 81.50Q62 173 62 350Q62 523 143.50 616.50Q225 710 377 710Q448 710 509 683.50Q570 657 601 613Q581 578 557 578Q541 578 524 592Q490 621 455 634Q420 647 376 647Q258 647 197 571.50Q136 496 136 350Q136 200 195.50 126.50Q255 53 376 53Q426 53 469 66Q512 79 532 101L532 311L391 311Q371 311 362.50 325Q354 339 354 373L604 373Z"  horiz-adv-x="666" vert-adv-y="1000"  />

      
      <glyph glyph-name="uni011E" unicode="&#x011E;" d="M604 373L604 73Q567 35 505.50 12.50Q444-10 377-10Q222-10 142 81.50Q62 173 62 350Q62 523 143.50 616.50Q225 710 377 710Q448 710 509 683.50Q570 657 601 613Q581 578 557 578Q541 578 524 592Q490 621 455 634Q420 647 376 647Q258 647 197 571.50Q136 496 136 350Q136 200 195.50 126.50Q255 53 376 53Q426 53 469 66Q512 79 532 101L532 311L391 311Q371 311 362.50 325Q354 339 354 373L604 373Z"  horiz-adv-x="666" vert-adv-y="1000"  />

      
      <glyph glyph-name="uni01E6" unicode="&#x01E6;" d="M604 373L604 73Q567 35 505.50 12.50Q444-10 377-10Q222-10 142 81.50Q62 173 62 350Q62 523 143.50 616.50Q225 710 377 710Q448 710 509 683.50Q570 657 601 613Q581 578 557 578Q541 578 524 592Q490 621 455 634Q420 647 376 647Q258 647 197 571.50Q136 496 136 350Q136 200 195.50 126.50Q255 53 376 53Q426 53 469 66Q512 79 532 101L532 311L391 311Q371 311 362.50 325Q354 339 354 373L604 373Z"  horiz-adv-x="666" vert-adv-y="1000"  />

      
      <glyph glyph-name="uni011C" unicode="&#x011C;" d="M604 373L604 73Q567 35 505.50 12.50Q444-10 377-10Q222-10 142 81.50Q62 173 62 350Q62 523 143.50 616.50Q225 710 377 710Q448 710 509 683.50Q570 657 601 613Q581 578 557 578Q541 578 524 592Q490 621 455 634Q420 647 376 647Q258 647 197 571.50Q136 496 136 350Q136 200 195.50 126.50Q255 53 376 53Q426 53 469 66Q512 79 532 101L532 311L391 311Q371 311 362.50 325Q354 339 354 373L604 373Z"  horiz-adv-x="666" vert-adv-y="1000"  />

      
      <glyph glyph-name="uni0122" unicode="&#x0122;" d="M604 373L604 73Q567 35 505.50 12.50Q444-10 377-10Q222-10 142 81.50Q62 173 62 350Q62 523 143.50 616.50Q225 710 377 710Q448 710 509 683.50Q570 657 601 613Q581 578 557 578Q541 578 524 592Q490 621 455 634Q420 647 376 647Q258 647 197 571.50Q136 496 136 350Q136 200 195.50 126.50Q255 53 376 53Q426 53 469 66Q512 79 532 101L532 311L391 311Q371 311 362.50 325Q354 339 354 373L604 373Z"  horiz-adv-x="666" vert-adv-y="1000"  />

      
      <glyph glyph-name="uni0120" unicode="&#x0120;" d="M604 373L604 73Q567 35 505.50 12.50Q444-10 377-10Q222-10 142 81.50Q62 173 62 350Q62 523 143.50 616.50Q225 710 377 710Q448 710 509 683.50Q570 657 601 613Q581 578 557 578Q541 578 524 592Q490 621 455 634Q420 647 376 647Q258 647 197 571.50Q136 496 136 350Q136 200 195.50 126.50Q255 53 376 53Q426 53 469 66Q512 79 532 101L532 311L391 311Q371 311 362.50 325Q354 339 354 373L604 373Z"  horiz-adv-x="666" vert-adv-y="1000"  />

      
      <glyph glyph-name="uni1E20" unicode="&#x1E20;" d="M604 373L604 73Q567 35 505.50 12.50Q444-10 377-10Q222-10 142 81.50Q62 173 62 350Q62 523 143.50 616.50Q225 710 377 710Q448 710 509 683.50Q570 657 601 613Q581 578 557 578Q541 578 524 592Q490 621 455 634Q420 647 376 647Q258 647 197 571.50Q136 496 136 350Q136 200 195.50 126.50Q255 53 376 53Q426 53 469 66Q512 79 532 101L532 311L391 311Q371 311 362.50 325Q354 339 354 373L604 373Z"  horiz-adv-x="666" vert-adv-y="1000"  />

      
      <glyph glyph-name="uni48" unicode="&#x48;" d="M594 700L594 0L522 0L522 330L158 330L158 0L86 0L86 700L158 700L158 390L522 390L522 700L594 700Z"  horiz-adv-x="680" vert-adv-y="1000"  />

      
      <glyph glyph-name="uni0126" unicode="&#x0126;" d="M670 524L594 524L594 0L522 0L522 330L158 330L158 0L86 0L86 524L10 524L10 584L86 584L86 700L158 700L158 584L522 584L522 700L594 700L594 584L670 584L670 524M522 524L158 524L158 390L522 390L522 524Z"  horiz-adv-x="680" vert-adv-y="1000"  />

      
      <glyph glyph-name="uni1E2A" unicode="&#x1E2A;" d="M594 700L594 0L522 0L522 330L158 330L158 0L86 0L86 700L158 700L158 390L522 390L522 700L594 700Z"  horiz-adv-x="680" vert-adv-y="1000"  />

      
      <glyph glyph-name="uni0124" unicode="&#x0124;" d="M594 700L594 0L522 0L522 330L158 330L158 0L86 0L86 700L158 700L158 390L522 390L522 700L594 700Z"  horiz-adv-x="680" vert-adv-y="1000"  />

      
      <glyph glyph-name="uni1E24" unicode="&#x1E24;" d="M594 700L594 0L522 0L522 330L158 330L158 0L86 0L86 700L158 700L158 390L522 390L522 700L594 700M336-179Q291-179 291-134L291-125Q291-80 336-80L344-80Q389-80 389-125L389-134Q389-179 344-179L336-179Z"  horiz-adv-x="680" vert-adv-y="1000"  />

      
      <glyph glyph-name="uni49" unicode="&#x49;" d="M139 700L211 700L211 0L139 0L139 700Z"  horiz-adv-x="350" vert-adv-y="1000"  />

      
      <glyph glyph-name="uni0132" unicode="&#x0132;" d="M139 700L211 700L211 0L139 0L139 700M417-10Q383-10 347.50-1.50Q312 7 294 17Q294 44 301.50 57Q309 70 321 70Q325 70 355 61Q385 52 419 52Q537 52 537 183L537 700L609 700L609 183Q609 93 557.50 41.50Q506-10 417-10Z"  horiz-adv-x="697" vert-adv-y="1000"  />

      
      <glyph glyph-name="unicd" unicode="&#xcd;" d="M139 700L211 700L211 0L139 0L139 700Z"  horiz-adv-x="350" vert-adv-y="1000"  />

      
      <glyph glyph-name="uni012C" unicode="&#x012C;" d="M139 700L211 700L211 0L139 0L139 700Z"  horiz-adv-x="350" vert-adv-y="1000"  />

      
      <glyph glyph-name="uni01CF" unicode="&#x01CF;" d="M139 700L211 700L211 0L139 0L139 700Z"  horiz-adv-x="350" vert-adv-y="1000"  />

      
      <glyph glyph-name="unice" unicode="&#xce;" d="M139 700L211 700L211 0L139 0L139 700Z"  horiz-adv-x="350" vert-adv-y="1000"  />

      
      <glyph glyph-name="unicf" unicode="&#xcf;" d="M139 700L211 700L211 0L139 0L139 700Z"  horiz-adv-x="350" vert-adv-y="1000"  />

      
      <glyph glyph-name="uni0130" unicode="&#x0130;" d="M139 700L211 700L211 0L139 0L139 700Z"  horiz-adv-x="350" vert-adv-y="1000"  />

      
      <glyph glyph-name="uni1ECA" unicode="&#x1ECA;" d="M139 700L211 700L211 0L139 0L139 700M171-179Q126-179 126-134L126-125Q126-80 171-80L179-80Q224-80 224-125L224-134Q224-179 179-179L171-179Z"  horiz-adv-x="350" vert-adv-y="1000"  />

      
      <glyph glyph-name="unicc" unicode="&#xcc;" d="M139 700L211 700L211 0L139 0L139 700Z"  horiz-adv-x="350" vert-adv-y="1000"  />

      
      <glyph glyph-name="uni1EC8" unicode="&#x1EC8;" d="M139 700L211 700L211 0L139 0L139 700M185 725Q172 725 160 733Q148 741 148 752Q185 772 200.50 794Q216 816 216 845Q216 867 204.50 879.50Q193 892 172 892Q151 892 138.50 879Q126 866 118 844Q103 844 93 852.50Q83 861 83 874Q83 901 108.50 921.50Q134 942 174 942Q219 942 246.50 917.50Q274 893 274 848Q274 768 185 725Z"  horiz-adv-x="350" vert-adv-y="1000"  />

      
      <glyph glyph-name="uni012A" unicode="&#x012A;" d="M139 700L211 700L211 0L139 0L139 700Z"  horiz-adv-x="350" vert-adv-y="1000"  />

      
      <glyph glyph-name="uni012E" unicode="&#x012E;" d="M139 700L211 700L211 0L139 0L139 700Z"  horiz-adv-x="350" vert-adv-y="1000"  />

      
      <glyph glyph-name="uni0128" unicode="&#x0128;" d="M139 700L211 700L211 0L139 0L139 700Z"  horiz-adv-x="350" vert-adv-y="1000"  />

      
      <glyph glyph-name="uni4a" unicode="&#x4a;" d="M147-10Q113-10 77.50-1.50Q42 7 24 17Q24 44 31.50 57Q39 70 51 70Q55 70 85 61Q115 52 149 52Q267 52 267 183L267 700L339 700L339 183Q339 93 287.50 41.50Q236-10 147-10Z"  horiz-adv-x="427" vert-adv-y="1000"  />

      
      <glyph glyph-name="uni0134" unicode="&#x0134;" d="M147-10Q113-10 77.50-1.50Q42 7 24 17Q24 44 31.50 57Q39 70 51 70Q55 70 85 61Q115 52 149 52Q267 52 267 183L267 700L339 700L339 183Q339 93 287.50 41.50Q236-10 147-10Z"  horiz-adv-x="427" vert-adv-y="1000"  />

      
      <glyph glyph-name="uni4b" unicode="&#x4b;" d="M585 3Q565-8 542-8Q524-8 513.50-1.50Q503 5 492 22L340 268Q317 305 291.50 317.50Q266 330 211 330L172 330L172 0L100 0L100 700L172 700L172 392L231 392Q249 392 258 391L494 700L577 700L322 371Q364 348 402 289L585 3Z"  horiz-adv-x="610" vert-adv-y="1000"  />

      
      <glyph glyph-name="uni0136" unicode="&#x0136;" d="M585 3Q565-8 542-8Q524-8 513.50-1.50Q503 5 492 22L340 268Q317 305 291.50 317.50Q266 330 211 330L172 330L172 0L100 0L100 700L172 700L172 392L231 392Q249 392 258 391L494 700L577 700L322 371Q364 348 402 289L585 3Z"  horiz-adv-x="610" vert-adv-y="1000"  />

      
      <glyph glyph-name="uni4c" unicode="&#x4c;" d="M498 60L498 0L86 0L86 700L158 700L158 60L498 60Z"  horiz-adv-x="513" vert-adv-y="1000"  />

      
      <glyph glyph-name="uni0139" unicode="&#x0139;" d="M498 60L498 0L86 0L86 700L158 700L158 60L498 60Z"  horiz-adv-x="513" vert-adv-y="1000"  />

      
      <glyph glyph-name="uni013D" unicode="&#x013D;" d="M498 60L498 0L86 0L86 700L158 700L158 60L498 60M412 489Q401 489 388 504Q441 549 441 594Q441 637 406 666Q406 685 418.50 697.50Q431 710 452 710Q476 710 491 693Q506 676 506 642Q506 578 462 523Q451 509 437.50 499Q424 489 412 489Z"  horiz-adv-x="597" vert-adv-y="1000"  />

      
      <glyph glyph-name="uni013B" unicode="&#x013B;" d="M498 60L498 0L86 0L86 700L158 700L158 60L498 60Z"  horiz-adv-x="513" vert-adv-y="1000"  />

      
      <glyph glyph-name="uni013F" unicode="&#x013F;" d="M498 60L498 0L86 0L86 700L158 700L158 60L498 60Z"  horiz-adv-x="513" vert-adv-y="1000"  />

      
      <glyph glyph-name="uni1E36" unicode="&#x1E36;" d="M498 60L498 0L86 0L86 700L158 700L158 60L498 60M288-179Q243-179 243-134L243-125Q243-80 288-80L296-80Q341-80 341-125L341-134Q341-179 296-179L288-179Z"  horiz-adv-x="513" vert-adv-y="1000"  />

      
      <glyph glyph-name="uni1E38" unicode="&#x1E38;" d="M498 60L498 0L86 0L86 700L158 700L158 60L498 60M288-179Q243-179 243-134L243-125Q243-80 288-80L296-80Q341-80 341-125L341-134Q341-179 296-179L288-179Z"  horiz-adv-x="513" vert-adv-y="1000"  />

      
      <glyph glyph-name="uni1E3A" unicode="&#x1E3A;" d="M498 60L498 0L86 0L86 700L158 700L158 60L498 60Z"  horiz-adv-x="513" vert-adv-y="1000"  />

      
      <glyph glyph-name="uni0141" unicode="&#x0141;" d="M518 60L518 0L106 0L106 353L17 317L17 386L106 422L106 700L178 700L178 450L369 527L369 458L178 381L178 60L518 60Z"  horiz-adv-x="547" vert-adv-y="1000"  />

      
      <glyph glyph-name="uni4d" unicode="&#x4d;" d="M681 0Q672 314 624 599Q588 517 553 416.50Q518 316 441 70L389 70Q321 286 282.50 395.50Q244 505 205 596Q157 323 148 0L76 0Q81 188 100.50 370Q120 552 151 700L231 700Q291 571 332 464Q373 357 415 219Q457 357 498 463.50Q539 570 598 700L678 700Q709 552 728.50 370Q748 188 753 0L681 0Z"  horiz-adv-x="829" vert-adv-y="1000"  />

      
      <glyph glyph-name="uni1E42" unicode="&#x1E42;" d="M681 0Q672 314 624 599Q588 517 553 416.50Q518 316 441 70L389 70Q321 286 282.50 395.50Q244 505 205 596Q157 323 148 0L76 0Q81 188 100.50 370Q120 552 151 700L231 700Q291 571 332 464Q373 357 415 219Q457 357 498 463.50Q539 570 598 700L678 700Q709 552 728.50 370Q748 188 753 0L681 0M411-179Q366-179 366-134L366-125Q366-80 411-80L419-80Q464-80 464-125L464-134Q464-179 419-179L411-179Z"  horiz-adv-x="829" vert-adv-y="1000"  />

      
      <glyph glyph-name="uni4e" unicode="&#x4e;" d="M600 137Q600 106 602 64Q604 36 604 27Q604 0 578 0L528 0L528 54Q528 112 489 165L158 601L158 0L86 0L86 700L144 700Q157 700 164.50 696.50Q172 693 182 680L528 225L528 700L600 700L600 137Z"  horiz-adv-x="690" vert-adv-y="1000"  />

      
      <glyph glyph-name="uni0143" unicode="&#x0143;" d="M600 137Q600 106 602 64Q604 36 604 27Q604 0 578 0L528 0L528 54Q528 112 489 165L158 601L158 0L86 0L86 700L144 700Q157 700 164.50 696.50Q172 693 182 680L528 225L528 700L600 700L600 137Z"  horiz-adv-x="690" vert-adv-y="1000"  />

      
      <glyph glyph-name="uni0147" unicode="&#x0147;" d="M600 137Q600 106 602 64Q604 36 604 27Q604 0 578 0L528 0L528 54Q528 112 489 165L158 601L158 0L86 0L86 700L144 700Q157 700 164.50 696.50Q172 693 182 680L528 225L528 700L600 700L600 137Z"  horiz-adv-x="690" vert-adv-y="1000"  />

      
      <glyph glyph-name="uni0145" unicode="&#x0145;" d="M600 137Q600 106 602 64Q604 36 604 27Q604 0 578 0L528 0L528 54Q528 112 489 165L158 601L158 0L86 0L86 700L144 700Q157 700 164.50 696.50Q172 693 182 680L528 225L528 700L600 700L600 137Z"  horiz-adv-x="690" vert-adv-y="1000"  />

      
      <glyph glyph-name="uni1E44" unicode="&#x1E44;" d="M600 137Q600 106 602 64Q604 36 604 27Q604 0 578 0L528 0L528 54Q528 112 489 165L158 601L158 0L86 0L86 700L144 700Q157 700 164.50 696.50Q172 693 182 680L528 225L528 700L600 700L600 137Z"  horiz-adv-x="690" vert-adv-y="1000"  />

      
      <glyph glyph-name="uni1E46" unicode="&#x1E46;" d="M600 137Q600 106 602 64Q604 36 604 27Q604 0 578 0L528 0L528 54Q528 112 489 165L158 601L158 0L86 0L86 700L144 700Q157 700 164.50 696.50Q172 693 182 680L528 225L528 700L600 700L600 137M340-179Q295-179 295-134L295-125Q295-80 340-80L348-80Q393-80 393-125L393-134Q393-179 348-179L340-179Z"  horiz-adv-x="690" vert-adv-y="1000"  />

      
      <glyph glyph-name="uni014A" unicode="&#x014A;" d="M599 700L599-33Q599-108 556.50-150Q514-192 442-192Q411-192 382-180.50Q353-169 353-147Q353-136 358.50-127Q364-118 369-118Q406-134 450-134Q486-134 506.50-110.50Q527-87 527-42L527 54Q527 113 488 165L158 601L158 0L86 0L86 700L144 700Q157 700 164.50 696.50Q172 693 182 680L527 225L527 700L599 700Z"  horiz-adv-x="685" vert-adv-y="1000"  />

      
      <glyph glyph-name="uni1E48" unicode="&#x1E48;" d="M600 137Q600 106 602 64Q604 36 604 27Q604 0 578 0L528 0L528 54Q528 112 489 165L158 601L158 0L86 0L86 700L144 700Q157 700 164.50 696.50Q172 693 182 680L528 225L528 700L600 700L600 137Z"  horiz-adv-x="690" vert-adv-y="1000"  />

      
      <glyph glyph-name="unid1" unicode="&#xd1;" d="M600 137Q600 106 602 64Q604 36 604 27Q604 0 578 0L528 0L528 54Q528 112 489 165L158 601L158 0L86 0L86 700L144 700Q157 700 164.50 696.50Q172 693 182 680L528 225L528 700L600 700L600 137Z"  horiz-adv-x="690" vert-adv-y="1000"  />

      
      <glyph glyph-name="uni4f" unicode="&#x4f;" d="M340-10Q199-10 123.50 84Q48 178 48 354Q48 526 123.50 618Q199 710 340 710Q481 710 556.50 618Q632 526 632 354Q632 178 556.50 84Q481-10 340-10M340 54Q448 54 503 129.50Q558 205 558 354Q558 646 340 646Q122 646 122 354Q122 205 177 129.50Q232 54 340 54Z"  horiz-adv-x="680" vert-adv-y="1000"  />

      
      <glyph glyph-name="unid3" unicode="&#xd3;" d="M340-10Q199-10 123.50 84Q48 178 48 354Q48 526 123.50 618Q199 710 340 710Q481 710 556.50 618Q632 526 632 354Q632 178 556.50 84Q481-10 340-10M340 54Q448 54 503 129.50Q558 205 558 354Q558 646 340 646Q122 646 122 354Q122 205 177 129.50Q232 54 340 54Z"  horiz-adv-x="680" vert-adv-y="1000"  />

      
      <glyph glyph-name="uni014E" unicode="&#x014E;" d="M340-10Q199-10 123.50 84Q48 178 48 354Q48 526 123.50 618Q199 710 340 710Q481 710 556.50 618Q632 526 632 354Q632 178 556.50 84Q481-10 340-10M340 54Q448 54 503 129.50Q558 205 558 354Q558 646 340 646Q122 646 122 354Q122 205 177 129.50Q232 54 340 54Z"  horiz-adv-x="680" vert-adv-y="1000"  />

      
      <glyph glyph-name="uni01D1" unicode="&#x01D1;" d="M340-10Q199-10 123.50 84Q48 178 48 354Q48 526 123.50 618Q199 710 340 710Q481 710 556.50 618Q632 526 632 354Q632 178 556.50 84Q481-10 340-10M340 54Q448 54 503 129.50Q558 205 558 354Q558 646 340 646Q122 646 122 354Q122 205 177 129.50Q232 54 340 54Z"  horiz-adv-x="680" vert-adv-y="1000"  />

      
      <glyph glyph-name="unid4" unicode="&#xd4;" d="M340-10Q199-10 123.50 84Q48 178 48 354Q48 526 123.50 618Q199 710 340 710Q481 710 556.50 618Q632 526 632 354Q632 178 556.50 84Q481-10 340-10M340 54Q448 54 503 129.50Q558 205 558 354Q558 646 340 646Q122 646 122 354Q122 205 177 129.50Q232 54 340 54Z"  horiz-adv-x="680" vert-adv-y="1000"  />

      
      <glyph glyph-name="uni1ED0" unicode="&#x1ED0;" d="M340-10Q199-10 123.50 84Q48 178 48 354Q48 526 123.50 618Q199 710 340 710Q481 710 556.50 618Q632 526 632 354Q632 178 556.50 84Q481-10 340-10M340 54Q448 54 503 129.50Q558 205 558 354Q558 646 340 646Q122 646 122 354Q122 205 177 129.50Q232 54 340 54Z"  horiz-adv-x="680" vert-adv-y="1000"  />

      
      <glyph glyph-name="uni1ED8" unicode="&#x1ED8;" d="M340-10Q199-10 123.50 84Q48 178 48 354Q48 526 123.50 618Q199 710 340 710Q481 710 556.50 618Q632 526 632 354Q632 178 556.50 84Q481-10 340-10M340 54Q448 54 503 129.50Q558 205 558 354Q558 646 340 646Q122 646 122 354Q122 205 177 129.50Q232 54 340 54M336-179Q291-179 291-134L291-125Q291-80 336-80L344-80Q389-80 389-125L389-134Q389-179 344-179L336-179Z"  horiz-adv-x="680" vert-adv-y="1000"  />

      
      <glyph glyph-name="uni1ED2" unicode="&#x1ED2;" d="M340-10Q199-10 123.50 84Q48 178 48 354Q48 526 123.50 618Q199 710 340 710Q481 710 556.50 618Q632 526 632 354Q632 178 556.50 84Q481-10 340-10M340 54Q448 54 503 129.50Q558 205 558 354Q558 646 340 646Q122 646 122 354Q122 205 177 129.50Q232 54 340 54Z"  horiz-adv-x="680" vert-adv-y="1000"  />

      
      <glyph glyph-name="uni1ED4" unicode="&#x1ED4;" d="M340-10Q199-10 123.50 84Q48 178 48 354Q48 526 123.50 618Q199 710 340 710Q481 710 556.50 618Q632 526 632 354Q632 178 556.50 84Q481-10 340-10M340 54Q448 54 503 129.50Q558 205 558 354Q558 646 340 646Q122 646 122 354Q122 205 177 129.50Q232 54 340 54Z"  horiz-adv-x="680" vert-adv-y="1000"  />

      
      <glyph glyph-name="uni1ED6" unicode="&#x1ED6;" d="M340-10Q199-10 123.50 84Q48 178 48 354Q48 526 123.50 618Q199 710 340 710Q481 710 556.50 618Q632 526 632 354Q632 178 556.50 84Q481-10 340-10M340 54Q448 54 503 129.50Q558 205 558 354Q558 646 340 646Q122 646 122 354Q122 205 177 129.50Q232 54 340 54Z"  horiz-adv-x="680" vert-adv-y="1000"  />

      
      <glyph glyph-name="unid6" unicode="&#xd6;" d="M340-10Q199-10 123.50 84Q48 178 48 354Q48 526 123.50 618Q199 710 340 710Q481 710 556.50 618Q632 526 632 354Q632 178 556.50 84Q481-10 340-10M340 54Q448 54 503 129.50Q558 205 558 354Q558 646 340 646Q122 646 122 354Q122 205 177 129.50Q232 54 340 54Z"  horiz-adv-x="680" vert-adv-y="1000"  />

      
      <glyph glyph-name="uni1ECC" unicode="&#x1ECC;" d="M340-10Q199-10 123.50 84Q48 178 48 354Q48 526 123.50 618Q199 710 340 710Q481 710 556.50 618Q632 526 632 354Q632 178 556.50 84Q481-10 340-10M340 54Q448 54 503 129.50Q558 205 558 354Q558 646 340 646Q122 646 122 354Q122 205 177 129.50Q232 54 340 54M336-179Q291-179 291-134L291-125Q291-80 336-80L344-80Q389-80 389-125L389-134Q389-179 344-179L336-179Z"  horiz-adv-x="680" vert-adv-y="1000"  />

      
      <glyph glyph-name="unid2" unicode="&#xd2;" d="M340-10Q199-10 123.50 84Q48 178 48 354Q48 526 123.50 618Q199 710 340 710Q481 710 556.50 618Q632 526 632 354Q632 178 556.50 84Q481-10 340-10M340 54Q448 54 503 129.50Q558 205 558 354Q558 646 340 646Q122 646 122 354Q122 205 177 129.50Q232 54 340 54Z"  horiz-adv-x="680" vert-adv-y="1000"  />

      
      <glyph glyph-name="uni1ECE" unicode="&#x1ECE;" d="M340-10Q199-10 123.50 84Q48 178 48 354Q48 526 123.50 618Q199 710 340 710Q481 710 556.50 618Q632 526 632 354Q632 178 556.50 84Q481-10 340-10M340 54Q448 54 503 129.50Q558 205 558 354Q558 646 340 646Q122 646 122 354Q122 205 177 129.50Q232 54 340 54M350 725Q337 725 325 733Q313 741 313 752Q350 772 365.50 794Q381 816 381 845Q381 867 369.50 879.50Q358 892 337 892Q316 892 303.50 879Q291 866 283 844Q268 844 258 852.50Q248 861 248 874Q248 901 273.50 921.50Q299 942 339 942Q384 942 411.50 917.50Q439 893 439 848Q439 768 350 725Z"  horiz-adv-x="680" vert-adv-y="1000"  />

      
      <glyph glyph-name="uni01A0" unicode="&#x01A0;" d="M545 631Q632 538 632 354Q632 178 556.50 84Q481-10 340-10Q199-10 123.50 84Q48 178 48 354Q48 526 123.50 618Q199 710 340 710Q436 710 500 668Q522 673 535 690.50Q548 708 548 733Q548 763 519 785Q521 798 532 808Q543 818 557 818Q583 818 599 798.50Q615 779 615 743Q615 703 596.50 674.50Q578 646 545 631M340 54Q448 54 503 129.50Q558 205 558 354Q558 646 340 646Q122 646 122 354Q122 205 177 129.50Q232 54 340 54Z"  horiz-adv-x="680" vert-adv-y="1000"  />

      
      <glyph glyph-name="uni1EDA" unicode="&#x1EDA;" d="M545 631Q632 538 632 354Q632 178 556.50 84Q481-10 340-10Q199-10 123.50 84Q48 178 48 354Q48 526 123.50 618Q199 710 340 710Q436 710 500 668Q522 673 535 690.50Q548 708 548 733Q548 763 519 785Q521 798 532 808Q543 818 557 818Q583 818 599 798.50Q615 779 615 743Q615 703 596.50 674.50Q578 646 545 631M340 54Q448 54 503 129.50Q558 205 558 354Q558 646 340 646Q122 646 122 354Q122 205 177 129.50Q232 54 340 54Z"  horiz-adv-x="680" vert-adv-y="1000"  />

      
      <glyph glyph-name="uni1EE2" unicode="&#x1EE2;" d="M545 631Q632 538 632 354Q632 178 556.50 84Q481-10 340-10Q199-10 123.50 84Q48 178 48 354Q48 526 123.50 618Q199 710 340 710Q436 710 500 668Q522 673 535 690.50Q548 708 548 733Q548 763 519 785Q521 798 532 808Q543 818 557 818Q583 818 599 798.50Q615 779 615 743Q615 703 596.50 674.50Q578 646 545 631M340 54Q448 54 503 129.50Q558 205 558 354Q558 646 340 646Q122 646 122 354Q122 205 177 129.50Q232 54 340 54M336-179Q291-179 291-134L291-125Q291-80 336-80L344-80Q389-80 389-125L389-134Q389-179 344-179L336-179Z"  horiz-adv-x="680" vert-adv-y="1000"  />

      
      <glyph glyph-name="uni1EDC" unicode="&#x1EDC;" d="M545 631Q632 538 632 354Q632 178 556.50 84Q481-10 340-10Q199-10 123.50 84Q48 178 48 354Q48 526 123.50 618Q199 710 340 710Q436 710 500 668Q522 673 535 690.50Q548 708 548 733Q548 763 519 785Q521 798 532 808Q543 818 557 818Q583 818 599 798.50Q615 779 615 743Q615 703 596.50 674.50Q578 646 545 631M340 54Q448 54 503 129.50Q558 205 558 354Q558 646 340 646Q122 646 122 354Q122 205 177 129.50Q232 54 340 54Z"  horiz-adv-x="680" vert-adv-y="1000"  />

      
      <glyph glyph-name="uni1EDE" unicode="&#x1EDE;" d="M545 631Q632 538 632 354Q632 178 556.50 84Q481-10 340-10Q199-10 123.50 84Q48 178 48 354Q48 526 123.50 618Q199 710 340 710Q436 710 500 668Q522 673 535 690.50Q548 708 548 733Q548 763 519 785Q521 798 532 808Q543 818 557 818Q583 818 599 798.50Q615 779 615 743Q615 703 596.50 674.50Q578 646 545 631M340 54Q448 54 503 129.50Q558 205 558 354Q558 646 340 646Q122 646 122 354Q122 205 177 129.50Q232 54 340 54M350 725Q337 725 325 733Q313 741 313 752Q350 772 365.50 794Q381 816 381 845Q381 867 369.50 879.50Q358 892 337 892Q316 892 303.50 879Q291 866 283 844Q268 844 258 852.50Q248 861 248 874Q248 901 273.50 921.50Q299 942 339 942Q384 942 411.50 917.50Q439 893 439 848Q439 768 350 725Z"  horiz-adv-x="680" vert-adv-y="1000"  />

      
      <glyph glyph-name="uni1EE0" unicode="&#x1EE0;" d="M545 631Q632 538 632 354Q632 178 556.50 84Q481-10 340-10Q199-10 123.50 84Q48 178 48 354Q48 526 123.50 618Q199 710 340 710Q436 710 500 668Q522 673 535 690.50Q548 708 548 733Q548 763 519 785Q521 798 532 808Q543 818 557 818Q583 818 599 798.50Q615 779 615 743Q615 703 596.50 674.50Q578 646 545 631M340 54Q448 54 503 129.50Q558 205 558 354Q558 646 340 646Q122 646 122 354Q122 205 177 129.50Q232 54 340 54Z"  horiz-adv-x="680" vert-adv-y="1000"  />

      
      <glyph glyph-name="uni0150" unicode="&#x0150;" d="M340-10Q199-10 123.50 84Q48 178 48 354Q48 526 123.50 618Q199 710 340 710Q481 710 556.50 618Q632 526 632 354Q632 178 556.50 84Q481-10 340-10M340 54Q448 54 503 129.50Q558 205 558 354Q558 646 340 646Q122 646 122 354Q122 205 177 129.50Q232 54 340 54Z"  horiz-adv-x="680" vert-adv-y="1000"  />

      
      <glyph glyph-name="uni014C" unicode="&#x014C;" d="M340-10Q199-10 123.50 84Q48 178 48 354Q48 526 123.50 618Q199 710 340 710Q481 710 556.50 618Q632 526 632 354Q632 178 556.50 84Q481-10 340-10M340 54Q448 54 503 129.50Q558 205 558 354Q558 646 340 646Q122 646 122 354Q122 205 177 129.50Q232 54 340 54Z"  horiz-adv-x="680" vert-adv-y="1000"  />

      
      <glyph glyph-name="unid8" unicode="&#xd8;" d="M560 614Q632 522 632 354Q632 178 556.50 84Q481-10 340-10Q231-10 159 48L125 0L53 0L118 92Q48 185 48 354Q48 526 123.50 618Q199 710 340 710Q448 710 517 656L549 701L621 701L560 614M122 354Q122 227 162 154L478 600Q426 646 340 646Q122 646 122 354M340 54Q448 54 503 129.50Q558 205 558 354Q558 481 516 553L199 105Q251 54 340 54Z"  horiz-adv-x="680" vert-adv-y="1000"  />

      
      <glyph glyph-name="uni01FE" unicode="&#x01FE;" d="M560 614Q632 522 632 354Q632 178 556.50 84Q481-10 340-10Q231-10 159 48L125 0L53 0L118 92Q48 185 48 354Q48 526 123.50 618Q199 710 340 710Q448 710 517 656L549 701L621 701L560 614M122 354Q122 227 162 154L478 600Q426 646 340 646Q122 646 122 354M340 54Q448 54 503 129.50Q558 205 558 354Q558 481 516 553L199 105Q251 54 340 54Z"  horiz-adv-x="680" vert-adv-y="1000"  />

      
      <glyph glyph-name="unid5" unicode="&#xd5;" d="M340-10Q199-10 123.50 84Q48 178 48 354Q48 526 123.50 618Q199 710 340 710Q481 710 556.50 618Q632 526 632 354Q632 178 556.50 84Q481-10 340-10M340 54Q448 54 503 129.50Q558 205 558 354Q558 646 340 646Q122 646 122 354Q122 205 177 129.50Q232 54 340 54Z"  horiz-adv-x="680" vert-adv-y="1000"  />

      
      <glyph glyph-name="uni0152" unicode="&#x0152;" d="M980 60Q980 24 969.50 12Q959 0 928 0L561 0L561 90Q484-10 340-10Q199-10 123.50 84Q48 178 48 354Q48 526 123.50 618Q199 710 340 710Q484 710 561 612L561 700L979 700L979 640L633 640L633 388L931 388L931 328L633 328L633 60L980 60M340 54Q448 54 503 129.50Q558 205 558 354Q558 646 340 646Q122 646 122 354Q122 205 177 129.50Q232 54 340 54Z"  horiz-adv-x="1035" vert-adv-y="1000"  />

      
      <glyph glyph-name="uni50" unicode="&#x50;" d="M294 700Q431 700 501.50 643.50Q572 587 572 477Q572 365 501.50 308Q431 251 294 251L158 251L158 0L86 0L86 700L294 700M294 313Q401 313 450.50 352.50Q500 392 500 477Q500 561 450.50 599.50Q401 638 294 638L158 638L158 313L294 313Z"  horiz-adv-x="615" vert-adv-y="1000"  />

      
      <glyph glyph-name="unide" unicode="&#xde;" d="M327 598Q462 598 525 534Q588 470 588 363Q588 256 525 192Q462 128 327 128L181 128L181 0L109 0L109 700L181 700L181 598L327 598M327 188Q514 188 514 363Q514 538 327 538L181 538L181 188L327 188Z"  horiz-adv-x="641" vert-adv-y="1000"  />

      
      <glyph glyph-name="uni51" unicode="&#x51;" d="M632 354Q632 229 592.50 144Q553 59 478 20Q494-1 540-57Q530-68 515.50-75Q501-82 485-82Q459-82 440-53L408-4Q377-10 340-10Q199-10 123.50 84Q48 178 48 354Q48 526 123.50 618Q199 710 340 710Q481 710 556.50 618Q632 526 632 354M340 54Q351 54 371 56L314 149L390 149Q413 111 439 75Q558 134 558 354Q558 646 340 646Q122 646 122 354Q122 205 177 129.50Q232 54 340 54Z"  horiz-adv-x="680" vert-adv-y="1000"  />

      
      <glyph glyph-name="uni52" unicode="&#x52;" d="M585 3Q565-8 542-8Q524-8 512.50-1Q501 6 492 22L378 218Q354 260 319.50 277.50Q285 295 226 295L158 295L158 0L86 0L86 700L313 700Q434 700 503 646.50Q572 593 572 498Q572 423 522 368.50Q472 314 392 301Q421 277 444 240L585 3M308 357Q398 357 447.50 394Q497 431 497 498Q497 567 450.50 602.50Q404 638 313 638L158 638L158 357L308 357Z"  horiz-adv-x="629" vert-adv-y="1000"  />

      
      <glyph glyph-name="uni0154" unicode="&#x0154;" d="M585 3Q565-8 542-8Q524-8 512.50-1Q501 6 492 22L378 218Q354 260 319.50 277.50Q285 295 226 295L158 295L158 0L86 0L86 700L313 700Q434 700 503 646.50Q572 593 572 498Q572 423 522 368.50Q472 314 392 301Q421 277 444 240L585 3M308 357Q398 357 447.50 394Q497 431 497 498Q497 567 450.50 602.50Q404 638 313 638L158 638L158 357L308 357Z"  horiz-adv-x="629" vert-adv-y="1000"  />

      
      <glyph glyph-name="uni0158" unicode="&#x0158;" d="M585 3Q565-8 542-8Q524-8 512.50-1Q501 6 492 22L378 218Q354 260 319.50 277.50Q285 295 226 295L158 295L158 0L86 0L86 700L313 700Q434 700 503 646.50Q572 593 572 498Q572 423 522 368.50Q472 314 392 301Q421 277 444 240L585 3M308 357Q398 357 447.50 394Q497 431 497 498Q497 567 450.50 602.50Q404 638 313 638L158 638L158 357L308 357Z"  horiz-adv-x="629" vert-adv-y="1000"  />

      
      <glyph glyph-name="uni0156" unicode="&#x0156;" d="M585 3Q565-8 542-8Q524-8 512.50-1Q501 6 492 22L378 218Q354 260 319.50 277.50Q285 295 226 295L158 295L158 0L86 0L86 700L313 700Q434 700 503 646.50Q572 593 572 498Q572 423 522 368.50Q472 314 392 301Q421 277 444 240L585 3M308 357Q398 357 447.50 394Q497 431 497 498Q497 567 450.50 602.50Q404 638 313 638L158 638L158 357L308 357Z"  horiz-adv-x="629" vert-adv-y="1000"  />

      
      <glyph glyph-name="uni1E5A" unicode="&#x1E5A;" d="M585 3Q565-8 542-8Q524-8 512.50-1Q501 6 492 22L378 218Q354 260 319.50 277.50Q285 295 226 295L158 295L158 0L86 0L86 700L313 700Q434 700 503 646.50Q572 593 572 498Q572 423 522 368.50Q472 314 392 301Q421 277 444 240L585 3M308 357Q398 357 447.50 394Q497 431 497 498Q497 567 450.50 602.50Q404 638 313 638L158 638L158 357L308 357M311-179Q266-179 266-134L266-125Q266-80 311-80L319-80Q364-80 364-125L364-134Q364-179 319-179L311-179Z"  horiz-adv-x="629" vert-adv-y="1000"  />

      
      <glyph glyph-name="uni1E5C" unicode="&#x1E5C;" d="M585 3Q565-8 542-8Q524-8 512.50-1Q501 6 492 22L378 218Q354 260 319.50 277.50Q285 295 226 295L158 295L158 0L86 0L86 700L313 700Q434 700 503 646.50Q572 593 572 498Q572 423 522 368.50Q472 314 392 301Q421 277 444 240L585 3M308 357Q398 357 447.50 394Q497 431 497 498Q497 567 450.50 602.50Q404 638 313 638L158 638L158 357L308 357M311-179Q266-179 266-134L266-125Q266-80 311-80L319-80Q364-80 364-125L364-134Q364-179 319-179L311-179Z"  horiz-adv-x="629" vert-adv-y="1000"  />

      
      <glyph glyph-name="uni1E5E" unicode="&#x1E5E;" d="M585 3Q565-8 542-8Q524-8 512.50-1Q501 6 492 22L378 218Q354 260 319.50 277.50Q285 295 226 295L158 295L158 0L86 0L86 700L313 700Q434 700 503 646.50Q572 593 572 498Q572 423 522 368.50Q472 314 392 301Q421 277 444 240L585 3M308 357Q398 357 447.50 394Q497 431 497 498Q497 567 450.50 602.50Q404 638 313 638L158 638L158 357L308 357Z"  horiz-adv-x="629" vert-adv-y="1000"  />

      
      <glyph glyph-name="uni53" unicode="&#x53;" d="M322-10Q253-10 195 11.50Q137 33 103 70Q69 107 69 151Q69 171 83.50 183.50Q98 196 122 197Q138 126 190 89Q242 52 324 52Q408 52 459.50 91Q511 130 511 193Q511 230 492.50 256Q474 282 432 302.50Q390 323 316 342Q230 365 181 390.50Q132 416 110.50 448.50Q89 481 89 529Q89 613 151 661.50Q213 710 322 710Q417 710 480.50 665.50Q544 621 566 540Q553 527 526 527Q498 527 485 554Q463 598 418.50 624Q374 650 322 650Q243 650 202 619Q161 588 161 529Q161 499 176 478.50Q191 458 226 441Q261 424 325 406Q432 376 486.50 349Q541 322 563 288Q585 254 585 199Q585 136 553 88.50Q521 41 461.50 15.50Q402-10 322-10Z"  horiz-adv-x="642" vert-adv-y="1000"  />

      
      <glyph glyph-name="uni015A" unicode="&#x015A;" d="M322-10Q253-10 195 11.50Q137 33 103 70Q69 107 69 151Q69 171 83.50 183.50Q98 196 122 197Q138 126 190 89Q242 52 324 52Q408 52 459.50 91Q511 130 511 193Q511 230 492.50 256Q474 282 432 302.50Q390 323 316 342Q230 365 181 390.50Q132 416 110.50 448.50Q89 481 89 529Q89 613 151 661.50Q213 710 322 710Q417 710 480.50 665.50Q544 621 566 540Q553 527 526 527Q498 527 485 554Q463 598 418.50 624Q374 650 322 650Q243 650 202 619Q161 588 161 529Q161 499 176 478.50Q191 458 226 441Q261 424 325 406Q432 376 486.50 349Q541 322 563 288Q585 254 585 199Q585 136 553 88.50Q521 41 461.50 15.50Q402-10 322-10Z"  horiz-adv-x="642" vert-adv-y="1000"  />

      
      <glyph glyph-name="uni0160" unicode="&#x0160;" d="M322-10Q253-10 195 11.50Q137 33 103 70Q69 107 69 151Q69 171 83.50 183.50Q98 196 122 197Q138 126 190 89Q242 52 324 52Q408 52 459.50 91Q511 130 511 193Q511 230 492.50 256Q474 282 432 302.50Q390 323 316 342Q230 365 181 390.50Q132 416 110.50 448.50Q89 481 89 529Q89 613 151 661.50Q213 710 322 710Q417 710 480.50 665.50Q544 621 566 540Q553 527 526 527Q498 527 485 554Q463 598 418.50 624Q374 650 322 650Q243 650 202 619Q161 588 161 529Q161 499 176 478.50Q191 458 226 441Q261 424 325 406Q432 376 486.50 349Q541 322 563 288Q585 254 585 199Q585 136 553 88.50Q521 41 461.50 15.50Q402-10 322-10Z"  horiz-adv-x="642" vert-adv-y="1000"  />

      
      <glyph glyph-name="uni015E" unicode="&#x015E;" d="M585 199Q585 108 521 52.50Q457-3 347-9L310-55L317-55Q359-55 385-76Q411-97 411-136Q411-180 376-204.50Q341-229 290-229Q245-229 221-218Q197-207 197-187Q197-181 200-173Q241-184 284-184Q314-184 331-171.50Q348-159 348-138Q348-123 334.50-111.50Q321-100 297-100Q278-100 257-107L240-75L290-9Q228-4 177.50 18.50Q127 41 98 75.50Q69 110 69 151Q69 171 83.50 183.50Q98 196 122 197Q138 126 190 89Q242 52 324 52Q408 52 459.50 91Q511 130 511 193Q511 230 492.50 256Q474 282 432 302.50Q390 323 316 342Q230 365 181 390.50Q132 416 110.50 448.50Q89 481 89 529Q89 613 151 661.50Q213 710 322 710Q417 710 480.50 665.50Q544 621 566 540Q553 527 526 527Q498 527 485 554Q463 598 418.50 624Q374 650 322 650Q243 650 202 619Q161 588 161 529Q161 499 176 478.50Q191 458 226 441Q261 424 325 406Q432 376 486.50 349Q541 322 563 288Q585 254 585 199Z"  horiz-adv-x="642" vert-adv-y="1000"  />

      
      <glyph glyph-name="uni015C" unicode="&#x015C;" d="M322-10Q253-10 195 11.50Q137 33 103 70Q69 107 69 151Q69 171 83.50 183.50Q98 196 122 197Q138 126 190 89Q242 52 324 52Q408 52 459.50 91Q511 130 511 193Q511 230 492.50 256Q474 282 432 302.50Q390 323 316 342Q230 365 181 390.50Q132 416 110.50 448.50Q89 481 89 529Q89 613 151 661.50Q213 710 322 710Q417 710 480.50 665.50Q544 621 566 540Q553 527 526 527Q498 527 485 554Q463 598 418.50 624Q374 650 322 650Q243 650 202 619Q161 588 161 529Q161 499 176 478.50Q191 458 226 441Q261 424 325 406Q432 376 486.50 349Q541 322 563 288Q585 254 585 199Q585 136 553 88.50Q521 41 461.50 15.50Q402-10 322-10Z"  horiz-adv-x="642" vert-adv-y="1000"  />

      
      <glyph glyph-name="uni0218" unicode="&#x0218;" d="M322-10Q253-10 195 11.50Q137 33 103 70Q69 107 69 151Q69 171 83.50 183.50Q98 196 122 197Q138 126 190 89Q242 52 324 52Q408 52 459.50 91Q511 130 511 193Q511 230 492.50 256Q474 282 432 302.50Q390 323 316 342Q230 365 181 390.50Q132 416 110.50 448.50Q89 481 89 529Q89 613 151 661.50Q213 710 322 710Q417 710 480.50 665.50Q544 621 566 540Q553 527 526 527Q498 527 485 554Q463 598 418.50 624Q374 650 322 650Q243 650 202 619Q161 588 161 529Q161 499 176 478.50Q191 458 226 441Q261 424 325 406Q432 376 486.50 349Q541 322 563 288Q585 254 585 199Q585 136 553 88.50Q521 41 461.50 15.50Q402-10 322-10Z"  horiz-adv-x="642" vert-adv-y="1000"  />

      
      <glyph glyph-name="uni1E60" unicode="&#x1E60;" d="M322-10Q253-10 195 11.50Q137 33 103 70Q69 107 69 151Q69 171 83.50 183.50Q98 196 122 197Q138 126 190 89Q242 52 324 52Q408 52 459.50 91Q511 130 511 193Q511 230 492.50 256Q474 282 432 302.50Q390 323 316 342Q230 365 181 390.50Q132 416 110.50 448.50Q89 481 89 529Q89 613 151 661.50Q213 710 322 710Q417 710 480.50 665.50Q544 621 566 540Q553 527 526 527Q498 527 485 554Q463 598 418.50 624Q374 650 322 650Q243 650 202 619Q161 588 161 529Q161 499 176 478.50Q191 458 226 441Q261 424 325 406Q432 376 486.50 349Q541 322 563 288Q585 254 585 199Q585 136 553 88.50Q521 41 461.50 15.50Q402-10 322-10Z"  horiz-adv-x="642" vert-adv-y="1000"  />

      
      <glyph glyph-name="uni1E62" unicode="&#x1E62;" d="M322-10Q253-10 195 11.50Q137 33 103 70Q69 107 69 151Q69 171 83.50 183.50Q98 196 122 197Q138 126 190 89Q242 52 324 52Q408 52 459.50 91Q511 130 511 193Q511 230 492.50 256Q474 282 432 302.50Q390 323 316 342Q230 365 181 390.50Q132 416 110.50 448.50Q89 481 89 529Q89 613 151 661.50Q213 710 322 710Q417 710 480.50 665.50Q544 621 566 540Q553 527 526 527Q498 527 485 554Q463 598 418.50 624Q374 650 322 650Q243 650 202 619Q161 588 161 529Q161 499 176 478.50Q191 458 226 441Q261 424 325 406Q432 376 486.50 349Q541 322 563 288Q585 254 585 199Q585 136 553 88.50Q521 41 461.50 15.50Q402-10 322-10M317-179Q272-179 272-134L272-125Q272-80 317-80L325-80Q370-80 370-125L370-134Q370-179 325-179L317-179Z"  horiz-adv-x="642" vert-adv-y="1000"  />

      
      <glyph glyph-name="uni1E9E" unicode="&#x1E9E;" d="M448 396Q531 384 583.50 333.50Q636 283 636 194Q636 129 606 83Q576 37 524 13.50Q472-10 408-10Q365-10 324.50 1.50Q284 13 261 31Q253 38 248.50 48Q244 58 244 69Q244 81 250 90.50Q256 100 267 102Q300 77 335 64.50Q370 52 412 52Q482 52 522 88Q562 124 562 193Q562 272 515 309Q468 346 384 346Q367 346 356.50 358.50Q346 371 346 388L509 550Q476 646 335 646Q284 646 243.50 624.50Q203 603 179.50 563Q156 523 156 469L156 0L84 0L84 469Q84 543 118.50 597Q153 651 211 679.50Q269 708 338 708Q442 708 508 660.50Q574 613 591 539L448 396Z"  horiz-adv-x="700" vert-adv-y="1000"  />

      
      <glyph glyph-name="uni018F" unicode="&#x018F;" d="M329 710Q475 710 554.50 615.50Q634 521 634 348Q634 173 555.50 81.50Q477-10 328-10Q188-10 115 73Q42 156 42 315L42 363L560 363Q557 501 498 574Q439 647 330 647Q227 647 162 592Q145 578 129 578Q105 578 85 613Q116 657 183 683.50Q250 710 329 710M329 53Q541 53 558 301L114 301Q114 182 170 117.50Q226 53 329 53Z"  horiz-adv-x="692" vert-adv-y="1000"  />

      
      <glyph glyph-name="uni54" unicode="&#x54;" d="M519 700Q523 682 523 676Q523 659 514 649.50Q505 640 487 640L303 640L303 0L231 0L231 640L15 640L15 700L519 700Z"  horiz-adv-x="534" vert-adv-y="1000"  />

      
      <glyph glyph-name="uni0166" unicode="&#x0166;" d="M519 700Q523 682 523 676Q523 659 514 649.50Q505 640 487 640L303 640L303 363L434 363L434 305L303 305L303 0L231 0L231 305L102 305L102 363L231 363L231 640L15 640L15 700L519 700Z"  horiz-adv-x="533" vert-adv-y="1000"  />

      
      <glyph glyph-name="uni0164" unicode="&#x0164;" d="M519 700Q523 682 523 676Q523 659 514 649.50Q505 640 487 640L303 640L303 0L231 0L231 640L15 640L15 700L519 700Z"  horiz-adv-x="534" vert-adv-y="1000"  />

      
      <glyph glyph-name="uni0162" unicode="&#x0162;" d="M519 700Q523 682 523 676Q523 659 514 649.50Q505 640 487 640L303 640L303 0L231 0L231 640L15 640L15 700L519 700Z"  horiz-adv-x="534" vert-adv-y="1000"  />

      
      <glyph glyph-name="uni021A" unicode="&#x021A;" d="M519 700Q523 682 523 676Q523 659 514 649.50Q505 640 487 640L303 640L303 0L231 0L231 640L15 640L15 700L519 700Z"  horiz-adv-x="534" vert-adv-y="1000"  />

      
      <glyph glyph-name="uni1E6C" unicode="&#x1E6C;" d="M519 700Q523 682 523 676Q523 659 514 649.50Q505 640 487 640L303 640L303 0L231 0L231 640L15 640L15 700L519 700M265-179Q220-179 220-134L220-125Q220-80 265-80L273-80Q318-80 318-125L318-134Q318-179 273-179L265-179Z"  horiz-adv-x="534" vert-adv-y="1000"  />

      
      <glyph glyph-name="uni1E6E" unicode="&#x1E6E;" d="M519 700Q523 682 523 676Q523 659 514 649.50Q505 640 487 640L303 640L303 0L231 0L231 640L15 640L15 700L519 700Z"  horiz-adv-x="534" vert-adv-y="1000"  />

      
      <glyph glyph-name="uni55" unicode="&#x55;" d="M356-10Q219-10 152.50 54.50Q86 119 86 251L86 700L158 700L158 241Q158 144 206 98Q254 52 356 52Q459 52 506 97.50Q553 143 553 241L553 700L625 700L625 251Q625 117 560 53.50Q495-10 356-10Z"  horiz-adv-x="708" vert-adv-y="1000"  />

      
      <glyph glyph-name="unida" unicode="&#xda;" d="M356-10Q219-10 152.50 54.50Q86 119 86 251L86 700L158 700L158 241Q158 144 206 98Q254 52 356 52Q459 52 506 97.50Q553 143 553 241L553 700L625 700L625 251Q625 117 560 53.50Q495-10 356-10Z"  horiz-adv-x="708" vert-adv-y="1000"  />

      
      <glyph glyph-name="uni016C" unicode="&#x016C;" d="M356-10Q219-10 152.50 54.50Q86 119 86 251L86 700L158 700L158 241Q158 144 206 98Q254 52 356 52Q459 52 506 97.50Q553 143 553 241L553 700L625 700L625 251Q625 117 560 53.50Q495-10 356-10Z"  horiz-adv-x="708" vert-adv-y="1000"  />

      
      <glyph glyph-name="uni01D3" unicode="&#x01D3;" d="M356-10Q219-10 152.50 54.50Q86 119 86 251L86 700L158 700L158 241Q158 144 206 98Q254 52 356 52Q459 52 506 97.50Q553 143 553 241L553 700L625 700L625 251Q625 117 560 53.50Q495-10 356-10Z"  horiz-adv-x="708" vert-adv-y="1000"  />

      
      <glyph glyph-name="unidb" unicode="&#xdb;" d="M356-10Q219-10 152.50 54.50Q86 119 86 251L86 700L158 700L158 241Q158 144 206 98Q254 52 356 52Q459 52 506 97.50Q553 143 553 241L553 700L625 700L625 251Q625 117 560 53.50Q495-10 356-10Z"  horiz-adv-x="708" vert-adv-y="1000"  />

      
      <glyph glyph-name="unidc" unicode="&#xdc;" d="M356-10Q219-10 152.50 54.50Q86 119 86 251L86 700L158 700L158 241Q158 144 206 98Q254 52 356 52Q459 52 506 97.50Q553 143 553 241L553 700L625 700L625 251Q625 117 560 53.50Q495-10 356-10Z"  horiz-adv-x="708" vert-adv-y="1000"  />

      
      <glyph glyph-name="uni01D7" unicode="&#x01D7;" d="M356-10Q219-10 152.50 54.50Q86 119 86 251L86 700L158 700L158 241Q158 144 206 98Q254 52 356 52Q459 52 506 97.50Q553 143 553 241L553 700L625 700L625 251Q625 117 560 53.50Q495-10 356-10Z"  horiz-adv-x="708" vert-adv-y="1000"  />

      
      <glyph glyph-name="uni01D9" unicode="&#x01D9;" d="M356-10Q219-10 152.50 54.50Q86 119 86 251L86 700L158 700L158 241Q158 144 206 98Q254 52 356 52Q459 52 506 97.50Q553 143 553 241L553 700L625 700L625 251Q625 117 560 53.50Q495-10 356-10Z"  horiz-adv-x="708" vert-adv-y="1000"  />

      
      <glyph glyph-name="uni01DB" unicode="&#x01DB;" d="M356-10Q219-10 152.50 54.50Q86 119 86 251L86 700L158 700L158 241Q158 144 206 98Q254 52 356 52Q459 52 506 97.50Q553 143 553 241L553 700L625 700L625 251Q625 117 560 53.50Q495-10 356-10Z"  horiz-adv-x="708" vert-adv-y="1000"  />

      
      <glyph glyph-name="uni01D5" unicode="&#x01D5;" d="M356-10Q219-10 152.50 54.50Q86 119 86 251L86 700L158 700L158 241Q158 144 206 98Q254 52 356 52Q459 52 506 97.50Q553 143 553 241L553 700L625 700L625 251Q625 117 560 53.50Q495-10 356-10Z"  horiz-adv-x="708" vert-adv-y="1000"  />

      
      <glyph glyph-name="uni1EE4" unicode="&#x1EE4;" d="M356-10Q219-10 152.50 54.50Q86 119 86 251L86 700L158 700L158 241Q158 144 206 98Q254 52 356 52Q459 52 506 97.50Q553 143 553 241L553 700L625 700L625 251Q625 117 560 53.50Q495-10 356-10M350-179Q305-179 305-134L305-125Q305-80 350-80L358-80Q403-80 403-125L403-134Q403-179 358-179L350-179Z"  horiz-adv-x="708" vert-adv-y="1000"  />

      
      <glyph glyph-name="unid9" unicode="&#xd9;" d="M356-10Q219-10 152.50 54.50Q86 119 86 251L86 700L158 700L158 241Q158 144 206 98Q254 52 356 52Q459 52 506 97.50Q553 143 553 241L553 700L625 700L625 251Q625 117 560 53.50Q495-10 356-10Z"  horiz-adv-x="708" vert-adv-y="1000"  />

      
      <glyph glyph-name="uni1EE6" unicode="&#x1EE6;" d="M356-10Q219-10 152.50 54.50Q86 119 86 251L86 700L158 700L158 241Q158 144 206 98Q254 52 356 52Q459 52 506 97.50Q553 143 553 241L553 700L625 700L625 251Q625 117 560 53.50Q495-10 356-10M364 725Q351 725 339 733Q327 741 327 752Q364 772 379.50 794Q395 816 395 845Q395 867 383.50 879.50Q372 892 351 892Q330 892 317.50 879Q305 866 297 844Q282 844 272 852.50Q262 861 262 874Q262 901 287.50 921.50Q313 942 353 942Q398 942 425.50 917.50Q453 893 453 848Q453 768 364 725Z"  horiz-adv-x="708" vert-adv-y="1000"  />

      
      <glyph glyph-name="uni01AF" unicode="&#x01AF;" d="M356-10Q219-10 152.50 54.50Q86 119 86 251L86 700L158 700L158 241Q158 144 206 98Q254 52 356 52Q459 52 506 97.50Q553 143 553 241L553 700L625 700L625 251Q625 117 560 53.50Q495-10 356-10M625 700Q653 700 672 718.50Q691 737 691 767Q691 797 662 819Q664 832 675 842Q686 852 700 852Q726 852 742 832.50Q758 813 758 777Q758 719 722 686.50Q686 654 625 650L625 700Z"  horiz-adv-x="708" vert-adv-y="1000"  />

      
      <glyph glyph-name="uni1EE8" unicode="&#x1EE8;" d="M356-10Q219-10 152.50 54.50Q86 119 86 251L86 700L158 700L158 241Q158 144 206 98Q254 52 356 52Q459 52 506 97.50Q553 143 553 241L553 700L625 700L625 251Q625 117 560 53.50Q495-10 356-10M625 700Q653 700 672 718.50Q691 737 691 767Q691 797 662 819Q664 832 675 842Q686 852 700 852Q726 852 742 832.50Q758 813 758 777Q758 719 722 686.50Q686 654 625 650L625 700Z"  horiz-adv-x="708" vert-adv-y="1000"  />

      
      <glyph glyph-name="uni1EF0" unicode="&#x1EF0;" d="M356-10Q219-10 152.50 54.50Q86 119 86 251L86 700L158 700L158 241Q158 144 206 98Q254 52 356 52Q459 52 506 97.50Q553 143 553 241L553 700L625 700L625 251Q625 117 560 53.50Q495-10 356-10M625 700Q653 700 672 718.50Q691 737 691 767Q691 797 662 819Q664 832 675 842Q686 852 700 852Q726 852 742 832.50Q758 813 758 777Q758 719 722 686.50Q686 654 625 650L625 700M350-179Q305-179 305-134L305-125Q305-80 350-80L358-80Q403-80 403-125L403-134Q403-179 358-179L350-179Z"  horiz-adv-x="708" vert-adv-y="1000"  />

      
      <glyph glyph-name="uni1EEA" unicode="&#x1EEA;" d="M356-10Q219-10 152.50 54.50Q86 119 86 251L86 700L158 700L158 241Q158 144 206 98Q254 52 356 52Q459 52 506 97.50Q553 143 553 241L553 700L625 700L625 251Q625 117 560 53.50Q495-10 356-10M625 700Q653 700 672 718.50Q691 737 691 767Q691 797 662 819Q664 832 675 842Q686 852 700 852Q726 852 742 832.50Q758 813 758 777Q758 719 722 686.50Q686 654 625 650L625 700Z"  horiz-adv-x="708" vert-adv-y="1000"  />

      
      <glyph glyph-name="uni1EEC" unicode="&#x1EEC;" d="M356-10Q219-10 152.50 54.50Q86 119 86 251L86 700L158 700L158 241Q158 144 206 98Q254 52 356 52Q459 52 506 97.50Q553 143 553 241L553 700L625 700L625 251Q625 117 560 53.50Q495-10 356-10M625 700Q653 700 672 718.50Q691 737 691 767Q691 797 662 819Q664 832 675 842Q686 852 700 852Q726 852 742 832.50Q758 813 758 777Q758 719 722 686.50Q686 654 625 650L625 700M364 725Q351 725 339 733Q327 741 327 752Q364 772 379.50 794Q395 816 395 845Q395 867 383.50 879.50Q372 892 351 892Q330 892 317.50 879Q305 866 297 844Q282 844 272 852.50Q262 861 262 874Q262 901 287.50 921.50Q313 942 353 942Q398 942 425.50 917.50Q453 893 453 848Q453 768 364 725Z"  horiz-adv-x="708" vert-adv-y="1000"  />

      
      <glyph glyph-name="uni1EEE" unicode="&#x1EEE;" d="M356-10Q219-10 152.50 54.50Q86 119 86 251L86 700L158 700L158 241Q158 144 206 98Q254 52 356 52Q459 52 506 97.50Q553 143 553 241L553 700L625 700L625 251Q625 117 560 53.50Q495-10 356-10M625 700Q653 700 672 718.50Q691 737 691 767Q691 797 662 819Q664 832 675 842Q686 852 700 852Q726 852 742 832.50Q758 813 758 777Q758 719 722 686.50Q686 654 625 650L625 700Z"  horiz-adv-x="708" vert-adv-y="1000"  />

      
      <glyph glyph-name="uni0170" unicode="&#x0170;" d="M356-10Q219-10 152.50 54.50Q86 119 86 251L86 700L158 700L158 241Q158 144 206 98Q254 52 356 52Q459 52 506 97.50Q553 143 553 241L553 700L625 700L625 251Q625 117 560 53.50Q495-10 356-10Z"  horiz-adv-x="708" vert-adv-y="1000"  />

      
      <glyph glyph-name="uni016A" unicode="&#x016A;" d="M356-10Q219-10 152.50 54.50Q86 119 86 251L86 700L158 700L158 241Q158 144 206 98Q254 52 356 52Q459 52 506 97.50Q553 143 553 241L553 700L625 700L625 251Q625 117 560 53.50Q495-10 356-10Z"  horiz-adv-x="708" vert-adv-y="1000"  />

      
      <glyph glyph-name="uni0172" unicode="&#x0172;" d="M625 700L625 251Q625 134 576 71Q527 8 424-6Q372-50 372-104Q372-129 386-142.50Q400-156 425-156Q455-156 478-146Q484-155 484-166Q484-180 466-190Q448-200 415-200Q368-200 339.50-175.50Q311-151 311-112Q311-48 369-10L356-10Q219-10 152.50 54.50Q86 119 86 251L86 700L158 700L158 241Q158 144 206 98Q254 52 356 52Q459 52 506 97.50Q553 143 553 241L553 700L625 700Z"  horiz-adv-x="708" vert-adv-y="1000"  />

      
      <glyph glyph-name="uni016E" unicode="&#x016E;" d="M356-10Q219-10 152.50 54.50Q86 119 86 251L86 700L158 700L158 241Q158 144 206 98Q254 52 356 52Q459 52 506 97.50Q553 143 553 241L553 700L625 700L625 251Q625 117 560 53.50Q495-10 356-10Z"  horiz-adv-x="708" vert-adv-y="1000"  />

      
      <glyph glyph-name="uni0168" unicode="&#x0168;" d="M356-10Q219-10 152.50 54.50Q86 119 86 251L86 700L158 700L158 241Q158 144 206 98Q254 52 356 52Q459 52 506 97.50Q553 143 553 241L553 700L625 700L625 251Q625 117 560 53.50Q495-10 356-10Z"  horiz-adv-x="708" vert-adv-y="1000"  />

      
      <glyph glyph-name="uni56" unicode="&#x56;" d="M608 700Q576 515 514.50 343.50Q453 172 357 0L282 0Q185 174 123 345.50Q61 517 30 700L106 700Q157 376 319 79Q481 376 532 700L608 700Z"  horiz-adv-x="638" vert-adv-y="1000"  />

      
      <glyph glyph-name="uni57" unicode="&#x57;" d="M841 700Q820 559 782 408Q744 257 666 0L584 0Q515 232 484.50 344Q454 456 433 551Q409 443 376 321.50Q343 200 282 0L200 0Q122 242 80.50 398.50Q39 555 15 700L87 700Q106 575 139.50 442.50Q173 310 241 95Q281 219 316.50 345.50Q352 472 410 700L452 700Q539 384 567.50 285Q596 186 625 96Q690 308 722.50 441Q755 574 773 700L841 700Z"  horiz-adv-x="856" vert-adv-y="1000"  />

      
      <glyph glyph-name="uni1E82" unicode="&#x1E82;" d="M841 700Q820 559 782 408Q744 257 666 0L584 0Q515 232 484.50 344Q454 456 433 551Q409 443 376 321.50Q343 200 282 0L200 0Q122 242 80.50 398.50Q39 555 15 700L87 700Q106 575 139.50 442.50Q173 310 241 95Q281 219 316.50 345.50Q352 472 410 700L452 700Q539 384 567.50 285Q596 186 625 96Q690 308 722.50 441Q755 574 773 700L841 700Z"  horiz-adv-x="856" vert-adv-y="1000"  />

      
      <glyph glyph-name="uni0174" unicode="&#x0174;" d="M841 700Q820 559 782 408Q744 257 666 0L584 0Q515 232 484.50 344Q454 456 433 551Q409 443 376 321.50Q343 200 282 0L200 0Q122 242 80.50 398.50Q39 555 15 700L87 700Q106 575 139.50 442.50Q173 310 241 95Q281 219 316.50 345.50Q352 472 410 700L452 700Q539 384 567.50 285Q596 186 625 96Q690 308 722.50 441Q755 574 773 700L841 700Z"  horiz-adv-x="856" vert-adv-y="1000"  />

      
      <glyph glyph-name="uni1E84" unicode="&#x1E84;" d="M841 700Q820 559 782 408Q744 257 666 0L584 0Q515 232 484.50 344Q454 456 433 551Q409 443 376 321.50Q343 200 282 0L200 0Q122 242 80.50 398.50Q39 555 15 700L87 700Q106 575 139.50 442.50Q173 310 241 95Q281 219 316.50 345.50Q352 472 410 700L452 700Q539 384 567.50 285Q596 186 625 96Q690 308 722.50 441Q755 574 773 700L841 700Z"  horiz-adv-x="856" vert-adv-y="1000"  />

      
      <glyph glyph-name="uni1E80" unicode="&#x1E80;" d="M841 700Q820 559 782 408Q744 257 666 0L584 0Q515 232 484.50 344Q454 456 433 551Q409 443 376 321.50Q343 200 282 0L200 0Q122 242 80.50 398.50Q39 555 15 700L87 700Q106 575 139.50 442.50Q173 310 241 95Q281 219 316.50 345.50Q352 472 410 700L452 700Q539 384 567.50 285Q596 186 625 96Q690 308 722.50 441Q755 574 773 700L841 700Z"  horiz-adv-x="856" vert-adv-y="1000"  />

      
      <glyph glyph-name="uni58" unicode="&#x58;" d="M481 0Q465 96 418 168.50Q371 241 291 322Q211 241 164 168.50Q117 96 101 0L24 0Q39 82 71.50 147.50Q104 213 145 263Q186 313 244 370Q159 455 109 528.50Q59 602 39 700L114 700Q132 616 175.50 552.50Q219 489 291 417Q363 489 406.50 552.50Q450 616 468 700L543 700Q523 602 473 528.50Q423 455 338 370Q396 313 437 263Q478 213 510.50 147.50Q543 82 558 0L481 0Z"  horiz-adv-x="582" vert-adv-y="1000"  />

      
      <glyph glyph-name="uni59" unicode="&#x59;" d="M570 700L331 294L331 0L259 0L259 294L20 700L98 700L296 361L493 700L570 700Z"  horiz-adv-x="590" vert-adv-y="1000"  />

      
      <glyph glyph-name="unidd" unicode="&#xdd;" d="M570 700L331 294L331 0L259 0L259 294L20 700L98 700L296 361L493 700L570 700Z"  horiz-adv-x="590" vert-adv-y="1000"  />

      
      <glyph glyph-name="uni0176" unicode="&#x0176;" d="M570 700L331 294L331 0L259 0L259 294L20 700L98 700L296 361L493 700L570 700Z"  horiz-adv-x="590" vert-adv-y="1000"  />

      
      <glyph glyph-name="uni0178" unicode="&#x0178;" d="M570 700L331 294L331 0L259 0L259 294L20 700L98 700L296 361L493 700L570 700Z"  horiz-adv-x="590" vert-adv-y="1000"  />

      
      <glyph glyph-name="uni1E8E" unicode="&#x1E8E;" d="M570 700L331 294L331 0L259 0L259 294L20 700L98 700L296 361L493 700L570 700Z"  horiz-adv-x="590" vert-adv-y="1000"  />

      
      <glyph glyph-name="uni1EF4" unicode="&#x1EF4;" d="M570 700L331 294L331 0L259 0L259 294L20 700L98 700L296 361L493 700L570 700M291-179Q246-179 246-134L246-125Q246-80 291-80L299-80Q344-80 344-125L344-134Q344-179 299-179L291-179Z"  horiz-adv-x="590" vert-adv-y="1000"  />

      
      <glyph glyph-name="uni1EF2" unicode="&#x1EF2;" d="M570 700L331 294L331 0L259 0L259 294L20 700L98 700L296 361L493 700L570 700Z"  horiz-adv-x="590" vert-adv-y="1000"  />

      
      <glyph glyph-name="uni1EF6" unicode="&#x1EF6;" d="M570 700L331 294L331 0L259 0L259 294L20 700L98 700L296 361L493 700L570 700M305 725Q292 725 280 733Q268 741 268 752Q305 772 320.50 794Q336 816 336 845Q336 867 324.50 879.50Q313 892 292 892Q271 892 258.50 879Q246 866 238 844Q223 844 213 852.50Q203 861 203 874Q203 901 228.50 921.50Q254 942 294 942Q339 942 366.50 917.50Q394 893 394 848Q394 768 305 725Z"  horiz-adv-x="590" vert-adv-y="1000"  />

      
      <glyph glyph-name="uni1EF8" unicode="&#x1EF8;" d="M570 700L331 294L331 0L259 0L259 294L20 700L98 700L296 361L493 700L570 700Z"  horiz-adv-x="590" vert-adv-y="1000"  />

      
      <glyph glyph-name="uni5a" unicode="&#x5a;" d="M528 60L528 0L54 0L54 60L441 640L52 640L52 700L520 700L520 636L138 60L528 60Z"  horiz-adv-x="580" vert-adv-y="1000"  />

      
      <glyph glyph-name="uni0179" unicode="&#x0179;" d="M528 60L528 0L54 0L54 60L441 640L52 640L52 700L520 700L520 636L138 60L528 60Z"  horiz-adv-x="580" vert-adv-y="1000"  />

      
      <glyph glyph-name="uni017D" unicode="&#x017D;" d="M528 60L528 0L54 0L54 60L441 640L52 640L52 700L520 700L520 636L138 60L528 60Z"  horiz-adv-x="580" vert-adv-y="1000"  />

      
      <glyph glyph-name="uni017B" unicode="&#x017B;" d="M528 60L528 0L54 0L54 60L441 640L52 640L52 700L520 700L520 636L138 60L528 60Z"  horiz-adv-x="580" vert-adv-y="1000"  />

      
      <glyph glyph-name="uni1E92" unicode="&#x1E92;" d="M528 60L528 0L54 0L54 60L441 640L52 640L52 700L520 700L520 636L138 60L528 60M286-179Q241-179 241-134L241-125Q241-80 286-80L294-80Q339-80 339-125L339-134Q339-179 294-179L286-179Z"  horiz-adv-x="580" vert-adv-y="1000"  />

      
      <glyph glyph-name="uni61" unicode="&#x61;" d="M476 137Q476 91 483.50 64.50Q491 38 510 17Q500 7 486.50 1Q473-5 461-5Q441-5 427.50 18Q414 41 410 81Q379 39 327 14.50Q275-10 218-10Q142-10 96 29.50Q50 69 50 133Q50 227 141.50 280Q233 333 408 341L408 373Q408 439 374.50 471.50Q341 504 273 504Q229 504 191.50 485.50Q154 467 111 424Q105 418 96 418Q86 418 74 426.50Q62 435 51 451Q96 504 153.50 532Q211 560 276 560Q369 560 422.50 510Q476 460 476 373L476 137M223 46Q277 46 325 76Q373 106 408 161L408 285Q120 273 120 134Q120 46 223 46Z"  horiz-adv-x="558" vert-adv-y="1000"  />

      
      <glyph glyph-name="unie1" unicode="&#xe1;" d="M476 137Q476 91 483.50 64.50Q491 38 510 17Q500 7 486.50 1Q473-5 461-5Q441-5 427.50 18Q414 41 410 81Q379 39 327 14.50Q275-10 218-10Q142-10 96 29.50Q50 69 50 133Q50 227 141.50 280Q233 333 408 341L408 373Q408 439 374.50 471.50Q341 504 273 504Q229 504 191.50 485.50Q154 467 111 424Q105 418 96 418Q86 418 74 426.50Q62 435 51 451Q96 504 153.50 532Q211 560 276 560Q369 560 422.50 510Q476 460 476 373L476 137M223 46Q277 46 325 76Q373 106 408 161L408 285Q120 273 120 134Q120 46 223 46Z"  horiz-adv-x="558" vert-adv-y="1000"  />

      
      <glyph glyph-name="uni0103" unicode="&#x0103;" d="M476 137Q476 91 483.50 64.50Q491 38 510 17Q500 7 486.50 1Q473-5 461-5Q441-5 427.50 18Q414 41 410 81Q379 39 327 14.50Q275-10 218-10Q142-10 96 29.50Q50 69 50 133Q50 227 141.50 280Q233 333 408 341L408 373Q408 439 374.50 471.50Q341 504 273 504Q229 504 191.50 485.50Q154 467 111 424Q105 418 96 418Q86 418 74 426.50Q62 435 51 451Q96 504 153.50 532Q211 560 276 560Q369 560 422.50 510Q476 460 476 373L476 137M223 46Q277 46 325 76Q373 106 408 161L408 285Q120 273 120 134Q120 46 223 46Z"  horiz-adv-x="558" vert-adv-y="1000"  />

      
      <glyph glyph-name="uni1EAF" unicode="&#x1EAF;" d="M476 137Q476 91 483.50 64.50Q491 38 510 17Q500 7 486.50 1Q473-5 461-5Q441-5 427.50 18Q414 41 410 81Q379 39 327 14.50Q275-10 218-10Q142-10 96 29.50Q50 69 50 133Q50 227 141.50 280Q233 333 408 341L408 373Q408 439 374.50 471.50Q341 504 273 504Q229 504 191.50 485.50Q154 467 111 424Q105 418 96 418Q86 418 74 426.50Q62 435 51 451Q96 504 153.50 532Q211 560 276 560Q369 560 422.50 510Q476 460 476 373L476 137M223 46Q277 46 325 76Q373 106 408 161L408 285Q120 273 120 134Q120 46 223 46Z"  horiz-adv-x="558" vert-adv-y="1000"  />

      
      <glyph glyph-name="uni1EB7" unicode="&#x1EB7;" d="M476 137Q476 91 483.50 64.50Q491 38 510 17Q500 7 486.50 1Q473-5 461-5Q441-5 427.50 18Q414 41 410 81Q379 39 327 14.50Q275-10 218-10Q142-10 96 29.50Q50 69 50 133Q50 227 141.50 280Q233 333 408 341L408 373Q408 439 374.50 471.50Q341 504 273 504Q229 504 191.50 485.50Q154 467 111 424Q105 418 96 418Q86 418 74 426.50Q62 435 51 451Q96 504 153.50 532Q211 560 276 560Q369 560 422.50 510Q476 460 476 373L476 137M223 46Q277 46 325 76Q373 106 408 161L408 285Q120 273 120 134Q120 46 223 46M275-179Q230-179 230-134L230-125Q230-80 275-80L283-80Q328-80 328-125L328-134Q328-179 283-179L275-179Z"  horiz-adv-x="558" vert-adv-y="1000"  />

      
      <glyph glyph-name="uni1EB1" unicode="&#x1EB1;" d="M476 137Q476 91 483.50 64.50Q491 38 510 17Q500 7 486.50 1Q473-5 461-5Q441-5 427.50 18Q414 41 410 81Q379 39 327 14.50Q275-10 218-10Q142-10 96 29.50Q50 69 50 133Q50 227 141.50 280Q233 333 408 341L408 373Q408 439 374.50 471.50Q341 504 273 504Q229 504 191.50 485.50Q154 467 111 424Q105 418 96 418Q86 418 74 426.50Q62 435 51 451Q96 504 153.50 532Q211 560 276 560Q369 560 422.50 510Q476 460 476 373L476 137M223 46Q277 46 325 76Q373 106 408 161L408 285Q120 273 120 134Q120 46 223 46Z"  horiz-adv-x="558" vert-adv-y="1000"  />

      
      <glyph glyph-name="uni1EB3" unicode="&#x1EB3;" d="M476 137Q476 91 483.50 64.50Q491 38 510 17Q500 7 486.50 1Q473-5 461-5Q441-5 427.50 18Q414 41 410 81Q379 39 327 14.50Q275-10 218-10Q142-10 96 29.50Q50 69 50 133Q50 227 141.50 280Q233 333 408 341L408 373Q408 439 374.50 471.50Q341 504 273 504Q229 504 191.50 485.50Q154 467 111 424Q105 418 96 418Q86 418 74 426.50Q62 435 51 451Q96 504 153.50 532Q211 560 276 560Q369 560 422.50 510Q476 460 476 373L476 137M223 46Q277 46 325 76Q373 106 408 161L408 285Q120 273 120 134Q120 46 223 46Z"  horiz-adv-x="558" vert-adv-y="1000"  />

      
      <glyph glyph-name="uni1EB5" unicode="&#x1EB5;" d="M476 137Q476 91 483.50 64.50Q491 38 510 17Q500 7 486.50 1Q473-5 461-5Q441-5 427.50 18Q414 41 410 81Q379 39 327 14.50Q275-10 218-10Q142-10 96 29.50Q50 69 50 133Q50 227 141.50 280Q233 333 408 341L408 373Q408 439 374.50 471.50Q341 504 273 504Q229 504 191.50 485.50Q154 467 111 424Q105 418 96 418Q86 418 74 426.50Q62 435 51 451Q96 504 153.50 532Q211 560 276 560Q369 560 422.50 510Q476 460 476 373L476 137M223 46Q277 46 325 76Q373 106 408 161L408 285Q120 273 120 134Q120 46 223 46Z"  horiz-adv-x="558" vert-adv-y="1000"  />

      
      <glyph glyph-name="uni01CE" unicode="&#x01CE;" d="M476 137Q476 91 483.50 64.50Q491 38 510 17Q500 7 486.50 1Q473-5 461-5Q441-5 427.50 18Q414 41 410 81Q379 39 327 14.50Q275-10 218-10Q142-10 96 29.50Q50 69 50 133Q50 227 141.50 280Q233 333 408 341L408 373Q408 439 374.50 471.50Q341 504 273 504Q229 504 191.50 485.50Q154 467 111 424Q105 418 96 418Q86 418 74 426.50Q62 435 51 451Q96 504 153.50 532Q211 560 276 560Q369 560 422.50 510Q476 460 476 373L476 137M223 46Q277 46 325 76Q373 106 408 161L408 285Q120 273 120 134Q120 46 223 46Z"  horiz-adv-x="558" vert-adv-y="1000"  />

      
      <glyph glyph-name="unie2" unicode="&#xe2;" d="M476 137Q476 91 483.50 64.50Q491 38 510 17Q500 7 486.50 1Q473-5 461-5Q441-5 427.50 18Q414 41 410 81Q379 39 327 14.50Q275-10 218-10Q142-10 96 29.50Q50 69 50 133Q50 227 141.50 280Q233 333 408 341L408 373Q408 439 374.50 471.50Q341 504 273 504Q229 504 191.50 485.50Q154 467 111 424Q105 418 96 418Q86 418 74 426.50Q62 435 51 451Q96 504 153.50 532Q211 560 276 560Q369 560 422.50 510Q476 460 476 373L476 137M223 46Q277 46 325 76Q373 106 408 161L408 285Q120 273 120 134Q120 46 223 46Z"  horiz-adv-x="558" vert-adv-y="1000"  />

      
      <glyph glyph-name="uni1EA5" unicode="&#x1EA5;" d="M476 137Q476 91 483.50 64.50Q491 38 510 17Q500 7 486.50 1Q473-5 461-5Q441-5 427.50 18Q414 41 410 81Q379 39 327 14.50Q275-10 218-10Q142-10 96 29.50Q50 69 50 133Q50 227 141.50 280Q233 333 408 341L408 373Q408 439 374.50 471.50Q341 504 273 504Q229 504 191.50 485.50Q154 467 111 424Q105 418 96 418Q86 418 74 426.50Q62 435 51 451Q96 504 153.50 532Q211 560 276 560Q369 560 422.50 510Q476 460 476 373L476 137M223 46Q277 46 325 76Q373 106 408 161L408 285Q120 273 120 134Q120 46 223 46Z"  horiz-adv-x="558" vert-adv-y="1000"  />

      
      <glyph glyph-name="uni1EAD" unicode="&#x1EAD;" d="M476 137Q476 91 483.50 64.50Q491 38 510 17Q500 7 486.50 1Q473-5 461-5Q441-5 427.50 18Q414 41 410 81Q379 39 327 14.50Q275-10 218-10Q142-10 96 29.50Q50 69 50 133Q50 227 141.50 280Q233 333 408 341L408 373Q408 439 374.50 471.50Q341 504 273 504Q229 504 191.50 485.50Q154 467 111 424Q105 418 96 418Q86 418 74 426.50Q62 435 51 451Q96 504 153.50 532Q211 560 276 560Q369 560 422.50 510Q476 460 476 373L476 137M223 46Q277 46 325 76Q373 106 408 161L408 285Q120 273 120 134Q120 46 223 46M275-179Q230-179 230-134L230-125Q230-80 275-80L283-80Q328-80 328-125L328-134Q328-179 283-179L275-179Z"  horiz-adv-x="558" vert-adv-y="1000"  />

      
      <glyph glyph-name="uni1EA7" unicode="&#x1EA7;" d="M476 137Q476 91 483.50 64.50Q491 38 510 17Q500 7 486.50 1Q473-5 461-5Q441-5 427.50 18Q414 41 410 81Q379 39 327 14.50Q275-10 218-10Q142-10 96 29.50Q50 69 50 133Q50 227 141.50 280Q233 333 408 341L408 373Q408 439 374.50 471.50Q341 504 273 504Q229 504 191.50 485.50Q154 467 111 424Q105 418 96 418Q86 418 74 426.50Q62 435 51 451Q96 504 153.50 532Q211 560 276 560Q369 560 422.50 510Q476 460 476 373L476 137M223 46Q277 46 325 76Q373 106 408 161L408 285Q120 273 120 134Q120 46 223 46Z"  horiz-adv-x="558" vert-adv-y="1000"  />

      
      <glyph glyph-name="uni1EA9" unicode="&#x1EA9;" d="M476 137Q476 91 483.50 64.50Q491 38 510 17Q500 7 486.50 1Q473-5 461-5Q441-5 427.50 18Q414 41 410 81Q379 39 327 14.50Q275-10 218-10Q142-10 96 29.50Q50 69 50 133Q50 227 141.50 280Q233 333 408 341L408 373Q408 439 374.50 471.50Q341 504 273 504Q229 504 191.50 485.50Q154 467 111 424Q105 418 96 418Q86 418 74 426.50Q62 435 51 451Q96 504 153.50 532Q211 560 276 560Q369 560 422.50 510Q476 460 476 373L476 137M223 46Q277 46 325 76Q373 106 408 161L408 285Q120 273 120 134Q120 46 223 46Z"  horiz-adv-x="558" vert-adv-y="1000"  />

      
      <glyph glyph-name="uni1EAB" unicode="&#x1EAB;" d="M476 137Q476 91 483.50 64.50Q491 38 510 17Q500 7 486.50 1Q473-5 461-5Q441-5 427.50 18Q414 41 410 81Q379 39 327 14.50Q275-10 218-10Q142-10 96 29.50Q50 69 50 133Q50 227 141.50 280Q233 333 408 341L408 373Q408 439 374.50 471.50Q341 504 273 504Q229 504 191.50 485.50Q154 467 111 424Q105 418 96 418Q86 418 74 426.50Q62 435 51 451Q96 504 153.50 532Q211 560 276 560Q369 560 422.50 510Q476 460 476 373L476 137M223 46Q277 46 325 76Q373 106 408 161L408 285Q120 273 120 134Q120 46 223 46Z"  horiz-adv-x="558" vert-adv-y="1000"  />

      
      <glyph glyph-name="unie4" unicode="&#xe4;" d="M476 137Q476 91 483.50 64.50Q491 38 510 17Q500 7 486.50 1Q473-5 461-5Q441-5 427.50 18Q414 41 410 81Q379 39 327 14.50Q275-10 218-10Q142-10 96 29.50Q50 69 50 133Q50 227 141.50 280Q233 333 408 341L408 373Q408 439 374.50 471.50Q341 504 273 504Q229 504 191.50 485.50Q154 467 111 424Q105 418 96 418Q86 418 74 426.50Q62 435 51 451Q96 504 153.50 532Q211 560 276 560Q369 560 422.50 510Q476 460 476 373L476 137M223 46Q277 46 325 76Q373 106 408 161L408 285Q120 273 120 134Q120 46 223 46Z"  horiz-adv-x="558" vert-adv-y="1000"  />

      
      <glyph glyph-name="uni1EA1" unicode="&#x1EA1;" d="M476 137Q476 91 483.50 64.50Q491 38 510 17Q500 7 486.50 1Q473-5 461-5Q441-5 427.50 18Q414 41 410 81Q379 39 327 14.50Q275-10 218-10Q142-10 96 29.50Q50 69 50 133Q50 227 141.50 280Q233 333 408 341L408 373Q408 439 374.50 471.50Q341 504 273 504Q229 504 191.50 485.50Q154 467 111 424Q105 418 96 418Q86 418 74 426.50Q62 435 51 451Q96 504 153.50 532Q211 560 276 560Q369 560 422.50 510Q476 460 476 373L476 137M223 46Q277 46 325 76Q373 106 408 161L408 285Q120 273 120 134Q120 46 223 46M275-179Q230-179 230-134L230-125Q230-80 275-80L283-80Q328-80 328-125L328-134Q328-179 283-179L275-179Z"  horiz-adv-x="558" vert-adv-y="1000"  />

      
      <glyph glyph-name="unie0" unicode="&#xe0;" d="M476 137Q476 91 483.50 64.50Q491 38 510 17Q500 7 486.50 1Q473-5 461-5Q441-5 427.50 18Q414 41 410 81Q379 39 327 14.50Q275-10 218-10Q142-10 96 29.50Q50 69 50 133Q50 227 141.50 280Q233 333 408 341L408 373Q408 439 374.50 471.50Q341 504 273 504Q229 504 191.50 485.50Q154 467 111 424Q105 418 96 418Q86 418 74 426.50Q62 435 51 451Q96 504 153.50 532Q211 560 276 560Q369 560 422.50 510Q476 460 476 373L476 137M223 46Q277 46 325 76Q373 106 408 161L408 285Q120 273 120 134Q120 46 223 46Z"  horiz-adv-x="558" vert-adv-y="1000"  />

      
      <glyph glyph-name="uni1EA3" unicode="&#x1EA3;" d="M476 137Q476 91 483.50 64.50Q491 38 510 17Q500 7 486.50 1Q473-5 461-5Q441-5 427.50 18Q414 41 410 81Q379 39 327 14.50Q275-10 218-10Q142-10 96 29.50Q50 69 50 133Q50 227 141.50 280Q233 333 408 341L408 373Q408 439 374.50 471.50Q341 504 273 504Q229 504 191.50 485.50Q154 467 111 424Q105 418 96 418Q86 418 74 426.50Q62 435 51 451Q96 504 153.50 532Q211 560 276 560Q369 560 422.50 510Q476 460 476 373L476 137M223 46Q277 46 325 76Q373 106 408 161L408 285Q120 273 120 134Q120 46 223 46M287 615Q274 615 262 623Q250 631 250 642Q287 662 302.50 684Q318 706 318 735Q318 757 306.50 769.50Q295 782 274 782Q253 782 240.50 769Q228 756 220 734Q205 734 195 742.50Q185 751 185 764Q185 791 210.50 811.50Q236 832 276 832Q321 832 348.50 807.50Q376 783 376 738Q376 658 287 615Z"  horiz-adv-x="558" vert-adv-y="1000"  />

      
      <glyph glyph-name="uni0251" unicode="&#x0251;" d="M507 128Q507 57 521 8Q496-4 475-4Q448-4 441 63Q409 25 370.50 7.50Q332-10 273-10Q209-10 156.50 19.50Q104 49 72 112.50Q40 176 40 272Q40 361 70.50 426Q101 491 158 525.50Q215 560 292 560Q334 560 373.50 546Q413 532 439 513L439 550L507 550L507 128M278 46Q331 46 369.50 67.50Q408 89 439 131L439 447Q416 472 374.50 489Q333 506 292 506Q205 506 157.50 444.50Q110 383 110 272Q110 162 154 104Q198 46 278 46Z"  horiz-adv-x="598" vert-adv-y="1000"  />

      
      <glyph glyph-name="uni0101" unicode="&#x0101;" d="M476 137Q476 91 483.50 64.50Q491 38 510 17Q500 7 486.50 1Q473-5 461-5Q441-5 427.50 18Q414 41 410 81Q379 39 327 14.50Q275-10 218-10Q142-10 96 29.50Q50 69 50 133Q50 227 141.50 280Q233 333 408 341L408 373Q408 439 374.50 471.50Q341 504 273 504Q229 504 191.50 485.50Q154 467 111 424Q105 418 96 418Q86 418 74 426.50Q62 435 51 451Q96 504 153.50 532Q211 560 276 560Q369 560 422.50 510Q476 460 476 373L476 137M223 46Q277 46 325 76Q373 106 408 161L408 285Q120 273 120 134Q120 46 223 46Z"  horiz-adv-x="558" vert-adv-y="1000"  />

      
      <glyph glyph-name="uni0105" unicode="&#x0105;" d="M535-146Q541-155 541-166Q541-180 523-190Q505-200 472-200Q425-200 396.50-175.50Q368-151 368-112Q368-73 387.50-46.50Q407-20 443 0Q416 18 410 81Q379 39 327 14.50Q275-10 218-10Q142-10 96 29.50Q50 69 50 133Q50 227 141.50 280Q233 333 408 341L408 373Q408 439 374.50 471.50Q341 504 273 504Q229 504 191.50 485.50Q154 467 111 424Q105 418 96 418Q86 418 74 426.50Q62 435 51 451Q96 504 153.50 532Q211 560 276 560Q369 560 422.50 510Q476 460 476 373L476 137Q476 91 483.50 64.50Q491 38 510 17L502 10Q500 8 500 8L498 8Q465-15 447-44Q429-73 429-104Q429-129 443-142.50Q457-156 482-156Q512-156 535-146M223 46Q277 46 325 76Q373 106 408 161L408 285Q120 273 120 134Q120 46 223 46Z"  horiz-adv-x="558" vert-adv-y="1000"  />

      
      <glyph glyph-name="unie5" unicode="&#xe5;" d="M476 137Q476 91 483.50 64.50Q491 38 510 17Q500 7 486.50 1Q473-5 461-5Q441-5 427.50 18Q414 41 410 81Q379 39 327 14.50Q275-10 218-10Q142-10 96 29.50Q50 69 50 133Q50 227 141.50 280Q233 333 408 341L408 373Q408 439 374.50 471.50Q341 504 273 504Q229 504 191.50 485.50Q154 467 111 424Q105 418 96 418Q86 418 74 426.50Q62 435 51 451Q96 504 153.50 532Q211 560 276 560Q369 560 422.50 510Q476 460 476 373L476 137M223 46Q277 46 325 76Q373 106 408 161L408 285Q120 273 120 134Q120 46 223 46Z"  horiz-adv-x="558" vert-adv-y="1000"  />

      
      <glyph glyph-name="uni01FB" unicode="&#x01FB;" d="M476 137Q476 91 483.50 64.50Q491 38 510 17Q500 7 486.50 1Q473-5 461-5Q441-5 427.50 18Q414 41 410 81Q379 39 327 14.50Q275-10 218-10Q142-10 96 29.50Q50 69 50 133Q50 227 141.50 280Q233 333 408 341L408 373Q408 439 374.50 471.50Q341 504 273 504Q229 504 191.50 485.50Q154 467 111 424Q105 418 96 418Q86 418 74 426.50Q62 435 51 451Q96 504 153.50 532Q211 560 276 560Q369 560 422.50 510Q476 460 476 373L476 137M223 46Q277 46 325 76Q373 106 408 161L408 285Q120 273 120 134Q120 46 223 46Z"  horiz-adv-x="558" vert-adv-y="1000"  />

      
      <glyph glyph-name="unie3" unicode="&#xe3;" d="M476 137Q476 91 483.50 64.50Q491 38 510 17Q500 7 486.50 1Q473-5 461-5Q441-5 427.50 18Q414 41 410 81Q379 39 327 14.50Q275-10 218-10Q142-10 96 29.50Q50 69 50 133Q50 227 141.50 280Q233 333 408 341L408 373Q408 439 374.50 471.50Q341 504 273 504Q229 504 191.50 485.50Q154 467 111 424Q105 418 96 418Q86 418 74 426.50Q62 435 51 451Q96 504 153.50 532Q211 560 276 560Q369 560 422.50 510Q476 460 476 373L476 137M223 46Q277 46 325 76Q373 106 408 161L408 285Q120 273 120 134Q120 46 223 46Z"  horiz-adv-x="558" vert-adv-y="1000"  />

      
      <glyph glyph-name="unie6" unicode="&#xe6;" d="M878 321Q878 289 874 268L478 268Q480 157 523 101.50Q566 46 648 46Q711 46 746 67.50Q781 89 802 134Q808 148 822 148Q836 148 867 128Q848 62 792 25Q736-12 648-12Q578-12 525.50 17Q473 46 444 103Q403 47 345.50 17.50Q288-12 218-12Q146-12 98 26.50Q50 65 50 132Q50 231 142 280.50Q234 330 408 332L408 373Q408 438 375 471Q342 504 273 504Q221 504 185.50 483.50Q150 463 111 424Q105 418 96 418Q86 418 74 427Q62 436 51 451Q93 501 149.50 530.50Q206 560 276 560Q341 560 387.50 535Q434 510 457 463Q489 511 540 535.50Q591 560 653 560Q763 560 820.50 500Q878 440 878 321M808 322Q808 406 770.50 456Q733 506 650 506Q575 506 531.50 458.50Q488 411 480 322L808 322M223 44Q284 44 338.50 80Q393 116 418 175Q408 218 408 275Q257 269 188.50 234Q120 199 120 133Q120 44 223 44Z"  horiz-adv-x="918" vert-adv-y="1000"  />

      
      <glyph glyph-name="uni01FD" unicode="&#x01FD;" d="M878 321Q878 289 874 268L478 268Q480 157 523 101.50Q566 46 648 46Q711 46 746 67.50Q781 89 802 134Q808 148 822 148Q836 148 867 128Q848 62 792 25Q736-12 648-12Q578-12 525.50 17Q473 46 444 103Q403 47 345.50 17.50Q288-12 218-12Q146-12 98 26.50Q50 65 50 132Q50 231 142 280.50Q234 330 408 332L408 373Q408 438 375 471Q342 504 273 504Q221 504 185.50 483.50Q150 463 111 424Q105 418 96 418Q86 418 74 427Q62 436 51 451Q93 501 149.50 530.50Q206 560 276 560Q341 560 387.50 535Q434 510 457 463Q489 511 540 535.50Q591 560 653 560Q763 560 820.50 500Q878 440 878 321M808 322Q808 406 770.50 456Q733 506 650 506Q575 506 531.50 458.50Q488 411 480 322L808 322M223 44Q284 44 338.50 80Q393 116 418 175Q408 218 408 275Q257 269 188.50 234Q120 199 120 133Q120 44 223 44Z"  horiz-adv-x="918" vert-adv-y="1000"  />

      
      <glyph glyph-name="uni62" unicode="&#x62;" d="M338 560Q449 560 509.50 488Q570 416 570 284Q570 146 507 68Q444-10 333-10Q227-10 167 53Q158 0 132 0Q102 0 82 12Q101 54 101 132L101 791L171 791L171 509Q244 560 338 560M333 48Q413 48 456.50 109.50Q500 171 500 284Q500 390 458 447Q416 504 338 504Q246 504 171 447L171 122Q230 48 333 48Z"  horiz-adv-x="610" vert-adv-y="1000"  />

      
      <glyph glyph-name="uni63" unicode="&#x63;" d="M296-10Q175-10 107.50 66Q40 142 40 278Q40 364 70.50 427.50Q101 491 158 525.50Q215 560 292 560Q384 560 443.50 513.50Q503 467 513 387Q504 383 488.50 379Q473 375 463 375Q453 375 448.50 380.50Q444 386 439 404Q428 451 389 477.50Q350 504 292 504Q238 504 196.50 476Q155 448 132.50 396.50Q110 345 110 278Q110 172 160.50 109Q211 46 296 46Q361 46 407 76.50Q453 107 476 166Q490 166 499.50 154Q509 142 509 126Q509 91 479.50 59.50Q450 28 400.50 9Q351-10 296-10Z"  horiz-adv-x="551" vert-adv-y="1000"  />

      
      <glyph glyph-name="uni0107" unicode="&#x0107;" d="M296-10Q175-10 107.50 66Q40 142 40 278Q40 364 70.50 427.50Q101 491 158 525.50Q215 560 292 560Q384 560 443.50 513.50Q503 467 513 387Q504 383 488.50 379Q473 375 463 375Q453 375 448.50 380.50Q444 386 439 404Q428 451 389 477.50Q350 504 292 504Q238 504 196.50 476Q155 448 132.50 396.50Q110 345 110 278Q110 172 160.50 109Q211 46 296 46Q361 46 407 76.50Q453 107 476 166Q490 166 499.50 154Q509 142 509 126Q509 91 479.50 59.50Q450 28 400.50 9Q351-10 296-10Z"  horiz-adv-x="551" vert-adv-y="1000"  />

      
      <glyph glyph-name="uni010D" unicode="&#x010D;" d="M296-10Q175-10 107.50 66Q40 142 40 278Q40 364 70.50 427.50Q101 491 158 525.50Q215 560 292 560Q384 560 443.50 513.50Q503 467 513 387Q504 383 488.50 379Q473 375 463 375Q453 375 448.50 380.50Q444 386 439 404Q428 451 389 477.50Q350 504 292 504Q238 504 196.50 476Q155 448 132.50 396.50Q110 345 110 278Q110 172 160.50 109Q211 46 296 46Q361 46 407 76.50Q453 107 476 166Q490 166 499.50 154Q509 142 509 126Q509 91 479.50 59.50Q450 28 400.50 9Q351-10 296-10Z"  horiz-adv-x="551" vert-adv-y="1000"  />

      
      <glyph glyph-name="unie7" unicode="&#xe7;" d="M476 166Q490 166 499.50 154Q509 142 509 126Q509 93 482 63Q455 33 410 13Q365-7 313-10L276-55L283-55Q325-55 351-76Q377-97 377-136Q377-180 342-204.50Q307-229 256-229Q211-229 187-218Q163-207 163-187Q163-181 166-173Q207-184 250-184Q280-184 297-171.50Q314-159 314-138Q314-123 300.50-111.50Q287-100 263-100Q244-100 223-107L206-75L257-8Q154 4 97 79Q40 154 40 278Q40 364 70.50 427.50Q101 491 158 525.50Q215 560 292 560Q384 560 443.50 513.50Q503 467 513 387Q504 383 488.50 379Q473 375 463 375Q453 375 448.50 380.50Q444 386 439 404Q428 451 389 477.50Q350 504 292 504Q238 504 196.50 476Q155 448 132.50 396.50Q110 345 110 278Q110 172 160.50 109Q211 46 296 46Q361 46 407 76.50Q453 107 476 166Z"  horiz-adv-x="551" vert-adv-y="1000"  />

      
      <glyph glyph-name="uni0109" unicode="&#x0109;" d="M296-10Q175-10 107.50 66Q40 142 40 278Q40 364 70.50 427.50Q101 491 158 525.50Q215 560 292 560Q384 560 443.50 513.50Q503 467 513 387Q504 383 488.50 379Q473 375 463 375Q453 375 448.50 380.50Q444 386 439 404Q428 451 389 477.50Q350 504 292 504Q238 504 196.50 476Q155 448 132.50 396.50Q110 345 110 278Q110 172 160.50 109Q211 46 296 46Q361 46 407 76.50Q453 107 476 166Q490 166 499.50 154Q509 142 509 126Q509 91 479.50 59.50Q450 28 400.50 9Q351-10 296-10Z"  horiz-adv-x="551" vert-adv-y="1000"  />

      
      <glyph glyph-name="uni010B" unicode="&#x010B;" d="M296-10Q175-10 107.50 66Q40 142 40 278Q40 364 70.50 427.50Q101 491 158 525.50Q215 560 292 560Q384 560 443.50 513.50Q503 467 513 387Q504 383 488.50 379Q473 375 463 375Q453 375 448.50 380.50Q444 386 439 404Q428 451 389 477.50Q350 504 292 504Q238 504 196.50 476Q155 448 132.50 396.50Q110 345 110 278Q110 172 160.50 109Q211 46 296 46Q361 46 407 76.50Q453 107 476 166Q490 166 499.50 154Q509 142 509 126Q509 91 479.50 59.50Q450 28 400.50 9Q351-10 296-10Z"  horiz-adv-x="551" vert-adv-y="1000"  />

      
      <glyph glyph-name="uni64" unicode="&#x64;" d="M507 128Q507 96 511 63Q515 30 521 8Q496-4 475-4Q448-4 441 64Q408 24 369 7Q330-10 273-10Q164-10 102 65.50Q40 141 40 273Q40 409 106.50 484.50Q173 560 292 560Q329 560 370.50 546.50Q412 533 439 513L439 791L507 791L507 128M278 46Q329 46 368 67Q407 88 439 132L439 447Q415 472 373.50 489Q332 506 292 506Q204 506 157 446Q110 386 110 273Q110 163 153 104.50Q196 46 278 46Z"  horiz-adv-x="598" vert-adv-y="1000"  />

      
      <glyph glyph-name="unif0" unicode="&#xf0;" d="M352 684Q434 600 470.50 500.50Q507 401 507 275Q507 151 452 69.50Q397-12 274-12Q150-12 95 69.50Q40 151 40 275Q40 349 62.50 413Q85 477 137.50 518.50Q190 560 274 560Q336 560 375 538Q343 598 292 649L203 595L169 646L245 692Q212 720 172 747L218 794Q266 761 305 728L416 795L449 743L352 684M274 42Q360 42 398.50 101.50Q437 161 437 275Q437 383 398 444.50Q359 506 274 506Q188 506 149 445Q110 384 110 275Q110 161 148.50 101.50Q187 42 274 42Z"  horiz-adv-x="547" vert-adv-y="1000"  />

      
      <glyph glyph-name="uni010F" unicode="&#x010F;" d="M507 128Q507 96 511 63Q515 30 521 8Q496-4 475-4Q448-4 441 64Q408 24 369 7Q330-10 273-10Q164-10 102 65.50Q40 141 40 273Q40 409 106.50 484.50Q173 560 292 560Q329 560 370.50 546.50Q412 533 439 513L439 791L507 791L507 128M278 46Q329 46 368 67Q407 88 439 132L439 447Q415 472 373.50 489Q332 506 292 506Q204 506 157 446Q110 386 110 273Q110 163 153 104.50Q196 46 278 46M581 489Q570 489 557 504Q610 549 610 594Q610 637 575 666Q575 685 587.50 697.50Q600 710 621 710Q645 710 660 693Q675 676 675 642Q675 578 631 523Q620 509 606.50 499Q593 489 581 489Z"  horiz-adv-x="686" vert-adv-y="1000"  />

      
      <glyph glyph-name="uni0111" unicode="&#x0111;" d="M507 650L507 128Q507 96 511 63Q515 30 521 8Q496-4 475-4Q448-4 441 64Q408 24 369 7Q330-10 273-10Q164-10 102 65.50Q40 141 40 273Q40 409 106.50 484.50Q173 560 292 560Q329 560 370.50 546.50Q412 533 439 513L439 650L291 650L291 700L439 700L439 791L507 791L507 700L602 700L602 650L507 650M278 46Q329 46 368 67Q407 88 439 132L439 447Q415 472 373.50 489Q332 506 292 506Q204 506 157 446Q110 386 110 273Q110 163 153 104.50Q196 46 278 46Z"  horiz-adv-x="602" vert-adv-y="1000"  />

      
      <glyph glyph-name="uni1E0D" unicode="&#x1E0D;" d="M507 128Q507 96 511 63Q515 30 521 8Q496-4 475-4Q448-4 441 64Q408 24 369 7Q330-10 273-10Q164-10 102 65.50Q40 141 40 273Q40 409 106.50 484.50Q173 560 292 560Q329 560 370.50 546.50Q412 533 439 513L439 791L507 791L507 128M278 46Q329 46 368 67Q407 88 439 132L439 447Q415 472 373.50 489Q332 506 292 506Q204 506 157 446Q110 386 110 273Q110 163 153 104.50Q196 46 278 46M295-179Q250-179 250-134L250-125Q250-80 295-80L303-80Q348-80 348-125L348-134Q348-179 303-179L295-179Z"  horiz-adv-x="598" vert-adv-y="1000"  />

      
      <glyph glyph-name="uni1E0F" unicode="&#x1E0F;" d="M507 128Q507 96 511 63Q515 30 521 8Q496-4 475-4Q448-4 441 64Q408 24 369 7Q330-10 273-10Q164-10 102 65.50Q40 141 40 273Q40 409 106.50 484.50Q173 560 292 560Q329 560 370.50 546.50Q412 533 439 513L439 791L507 791L507 128M278 46Q329 46 368 67Q407 88 439 132L439 447Q415 472 373.50 489Q332 506 292 506Q204 506 157 446Q110 386 110 273Q110 163 153 104.50Q196 46 278 46Z"  horiz-adv-x="598" vert-adv-y="1000"  />

      
      <glyph glyph-name="uni65" unicode="&#x65;" d="M520 314Q520 291 518 268L120 268Q122 164 166.50 106Q211 48 290 48Q344 48 381.50 69Q419 90 444 136Q451 149 465 149Q481 149 509 130Q487 65 428 27.50Q369-10 290-10Q217-10 162.50 24.50Q108 59 79 123.50Q50 188 50 276Q50 409 116 484.50Q182 560 297 560Q402 560 461 495Q520 430 520 314M450 322Q450 502 294 502Q218 502 174 456Q130 410 122 322L450 322Z"  horiz-adv-x="560" vert-adv-y="1000"  />

      
      <glyph glyph-name="unie9" unicode="&#xe9;" d="M520 314Q520 291 518 268L120 268Q122 164 166.50 106Q211 48 290 48Q344 48 381.50 69Q419 90 444 136Q451 149 465 149Q481 149 509 130Q487 65 428 27.50Q369-10 290-10Q217-10 162.50 24.50Q108 59 79 123.50Q50 188 50 276Q50 409 116 484.50Q182 560 297 560Q402 560 461 495Q520 430 520 314M450 322Q450 502 294 502Q218 502 174 456Q130 410 122 322L450 322Z"  horiz-adv-x="560" vert-adv-y="1000"  />

      
      <glyph glyph-name="uni0115" unicode="&#x0115;" d="M520 314Q520 291 518 268L120 268Q122 164 166.50 106Q211 48 290 48Q344 48 381.50 69Q419 90 444 136Q451 149 465 149Q481 149 509 130Q487 65 428 27.50Q369-10 290-10Q217-10 162.50 24.50Q108 59 79 123.50Q50 188 50 276Q50 409 116 484.50Q182 560 297 560Q402 560 461 495Q520 430 520 314M450 322Q450 502 294 502Q218 502 174 456Q130 410 122 322L450 322Z"  horiz-adv-x="560" vert-adv-y="1000"  />

      
      <glyph glyph-name="uni011B" unicode="&#x011B;" d="M520 314Q520 291 518 268L120 268Q122 164 166.50 106Q211 48 290 48Q344 48 381.50 69Q419 90 444 136Q451 149 465 149Q481 149 509 130Q487 65 428 27.50Q369-10 290-10Q217-10 162.50 24.50Q108 59 79 123.50Q50 188 50 276Q50 409 116 484.50Q182 560 297 560Q402 560 461 495Q520 430 520 314M450 322Q450 502 294 502Q218 502 174 456Q130 410 122 322L450 322Z"  horiz-adv-x="560" vert-adv-y="1000"  />

      
      <glyph glyph-name="uniea" unicode="&#xea;" d="M520 314Q520 291 518 268L120 268Q122 164 166.50 106Q211 48 290 48Q344 48 381.50 69Q419 90 444 136Q451 149 465 149Q481 149 509 130Q487 65 428 27.50Q369-10 290-10Q217-10 162.50 24.50Q108 59 79 123.50Q50 188 50 276Q50 409 116 484.50Q182 560 297 560Q402 560 461 495Q520 430 520 314M450 322Q450 502 294 502Q218 502 174 456Q130 410 122 322L450 322Z"  horiz-adv-x="560" vert-adv-y="1000"  />

      
      <glyph glyph-name="uni1EBF" unicode="&#x1EBF;" d="M520 314Q520 291 518 268L120 268Q122 164 166.50 106Q211 48 290 48Q344 48 381.50 69Q419 90 444 136Q451 149 465 149Q481 149 509 130Q487 65 428 27.50Q369-10 290-10Q217-10 162.50 24.50Q108 59 79 123.50Q50 188 50 276Q50 409 116 484.50Q182 560 297 560Q402 560 461 495Q520 430 520 314M450 322Q450 502 294 502Q218 502 174 456Q130 410 122 322L450 322Z"  horiz-adv-x="560" vert-adv-y="1000"  />

      
      <glyph glyph-name="uni1EC7" unicode="&#x1EC7;" d="M520 314Q520 291 518 268L120 268Q122 164 166.50 106Q211 48 290 48Q344 48 381.50 69Q419 90 444 136Q451 149 465 149Q481 149 509 130Q487 65 428 27.50Q369-10 290-10Q217-10 162.50 24.50Q108 59 79 123.50Q50 188 50 276Q50 409 116 484.50Q182 560 297 560Q402 560 461 495Q520 430 520 314M450 322Q450 502 294 502Q218 502 174 456Q130 410 122 322L450 322M286-179Q241-179 241-134L241-125Q241-80 286-80L294-80Q339-80 339-125L339-134Q339-179 294-179L286-179Z"  horiz-adv-x="560" vert-adv-y="1000"  />

      
      <glyph glyph-name="uni1EC1" unicode="&#x1EC1;" d="M520 314Q520 291 518 268L120 268Q122 164 166.50 106Q211 48 290 48Q344 48 381.50 69Q419 90 444 136Q451 149 465 149Q481 149 509 130Q487 65 428 27.50Q369-10 290-10Q217-10 162.50 24.50Q108 59 79 123.50Q50 188 50 276Q50 409 116 484.50Q182 560 297 560Q402 560 461 495Q520 430 520 314M450 322Q450 502 294 502Q218 502 174 456Q130 410 122 322L450 322Z"  horiz-adv-x="560" vert-adv-y="1000"  />

      
      <glyph glyph-name="uni1EC3" unicode="&#x1EC3;" d="M520 314Q520 291 518 268L120 268Q122 164 166.50 106Q211 48 290 48Q344 48 381.50 69Q419 90 444 136Q451 149 465 149Q481 149 509 130Q487 65 428 27.50Q369-10 290-10Q217-10 162.50 24.50Q108 59 79 123.50Q50 188 50 276Q50 409 116 484.50Q182 560 297 560Q402 560 461 495Q520 430 520 314M450 322Q450 502 294 502Q218 502 174 456Q130 410 122 322L450 322Z"  horiz-adv-x="560" vert-adv-y="1000"  />

      
      </font>
</defs>
</svg>
